<ttFont>
    <TTGlyph name="A" xMin="-1" yMin="0" xMax="651" yMax="677">
      <contour>
        <pt x="256" y="677" on="1"/>
        <pt x="403" y="677" on="1"/>
        <pt x="651" y="0" on="1"/>
        <pt x="484" y="0" on="1"/>
        <pt x="434" y="163" on="1"/>
        <pt x="215" y="163" on="1"/>
        <pt x="163" y="0" on="1"/>
        <pt x="-1" y="0" on="1"/>
      </contour>
      <contour>
        <pt x="397" y="285" on="1"/>
        <pt x="387" y="314" on="0"/>
        <pt x="366" y="377" on="0"/>
        <pt x="347" y="437" on="0"/>
        <pt x="331" y="490" on="0"/>
        <pt x="325" y="508" on="1"/>
        <pt x="319" y="489" on="0"/>
        <pt x="303" y="436" on="0"/>
        <pt x="284" y="376" on="0"/>
        <pt x="263" y="314" on="0"/>
        <pt x="253" y="285" on="1"/>
      </contour>
    </TTGlyph>
    <TTGlyph name="AE" xMin="-13" yMin="0" xMax="904" yMax="677">
      <contour>
        <pt x="460" y="163" on="1"/>
        <pt x="266" y="163" on="1"/>
        <pt x="173" y="0" on="1"/>
        <pt x="-13" y="0" on="1"/>
        <pt x="395" y="677" on="1"/>
        <pt x="890" y="677" on="1"/>
        <pt x="890" y="556" on="1"/>
        <pt x="624" y="556" on="1"/>
        <pt x="624" y="411" on="1"/>
        <pt x="845" y="411" on="1"/>
        <pt x="826" y="292" on="1"/>
        <pt x="624" y="292" on="1"/>
        <pt x="624" y="121" on="1"/>
        <pt x="904" y="121" on="1"/>
        <pt x="904" y="0" on="1"/>
        <pt x="460" y="0" on="1"/>
      </contour>
      <contour>
        <pt x="334" y="285" on="1"/>
        <pt x="460" y="285" on="1"/>
        <pt x="460" y="526" on="1"/>
      </contour>
    </TTGlyph>
    <TTGlyph name="Aacute" xMin="-1" yMin="0" xMax="651" yMax="972">
      <contour>
        <pt x="256" y="677" on="1"/>
        <pt x="403" y="677" on="1"/>
        <pt x="651" y="0" on="1"/>
        <pt x="484" y="0" on="1"/>
        <pt x="434" y="163" on="1"/>
        <pt x="215" y="163" on="1"/>
        <pt x="163" y="0" on="1"/>
        <pt x="-1" y="0" on="1"/>
      </contour>
      <contour>
        <pt x="397" y="285" on="1"/>
        <pt x="387" y="314" on="0"/>
        <pt x="366" y="377" on="0"/>
        <pt x="347" y="437" on="0"/>
        <pt x="331" y="490" on="0"/>
        <pt x="325" y="508" on="1"/>
        <pt x="319" y="489" on="0"/>
        <pt x="303" y="436" on="0"/>
        <pt x="284" y="376" on="0"/>
        <pt x="263" y="314" on="0"/>
        <pt x="253" y="285" on="1"/>
      </contour>
      <contour>
        <pt x="264" y="799" on="1"/>
        <pt x="471" y="972" on="1"/>
        <pt x="571" y="871" on="1"/>
        <pt x="538" y="835" on="0"/>
        <pt x="459" y="782" on="0"/>
        <pt x="389" y="747" on="0"/>
        <pt x="335" y="728" on="0"/>
        <pt x="326" y="725" on="1"/>
      </contour>
    </TTGlyph>
    <TTGlyph name="Acircumflex" xMin="-1" yMin="0" xMax="651" yMax="976">
      <contour>
        <pt x="256" y="677" on="1"/>
        <pt x="403" y="677" on="1"/>
        <pt x="651" y="0" on="1"/>
        <pt x="484" y="0" on="1"/>
        <pt x="434" y="163" on="1"/>
        <pt x="215" y="163" on="1"/>
        <pt x="163" y="0" on="1"/>
        <pt x="-1" y="0" on="1"/>
      </contour>
      <contour>
        <pt x="397" y="285" on="1"/>
        <pt x="387" y="314" on="0"/>
        <pt x="366" y="377" on="0"/>
        <pt x="347" y="437" on="0"/>
        <pt x="331" y="490" on="0"/>
        <pt x="325" y="508" on="1"/>
        <pt x="319" y="489" on="0"/>
        <pt x="303" y="436" on="0"/>
        <pt x="284" y="376" on="0"/>
        <pt x="263" y="314" on="0"/>
        <pt x="253" y="285" on="1"/>
      </contour>
      <contour>
        <pt x="124" y="800" on="1"/>
        <pt x="329" y="976" on="1"/>
        <pt x="534" y="800" on="1"/>
        <pt x="472" y="725" on="1"/>
        <pt x="452" y="733" on="0"/>
        <pt x="375" y="771" on="0"/>
        <pt x="329" y="803" on="1"/>
        <pt x="283" y="771" on="0"/>
        <pt x="206" y="734" on="0"/>
        <pt x="185" y="725" on="1"/>
      </contour>
    </TTGlyph>
    <TTGlyph name="Adieresis" xMin="-1" yMin="0" xMax="651" yMax="896">
      <contour>
        <pt x="256" y="677" on="1"/>
        <pt x="403" y="677" on="1"/>
        <pt x="651" y="0" on="1"/>
        <pt x="484" y="0" on="1"/>
        <pt x="434" y="163" on="1"/>
        <pt x="215" y="163" on="1"/>
        <pt x="163" y="0" on="1"/>
        <pt x="-1" y="0" on="1"/>
      </contour>
      <contour>
        <pt x="397" y="285" on="1"/>
        <pt x="387" y="314" on="0"/>
        <pt x="366" y="377" on="0"/>
        <pt x="347" y="437" on="0"/>
        <pt x="331" y="490" on="0"/>
        <pt x="325" y="508" on="1"/>
        <pt x="319" y="489" on="0"/>
        <pt x="303" y="436" on="0"/>
        <pt x="284" y="376" on="0"/>
        <pt x="263" y="314" on="0"/>
        <pt x="253" y="285" on="1"/>
      </contour>
      <contour>
        <pt x="290" y="789" on="0"/>
        <pt x="252" y="745" on="0"/>
        <pt x="215" y="745" on="1"/>
        <pt x="180" y="745" on="0"/>
        <pt x="143" y="788" on="0"/>
        <pt x="143" y="818" on="1"/>
        <pt x="143" y="851" on="0"/>
        <pt x="180" y="896" on="0"/>
        <pt x="218" y="896" on="1"/>
        <pt x="253" y="896" on="0"/>
        <pt x="290" y="852" on="0"/>
        <pt x="290" y="822" on="1"/>
      </contour>
      <contour>
        <pt x="505" y="789" on="0"/>
        <pt x="467" y="745" on="0"/>
        <pt x="430" y="745" on="1"/>
        <pt x="395" y="745" on="0"/>
        <pt x="358" y="788" on="0"/>
        <pt x="358" y="818" on="1"/>
        <pt x="358" y="851" on="0"/>
        <pt x="395" y="896" on="0"/>
        <pt x="433" y="896" on="1"/>
        <pt x="468" y="896" on="0"/>
        <pt x="505" y="852" on="0"/>
        <pt x="505" y="822" on="1"/>
      </contour>
    </TTGlyph>
    <TTGlyph name="Agrave" xMin="-1" yMin="0" xMax="651" yMax="972">
      <contour>
        <pt x="256" y="677" on="1"/>
        <pt x="403" y="677" on="1"/>
        <pt x="651" y="0" on="1"/>
        <pt x="484" y="0" on="1"/>
        <pt x="434" y="163" on="1"/>
        <pt x="215" y="163" on="1"/>
        <pt x="163" y="0" on="1"/>
        <pt x="-1" y="0" on="1"/>
      </contour>
      <contour>
        <pt x="397" y="285" on="1"/>
        <pt x="387" y="314" on="0"/>
        <pt x="366" y="377" on="0"/>
        <pt x="347" y="437" on="0"/>
        <pt x="331" y="490" on="0"/>
        <pt x="325" y="508" on="1"/>
        <pt x="319" y="489" on="0"/>
        <pt x="303" y="436" on="0"/>
        <pt x="284" y="376" on="0"/>
        <pt x="263" y="314" on="0"/>
        <pt x="253" y="285" on="1"/>
      </contour>
      <contour>
        <pt x="322" y="725" on="1"/>
        <pt x="313" y="728" on="0"/>
        <pt x="258" y="747" on="0"/>
        <pt x="188" y="782" on="0"/>
        <pt x="110" y="835" on="0"/>
        <pt x="77" y="871" on="1"/>
        <pt x="177" y="972" on="1"/>
        <pt x="384" y="799" on="1"/>
      </contour>
    </TTGlyph>
    <TTGlyph name="Aring" xMin="-1" yMin="0" xMax="651" yMax="829">
      <contour>
        <pt x="215" y="770" on="0"/>
        <pt x="277" y="829" on="0"/>
        <pt x="325" y="829" on="1"/>
        <pt x="375" y="829" on="0"/>
        <pt x="432" y="767" on="0"/>
        <pt x="432" y="719" on="1"/>
        <pt x="432" y="699" on="0"/>
        <pt x="421" y="666" on="0"/>
        <pt x="412" y="652" on="1"/>
        <pt x="651" y="0" on="1"/>
        <pt x="484" y="0" on="1"/>
        <pt x="434" y="163" on="1"/>
        <pt x="215" y="163" on="1"/>
        <pt x="163" y="0" on="1"/>
        <pt x="-1" y="0" on="1"/>
        <pt x="242" y="642" on="1"/>
        <pt x="215" y="670" on="0"/>
        <pt x="215" y="719" on="1"/>
      </contour>
      <contour>
        <pt x="397" y="285" on="1"/>
        <pt x="387" y="314" on="0"/>
        <pt x="366" y="377" on="0"/>
        <pt x="347" y="437" on="0"/>
        <pt x="331" y="490" on="0"/>
        <pt x="325" y="508" on="1"/>
        <pt x="319" y="489" on="0"/>
        <pt x="303" y="436" on="0"/>
        <pt x="284" y="376" on="0"/>
        <pt x="263" y="314" on="0"/>
        <pt x="253" y="285" on="1"/>
      </contour>
      <contour>
        <pt x="289" y="700" on="0"/>
        <pt x="306" y="679" on="0"/>
        <pt x="319" y="677" on="1"/>
        <pt x="328" y="677" on="1"/>
        <pt x="358" y="680" on="0"/>
        <pt x="358" y="719" on="1"/>
        <pt x="358" y="738" on="0"/>
        <pt x="340" y="760" on="0"/>
        <pt x="323" y="760" on="1"/>
        <pt x="289" y="760" on="0"/>
        <pt x="289" y="720" on="1"/>
      </contour>
    </TTGlyph>
    <TTGlyph name="Atilde" xMin="-1" yMin="0" xMax="651" yMax="880">
      <contour>
        <pt x="256" y="677" on="1"/>
        <pt x="403" y="677" on="1"/>
        <pt x="651" y="0" on="1"/>
        <pt x="484" y="0" on="1"/>
        <pt x="434" y="163" on="1"/>
        <pt x="215" y="163" on="1"/>
        <pt x="163" y="0" on="1"/>
        <pt x="-1" y="0" on="1"/>
      </contour>
      <contour>
        <pt x="397" y="285" on="1"/>
        <pt x="387" y="314" on="0"/>
        <pt x="366" y="377" on="0"/>
        <pt x="347" y="437" on="0"/>
        <pt x="331" y="490" on="0"/>
        <pt x="325" y="508" on="1"/>
        <pt x="319" y="489" on="0"/>
        <pt x="303" y="436" on="0"/>
        <pt x="284" y="376" on="0"/>
        <pt x="263" y="314" on="0"/>
        <pt x="253" y="285" on="1"/>
      </contour>
      <contour>
        <pt x="154" y="857" on="1"/>
        <pt x="166" y="863" on="0"/>
        <pt x="180" y="868" on="1"/>
        <pt x="192" y="873" on="0"/>
        <pt x="223" y="880" on="0"/>
        <pt x="242" y="880" on="1"/>
        <pt x="281" y="880" on="0"/>
        <pt x="362" y="860" on="0"/>
        <pt x="402" y="860" on="1"/>
        <pt x="420" y="860" on="0"/>
        <pt x="449" y="864" on="0"/>
        <pt x="460" y="867" on="1"/>
        <pt x="472" y="870" on="0"/>
        <pt x="482" y="874" on="1"/>
        <pt x="482" y="774" on="1"/>
        <pt x="472" y="767" on="0"/>
        <pt x="460" y="762" on="1"/>
        <pt x="449" y="757" on="0"/>
        <pt x="420" y="751" on="0"/>
        <pt x="402" y="751" on="1"/>
        <pt x="362" y="751" on="0"/>
        <pt x="281" y="771" on="0"/>
        <pt x="242" y="771" on="1"/>
        <pt x="223" y="771" on="0"/>
        <pt x="192" y="766" on="0"/>
        <pt x="180" y="764" on="1"/>
        <pt x="166" y="760" on="0"/>
        <pt x="154" y="757" on="1"/>
      </contour>
    </TTGlyph>
    <TTGlyph name="B" xMin="62" yMin="-1" xMax="546" yMax="679">
      <contour>
        <pt x="62" y="677" on="1"/>
        <pt x="71" y="677" on="0"/>
        <pt x="126" y="678" on="0"/>
        <pt x="192" y="678" on="0"/>
        <pt x="254" y="679" on="0"/>
        <pt x="270" y="679" on="1"/>
        <pt x="397" y="679" on="0"/>
        <pt x="526" y="584" on="0"/>
        <pt x="526" y="503" on="1"/>
        <pt x="526" y="452" on="0"/>
        <pt x="461" y="374" on="0"/>
        <pt x="398" y="353" on="1"/>
        <pt x="473" y="331" on="0"/>
        <pt x="546" y="247" on="0"/>
        <pt x="546" y="189" on="1"/>
        <pt x="546" y="-1" on="0"/>
        <pt x="259" y="-1" on="1"/>
        <pt x="245" y="-1" on="0"/>
        <pt x="188" y="-1" on="0"/>
        <pt x="126" y="0" on="0"/>
        <pt x="73" y="0" on="0"/>
        <pt x="62" y="0" on="1"/>
      </contour>
      <contour>
        <pt x="227" y="108" on="1"/>
        <pt x="276" y="108" on="1"/>
        <pt x="296" y="108" on="0"/>
        <pt x="331" y="116" on="0"/>
        <pt x="357" y="135" on="0"/>
        <pt x="372" y="168" on="0"/>
        <pt x="372" y="193" on="1"/>
        <pt x="372" y="212" on="0"/>
        <pt x="362" y="247" on="0"/>
        <pt x="338" y="274" on="0"/>
        <pt x="299" y="290" on="0"/>
        <pt x="271" y="290" on="1"/>
        <pt x="257" y="290" on="0"/>
        <pt x="234" y="289" on="0"/>
        <pt x="227" y="288" on="1"/>
      </contour>
      <contour>
        <pt x="227" y="393" on="1"/>
        <pt x="273" y="393" on="1"/>
        <pt x="304" y="393" on="0"/>
        <pt x="353" y="431" on="0"/>
        <pt x="353" y="481" on="1"/>
        <pt x="353" y="523" on="0"/>
        <pt x="314" y="570" on="0"/>
        <pt x="269" y="570" on="1"/>
        <pt x="256" y="570" on="0"/>
        <pt x="233" y="570" on="0"/>
        <pt x="227" y="569" on="1"/>
      </contour>
    </TTGlyph>
    <TTGlyph name="C" xMin="39" yMin="-6" xMax="537" yMax="686">
      <contour>
        <pt x="447" y="512" on="1"/>
        <pt x="419" y="546" on="0"/>
        <pt x="367" y="569" on="0"/>
        <pt x="341" y="569" on="1"/>
        <pt x="276" y="569" on="0"/>
        <pt x="217" y="448" on="0"/>
        <pt x="217" y="341" on="1"/>
        <pt x="217" y="290" on="0"/>
        <pt x="230" y="205" on="0"/>
        <pt x="262" y="145" on="0"/>
        <pt x="315" y="111" on="0"/>
        <pt x="355" y="111" on="1"/>
        <pt x="390" y="111" on="0"/>
        <pt x="457" y="128" on="0"/>
        <pt x="485" y="139" on="1"/>
        <pt x="521" y="27" on="1"/>
        <pt x="490" y="14" on="0"/>
        <pt x="396" y="-6" on="0"/>
        <pt x="335" y="-6" on="1"/>
        <pt x="181" y="-6" on="0"/>
        <pt x="39" y="169" on="0"/>
        <pt x="39" y="330" on="1"/>
        <pt x="39" y="408" on="0"/>
        <pt x="76" y="538" on="0"/>
        <pt x="151" y="633" on="0"/>
        <pt x="264" y="686" on="0"/>
        <pt x="341" y="686" on="1"/>
        <pt x="381" y="686" on="0"/>
        <pt x="442" y="672" on="0"/>
        <pt x="488" y="649" on="0"/>
        <pt x="523" y="619" on="0"/>
        <pt x="537" y="603" on="1"/>
      </contour>
    </TTGlyph>
    <TTGlyph name="Ccedilla" xMin="39" yMin="-236" xMax="537" yMax="686">
      <contour>
        <pt x="447" y="512" on="1"/>
        <pt x="419" y="546" on="0"/>
        <pt x="367" y="569" on="0"/>
        <pt x="341" y="569" on="1"/>
        <pt x="276" y="569" on="0"/>
        <pt x="217" y="448" on="0"/>
        <pt x="217" y="341" on="1"/>
        <pt x="217" y="290" on="0"/>
        <pt x="230" y="205" on="0"/>
        <pt x="262" y="145" on="0"/>
        <pt x="315" y="111" on="0"/>
        <pt x="355" y="111" on="1"/>
        <pt x="390" y="111" on="0"/>
        <pt x="457" y="128" on="0"/>
        <pt x="485" y="139" on="1"/>
        <pt x="521" y="27" on="1"/>
        <pt x="495" y="16" on="0"/>
        <pt x="419" y="-2" on="0"/>
        <pt x="371" y="-5" on="1"/>
        <pt x="364" y="-37" on="1"/>
        <pt x="403" y="-41" on="0"/>
        <pt x="457" y="-84" on="0"/>
        <pt x="457" y="-126" on="1"/>
        <pt x="457" y="-155" on="0"/>
        <pt x="436" y="-197" on="0"/>
        <pt x="400" y="-224" on="0"/>
        <pt x="353" y="-236" on="0"/>
        <pt x="326" y="-236" on="1"/>
        <pt x="294" y="-236" on="0"/>
        <pt x="234" y="-223" on="0"/>
        <pt x="211" y="-212" on="1"/>
        <pt x="234" y="-137" on="1"/>
        <pt x="248" y="-143" on="0"/>
        <pt x="284" y="-151" on="0"/>
        <pt x="300" y="-151" on="1"/>
        <pt x="345" y="-151" on="0"/>
        <pt x="345" y="-127" on="1"/>
        <pt x="345" y="-117" on="0"/>
        <pt x="327" y="-102" on="0"/>
        <pt x="300" y="-92" on="0"/>
        <pt x="267" y="-87" on="0"/>
        <pt x="251" y="-87" on="1"/>
        <pt x="273" y="-2" on="1"/>
        <pt x="151" y="15" on="0"/>
        <pt x="39" y="187" on="0"/>
        <pt x="39" y="330" on="1"/>
        <pt x="39" y="408" on="0"/>
        <pt x="76" y="538" on="0"/>
        <pt x="151" y="633" on="0"/>
        <pt x="264" y="686" on="0"/>
        <pt x="341" y="686" on="1"/>
        <pt x="381" y="686" on="0"/>
        <pt x="442" y="672" on="0"/>
        <pt x="488" y="649" on="0"/>
        <pt x="523" y="619" on="0"/>
        <pt x="537" y="603" on="1"/>
      </contour>
    </TTGlyph>
    <TTGlyph name="D" xMin="62" yMin="-2" xMax="611" yMax="679">
      <contour>
        <pt x="62" y="677" on="1"/>
        <pt x="69" y="677" on="0"/>
        <pt x="120" y="678" on="0"/>
        <pt x="186" y="678" on="0"/>
        <pt x="257" y="679" on="0"/>
        <pt x="285" y="679" on="1"/>
        <pt x="370" y="679" on="0"/>
        <pt x="493" y="628" on="0"/>
        <pt x="573" y="536" on="0"/>
        <pt x="611" y="409" on="0"/>
        <pt x="611" y="333" on="1"/>
        <pt x="611" y="255" on="0"/>
        <pt x="572" y="131" on="0"/>
        <pt x="491" y="44" on="0"/>
        <pt x="367" y="-2" on="0"/>
        <pt x="282" y="-2" on="1"/>
        <pt x="253" y="-2" on="0"/>
        <pt x="205" y="-1" on="0"/>
        <pt x="155" y="-1" on="0"/>
        <pt x="99" y="0" on="0"/>
        <pt x="62" y="0" on="1"/>
      </contour>
      <contour>
        <pt x="261" y="563" on="0"/>
        <pt x="243" y="562" on="0"/>
        <pt x="227" y="562" on="1"/>
        <pt x="227" y="115" on="1"/>
        <pt x="240" y="114" on="0"/>
        <pt x="260" y="114" on="0"/>
        <pt x="278" y="114" on="1"/>
        <pt x="322" y="114" on="0"/>
        <pt x="381" y="144" on="0"/>
        <pt x="417" y="200" on="0"/>
        <pt x="433" y="281" on="0"/>
        <pt x="433" y="331" on="1"/>
        <pt x="433" y="563" on="0"/>
        <pt x="278" y="563" on="1"/>
      </contour>
    </TTGlyph>
    <TTGlyph name="E" xMin="62" yMin="0" xMax="507" yMax="677">
      <contour>
        <pt x="62" y="677" on="1"/>
        <pt x="493" y="677" on="1"/>
        <pt x="493" y="556" on="1"/>
        <pt x="227" y="556" on="1"/>
        <pt x="227" y="411" on="1"/>
        <pt x="448" y="411" on="1"/>
        <pt x="429" y="292" on="1"/>
        <pt x="227" y="292" on="1"/>
        <pt x="227" y="121" on="1"/>
        <pt x="507" y="121" on="1"/>
        <pt x="507" y="0" on="1"/>
        <pt x="62" y="0" on="1"/>
      </contour>
    </TTGlyph>
    <TTGlyph name="Eacute" xMin="62" yMin="0" xMax="542" yMax="972">
      <contour>
        <pt x="62" y="677" on="1"/>
        <pt x="493" y="677" on="1"/>
        <pt x="493" y="556" on="1"/>
        <pt x="227" y="556" on="1"/>
        <pt x="227" y="411" on="1"/>
        <pt x="448" y="411" on="1"/>
        <pt x="429" y="292" on="1"/>
        <pt x="227" y="292" on="1"/>
        <pt x="227" y="121" on="1"/>
        <pt x="507" y="121" on="1"/>
        <pt x="507" y="0" on="1"/>
        <pt x="62" y="0" on="1"/>
      </contour>
      <contour>
        <pt x="235" y="799" on="1"/>
        <pt x="442" y="972" on="1"/>
        <pt x="542" y="871" on="1"/>
        <pt x="509" y="835" on="0"/>
        <pt x="430" y="782" on="0"/>
        <pt x="360" y="747" on="0"/>
        <pt x="306" y="728" on="0"/>
        <pt x="297" y="725" on="1"/>
      </contour>
    </TTGlyph>
    <TTGlyph name="Ecircumflex" xMin="62" yMin="0" xMax="507" yMax="976">
      <contour>
        <pt x="62" y="677" on="1"/>
        <pt x="493" y="677" on="1"/>
        <pt x="493" y="556" on="1"/>
        <pt x="227" y="556" on="1"/>
        <pt x="227" y="411" on="1"/>
        <pt x="448" y="411" on="1"/>
        <pt x="429" y="292" on="1"/>
        <pt x="227" y="292" on="1"/>
        <pt x="227" y="121" on="1"/>
        <pt x="507" y="121" on="1"/>
        <pt x="507" y="0" on="1"/>
        <pt x="62" y="0" on="1"/>
      </contour>
      <contour>
        <pt x="95" y="800" on="1"/>
        <pt x="300" y="976" on="1"/>
        <pt x="505" y="800" on="1"/>
        <pt x="443" y="725" on="1"/>
        <pt x="423" y="733" on="0"/>
        <pt x="346" y="771" on="0"/>
        <pt x="300" y="803" on="1"/>
        <pt x="254" y="771" on="0"/>
        <pt x="177" y="734" on="0"/>
        <pt x="156" y="725" on="1"/>
      </contour>
    </TTGlyph>
    <TTGlyph name="Edieresis" xMin="62" yMin="0" xMax="507" yMax="896">
      <contour>
        <pt x="62" y="677" on="1"/>
        <pt x="493" y="677" on="1"/>
        <pt x="493" y="556" on="1"/>
        <pt x="227" y="556" on="1"/>
        <pt x="227" y="411" on="1"/>
        <pt x="448" y="411" on="1"/>
        <pt x="429" y="292" on="1"/>
        <pt x="227" y="292" on="1"/>
        <pt x="227" y="121" on="1"/>
        <pt x="507" y="121" on="1"/>
        <pt x="507" y="0" on="1"/>
        <pt x="62" y="0" on="1"/>
      </contour>
      <contour>
        <pt x="239" y="789" on="0"/>
        <pt x="201" y="745" on="0"/>
        <pt x="164" y="745" on="1"/>
        <pt x="129" y="745" on="0"/>
        <pt x="92" y="788" on="0"/>
        <pt x="92" y="818" on="1"/>
        <pt x="92" y="851" on="0"/>
        <pt x="129" y="896" on="0"/>
        <pt x="167" y="896" on="1"/>
        <pt x="202" y="896" on="0"/>
        <pt x="239" y="852" on="0"/>
        <pt x="239" y="822" on="1"/>
      </contour>
      <contour>
        <pt x="454" y="789" on="0"/>
        <pt x="416" y="745" on="0"/>
        <pt x="379" y="745" on="1"/>
        <pt x="344" y="745" on="0"/>
        <pt x="307" y="788" on="0"/>
        <pt x="307" y="818" on="1"/>
        <pt x="307" y="851" on="0"/>
        <pt x="344" y="896" on="0"/>
        <pt x="382" y="896" on="1"/>
        <pt x="417" y="896" on="0"/>
        <pt x="454" y="852" on="0"/>
        <pt x="454" y="822" on="1"/>
      </contour>
    </TTGlyph>
    <TTGlyph name="Egrave" xMin="48" yMin="0" xMax="507" yMax="972">
      <contour>
        <pt x="62" y="677" on="1"/>
        <pt x="493" y="677" on="1"/>
        <pt x="493" y="556" on="1"/>
        <pt x="227" y="556" on="1"/>
        <pt x="227" y="411" on="1"/>
        <pt x="448" y="411" on="1"/>
        <pt x="429" y="292" on="1"/>
        <pt x="227" y="292" on="1"/>
        <pt x="227" y="121" on="1"/>
        <pt x="507" y="121" on="1"/>
        <pt x="507" y="0" on="1"/>
        <pt x="62" y="0" on="1"/>
      </contour>
      <contour>
        <pt x="293" y="725" on="1"/>
        <pt x="284" y="728" on="0"/>
        <pt x="229" y="747" on="0"/>
        <pt x="159" y="782" on="0"/>
        <pt x="81" y="835" on="0"/>
        <pt x="48" y="871" on="1"/>
        <pt x="148" y="972" on="1"/>
        <pt x="355" y="799" on="1"/>
      </contour>
    </TTGlyph>
    <TTGlyph name="Eth" xMin="-8" yMin="-2" xMax="611" yMax="679">
      <contour>
        <pt x="62" y="289" on="1"/>
        <pt x="-8" y="289" on="1"/>
        <pt x="-8" y="407" on="1"/>
        <pt x="62" y="407" on="1"/>
        <pt x="62" y="677" on="1"/>
        <pt x="69" y="677" on="0"/>
        <pt x="120" y="678" on="0"/>
        <pt x="186" y="678" on="0"/>
        <pt x="257" y="679" on="0"/>
        <pt x="285" y="679" on="1"/>
        <pt x="370" y="679" on="0"/>
        <pt x="493" y="628" on="0"/>
        <pt x="573" y="536" on="0"/>
        <pt x="611" y="409" on="0"/>
        <pt x="611" y="333" on="1"/>
        <pt x="611" y="255" on="0"/>
        <pt x="572" y="131" on="0"/>
        <pt x="491" y="44" on="0"/>
        <pt x="367" y="-2" on="0"/>
        <pt x="282" y="-2" on="1"/>
        <pt x="253" y="-2" on="0"/>
        <pt x="205" y="-1" on="0"/>
        <pt x="155" y="-1" on="0"/>
        <pt x="99" y="0" on="0"/>
        <pt x="62" y="0" on="1"/>
      </contour>
      <contour>
        <pt x="261" y="563" on="0"/>
        <pt x="243" y="562" on="0"/>
        <pt x="227" y="562" on="1"/>
        <pt x="227" y="407" on="1"/>
        <pt x="339" y="407" on="1"/>
        <pt x="339" y="289" on="1"/>
        <pt x="227" y="289" on="1"/>
        <pt x="227" y="115" on="1"/>
        <pt x="240" y="114" on="0"/>
        <pt x="260" y="114" on="0"/>
        <pt x="278" y="114" on="1"/>
        <pt x="322" y="114" on="0"/>
        <pt x="381" y="144" on="0"/>
        <pt x="417" y="200" on="0"/>
        <pt x="433" y="281" on="0"/>
        <pt x="433" y="331" on="1"/>
        <pt x="433" y="563" on="0"/>
        <pt x="278" y="563" on="1"/>
      </contour>
    </TTGlyph>
    <TTGlyph name="Euro" xMin="39" yMin="-6" xMax="577" yMax="645">
      <contour>
        <pt x="105" y="437" on="1"/>
        <pt x="132" y="532" on="0"/>
        <pt x="271" y="645" on="0"/>
        <pt x="383" y="645" on="1"/>
        <pt x="423" y="645" on="0"/>
        <pt x="483" y="631" on="0"/>
        <pt x="528" y="608" on="0"/>
        <pt x="563" y="579" on="0"/>
        <pt x="577" y="563" on="1"/>
        <pt x="488" y="473" on="1"/>
        <pt x="460" y="507" on="0"/>
        <pt x="410" y="529" on="0"/>
        <pt x="384" y="529" on="1"/>
        <pt x="346" y="529" on="0"/>
        <pt x="294" y="482" on="0"/>
        <pt x="280" y="437" on="1"/>
        <pt x="486" y="437" on="1"/>
        <pt x="468" y="320" on="1"/>
        <pt x="265" y="320" on="1"/>
        <pt x="265" y="318" on="0"/>
        <pt x="264" y="306" on="0"/>
        <pt x="264" y="301" on="1"/>
        <pt x="264" y="291" on="0"/>
        <pt x="267" y="279" on="1"/>
        <pt x="464" y="279" on="1"/>
        <pt x="446" y="162" on="1"/>
        <pt x="302" y="162" on="1"/>
        <pt x="317" y="137" on="0"/>
        <pt x="364" y="110" on="0"/>
        <pt x="397" y="110" on="1"/>
        <pt x="415" y="110" on="0"/>
        <pt x="442" y="113" on="0"/>
        <pt x="466" y="119" on="0"/>
        <pt x="490" y="126" on="0"/>
        <pt x="504" y="130" on="1"/>
        <pt x="540" y="18" on="1"/>
        <pt x="509" y="10" on="0"/>
        <pt x="439" y="-6" on="0"/>
        <pt x="381" y="-6" on="1"/>
        <pt x="272" y="-6" on="0"/>
        <pt x="140" y="80" on="0"/>
        <pt x="111" y="162" on="1"/>
        <pt x="39" y="162" on="1"/>
        <pt x="39" y="279" on="1"/>
        <pt x="89" y="279" on="1"/>
        <pt x="89" y="282" on="0"/>
        <pt x="88" y="294" on="0"/>
        <pt x="88" y="300" on="1"/>
        <pt x="88" y="305" on="0"/>
        <pt x="89" y="317" on="0"/>
        <pt x="89" y="320" on="1"/>
        <pt x="39" y="320" on="1"/>
        <pt x="39" y="437" on="1"/>
      </contour>
    </TTGlyph>
    <TTGlyph name="F" xMin="62" yMin="0" xMax="493" yMax="677">
      <contour>
        <pt x="62" y="677" on="1"/>
        <pt x="493" y="677" on="1"/>
        <pt x="493" y="557" on="1"/>
        <pt x="227" y="557" on="1"/>
        <pt x="227" y="402" on="1"/>
        <pt x="450" y="402" on="1"/>
        <pt x="430" y="283" on="1"/>
        <pt x="227" y="283" on="1"/>
        <pt x="227" y="0" on="1"/>
        <pt x="62" y="0" on="1"/>
      </contour>
    </TTGlyph>
    <TTGlyph name="G" xMin="35" yMin="-223" xMax="568" yMax="686">
      <contour>
        <pt x="312" y="-119" on="1"/>
        <pt x="344" y="-101" on="0"/>
        <pt x="387" y="-65" on="0"/>
        <pt x="414" y="-21" on="0"/>
        <pt x="426" y="32" on="0"/>
        <pt x="426" y="65" on="1"/>
        <pt x="426" y="72" on="1"/>
        <pt x="406" y="34" on="0"/>
        <pt x="330" y="-7" on="0"/>
        <pt x="278" y="-7" on="1"/>
        <pt x="219" y="-7" on="0"/>
        <pt x="128" y="39" on="0"/>
        <pt x="67" y="126" on="0"/>
        <pt x="35" y="251" on="0"/>
        <pt x="35" y="330" on="1"/>
        <pt x="35" y="407" on="0"/>
        <pt x="72" y="538" on="0"/>
        <pt x="148" y="633" on="0"/>
        <pt x="265" y="686" on="0"/>
        <pt x="345" y="686" on="1"/>
        <pt x="404" y="686" on="0"/>
        <pt x="513" y="641" on="0"/>
        <pt x="549" y="597" on="1"/>
        <pt x="472" y="503" on="1"/>
        <pt x="443" y="531" on="0"/>
        <pt x="377" y="569" on="0"/>
        <pt x="345" y="569" on="1"/>
        <pt x="274" y="569" on="0"/>
        <pt x="213" y="447" on="0"/>
        <pt x="213" y="340" on="1"/>
        <pt x="213" y="288" on="0"/>
        <pt x="225" y="203" on="0"/>
        <pt x="250" y="143" on="0"/>
        <pt x="287" y="111" on="0"/>
        <pt x="313" y="111" on="1"/>
        <pt x="333" y="111" on="0"/>
        <pt x="368" y="141" on="0"/>
        <pt x="395" y="188" on="0"/>
        <pt x="410" y="246" on="0"/>
        <pt x="410" y="275" on="1"/>
        <pt x="410" y="350" on="1"/>
        <pt x="568" y="350" on="1"/>
        <pt x="568" y="31" on="1"/>
        <pt x="568" y="-30" on="0"/>
        <pt x="534" y="-113" on="0"/>
        <pt x="479" y="-170" on="0"/>
        <pt x="408" y="-208" on="0"/>
        <pt x="372" y="-223" on="1"/>
      </contour>
    </TTGlyph>
    <TTGlyph name="H" xMin="62" yMin="0" xMax="625" yMax="677">
      <contour>
        <pt x="461" y="290" on="1"/>
        <pt x="227" y="290" on="1"/>
        <pt x="227" y="0" on="1"/>
        <pt x="62" y="0" on="1"/>
        <pt x="62" y="677" on="1"/>
        <pt x="227" y="677" on="1"/>
        <pt x="227" y="412" on="1"/>
        <pt x="461" y="412" on="1"/>
        <pt x="461" y="677" on="1"/>
        <pt x="625" y="677" on="1"/>
        <pt x="625" y="0" on="1"/>
        <pt x="461" y="0" on="1"/>
      </contour>
    </TTGlyph>
    <TTGlyph name="I" xMin="62" yMin="0" xMax="227" yMax="677">
      <contour>
        <pt x="62" y="677" on="1"/>
        <pt x="227" y="677" on="1"/>
        <pt x="227" y="0" on="1"/>
        <pt x="62" y="0" on="1"/>
      </contour>
    </TTGlyph>
    <TTGlyph name="Iacute" xMin="62" yMin="0" xMax="391" yMax="972">
      <contour>
        <pt x="62" y="677" on="1"/>
        <pt x="227" y="677" on="1"/>
        <pt x="227" y="0" on="1"/>
        <pt x="62" y="0" on="1"/>
      </contour>
      <contour>
        <pt x="84" y="799" on="1"/>
        <pt x="291" y="972" on="1"/>
        <pt x="391" y="871" on="1"/>
        <pt x="358" y="835" on="0"/>
        <pt x="279" y="782" on="0"/>
        <pt x="209" y="747" on="0"/>
        <pt x="155" y="728" on="0"/>
        <pt x="146" y="725" on="1"/>
      </contour>
    </TTGlyph>
    <TTGlyph name="Icircumflex" xMin="-55" yMin="0" xMax="355" yMax="976">
      <contour>
        <pt x="62" y="677" on="1"/>
        <pt x="227" y="677" on="1"/>
        <pt x="227" y="0" on="1"/>
        <pt x="62" y="0" on="1"/>
      </contour>
      <contour>
        <pt x="-55" y="800" on="1"/>
        <pt x="150" y="976" on="1"/>
        <pt x="355" y="800" on="1"/>
        <pt x="293" y="725" on="1"/>
        <pt x="273" y="733" on="0"/>
        <pt x="196" y="771" on="0"/>
        <pt x="150" y="803" on="1"/>
        <pt x="104" y="771" on="0"/>
        <pt x="27" y="734" on="0"/>
        <pt x="6" y="725" on="1"/>
      </contour>
    </TTGlyph>
    <TTGlyph name="Idieresis" xMin="-36" yMin="0" xMax="326" yMax="896">
      <contour>
        <pt x="62" y="677" on="1"/>
        <pt x="227" y="677" on="1"/>
        <pt x="227" y="0" on="1"/>
        <pt x="62" y="0" on="1"/>
      </contour>
      <contour>
        <pt x="111" y="789" on="0"/>
        <pt x="73" y="745" on="0"/>
        <pt x="36" y="745" on="1"/>
        <pt x="1" y="745" on="0"/>
        <pt x="-36" y="788" on="0"/>
        <pt x="-36" y="818" on="1"/>
        <pt x="-36" y="851" on="0"/>
        <pt x="1" y="896" on="0"/>
        <pt x="39" y="896" on="1"/>
        <pt x="74" y="896" on="0"/>
        <pt x="111" y="852" on="0"/>
        <pt x="111" y="822" on="1"/>
      </contour>
      <contour>
        <pt x="326" y="789" on="0"/>
        <pt x="288" y="745" on="0"/>
        <pt x="251" y="745" on="1"/>
        <pt x="216" y="745" on="0"/>
        <pt x="179" y="788" on="0"/>
        <pt x="179" y="818" on="1"/>
        <pt x="179" y="851" on="0"/>
        <pt x="216" y="896" on="0"/>
        <pt x="254" y="896" on="1"/>
        <pt x="289" y="896" on="0"/>
        <pt x="326" y="852" on="0"/>
        <pt x="326" y="822" on="1"/>
      </contour>
    </TTGlyph>
    <TTGlyph name="Igrave" xMin="-102" yMin="0" xMax="227" yMax="972">
      <contour>
        <pt x="62" y="677" on="1"/>
        <pt x="227" y="677" on="1"/>
        <pt x="227" y="0" on="1"/>
        <pt x="62" y="0" on="1"/>
      </contour>
      <contour>
        <pt x="143" y="725" on="1"/>
        <pt x="134" y="728" on="0"/>
        <pt x="79" y="747" on="0"/>
        <pt x="9" y="782" on="0"/>
        <pt x="-69" y="835" on="0"/>
        <pt x="-102" y="871" on="1"/>
        <pt x="-2" y="972" on="1"/>
        <pt x="205" y="799" on="1"/>
      </contour>
    </TTGlyph>
    <TTGlyph name="J" xMin="-43" yMin="-223" xMax="222" yMax="677">
      <contour>
        <pt x="222" y="43" on="1"/>
        <pt x="222" y="-13" on="0"/>
        <pt x="192" y="-95" on="0"/>
        <pt x="138" y="-157" on="0"/>
        <pt x="66" y="-203" on="0"/>
        <pt x="24" y="-223" on="1"/>
        <pt x="-43" y="-112" on="1"/>
        <pt x="-5" y="-92" on="0"/>
        <pt x="36" y="-53" on="0"/>
        <pt x="55" y="-14" on="0"/>
        <pt x="58" y="23" on="0"/>
        <pt x="58" y="41" on="1"/>
        <pt x="58" y="677" on="1"/>
        <pt x="222" y="677" on="1"/>
      </contour>
    </TTGlyph>
    <TTGlyph name="K" xMin="62" yMin="0" xMax="652" yMax="677">
      <contour>
        <pt x="62" y="677" on="1"/>
        <pt x="227" y="677" on="1"/>
        <pt x="227" y="0" on="1"/>
        <pt x="62" y="0" on="1"/>
      </contour>
      <contour>
        <pt x="576" y="606" on="0"/>
        <pt x="539" y="504" on="0"/>
        <pt x="495" y="429" on="0"/>
        <pt x="445" y="377" on="0"/>
        <pt x="418" y="356" on="1"/>
        <pt x="652" y="0" on="1"/>
        <pt x="468" y="0" on="1"/>
        <pt x="238" y="371" on="1"/>
        <pt x="238" y="383" on="1"/>
        <pt x="282" y="404" on="0"/>
        <pt x="343" y="461" on="0"/>
        <pt x="385" y="534" on="0"/>
        <pt x="414" y="623" on="0"/>
        <pt x="426" y="677" on="1"/>
        <pt x="590" y="677" on="1"/>
      </contour>
    </TTGlyph>
    <TTGlyph name="L" xMin="62" yMin="0" xMax="465" yMax="677">
      <contour>
        <pt x="62" y="677" on="1"/>
        <pt x="227" y="677" on="1"/>
        <pt x="227" y="121" on="1"/>
        <pt x="465" y="121" on="1"/>
        <pt x="465" y="0" on="1"/>
        <pt x="62" y="0" on="1"/>
      </contour>
    </TTGlyph>
    <TTGlyph name="M" xMin="52" yMin="0" xMax="808" yMax="677">
      <contour>
        <pt x="491" y="0" on="1"/>
        <pt x="366" y="0" on="1"/>
        <pt x="283" y="192" on="1"/>
        <pt x="280" y="200" on="0"/>
        <pt x="263" y="243" on="0"/>
        <pt x="242" y="298" on="0"/>
        <pt x="220" y="356" on="0"/>
        <pt x="211" y="380" on="1"/>
        <pt x="211" y="354" on="0"/>
        <pt x="211" y="286" on="0"/>
        <pt x="211" y="216" on="0"/>
        <pt x="210" y="154" on="0"/>
        <pt x="209" y="136" on="1"/>
        <pt x="204" y="0" on="1"/>
        <pt x="52" y="0" on="1"/>
        <pt x="92" y="677" on="1"/>
        <pt x="234" y="677" on="1"/>
        <pt x="390" y="287" on="1"/>
        <pt x="397" y="269" on="0"/>
        <pt x="420" y="204" on="0"/>
        <pt x="431" y="166" on="1"/>
        <pt x="442" y="203" on="0"/>
        <pt x="465" y="268" on="0"/>
        <pt x="473" y="287" on="1"/>
        <pt x="629" y="677" on="1"/>
        <pt x="768" y="677" on="1"/>
        <pt x="808" y="0" on="1"/>
        <pt x="653" y="0" on="1"/>
        <pt x="647" y="136" on="1"/>
        <pt x="646" y="155" on="0"/>
        <pt x="645" y="217" on="0"/>
        <pt x="645" y="286" on="0"/>
        <pt x="646" y="355" on="0"/>
        <pt x="646" y="380" on="1"/>
        <pt x="638" y="359" on="0"/>
        <pt x="619" y="306" on="0"/>
        <pt x="599" y="256" on="0"/>
        <pt x="581" y="213" on="0"/>
        <pt x="576" y="201" on="1"/>
      </contour>
    </TTGlyph>
    <TTGlyph name="N" xMin="62" yMin="0" xMax="627" yMax="677">
      <contour>
        <pt x="462" y="677" on="1"/>
        <pt x="627" y="677" on="1"/>
        <pt x="627" y="0" on="1"/>
        <pt x="486" y="0" on="1"/>
        <pt x="293" y="292" on="1"/>
        <pt x="287" y="301" on="0"/>
        <pt x="266" y="335" on="0"/>
        <pt x="243" y="372" on="0"/>
        <pt x="222" y="407" on="0"/>
        <pt x="215" y="418" on="1"/>
        <pt x="216" y="403" on="0"/>
        <pt x="219" y="360" on="0"/>
        <pt x="222" y="316" on="0"/>
        <pt x="224" y="274" on="0"/>
        <pt x="224" y="260" on="1"/>
        <pt x="227" y="0" on="1"/>
        <pt x="62" y="0" on="1"/>
        <pt x="62" y="677" on="1"/>
        <pt x="197" y="677" on="1"/>
        <pt x="392" y="387" on="1"/>
        <pt x="401" y="373" on="0"/>
        <pt x="423" y="338" on="0"/>
        <pt x="446" y="302" on="0"/>
        <pt x="466" y="269" on="0"/>
        <pt x="473" y="257" on="1"/>
        <pt x="472" y="273" on="0"/>
        <pt x="470" y="315" on="0"/>
        <pt x="467" y="360" on="0"/>
        <pt x="465" y="402" on="0"/>
        <pt x="465" y="418" on="1"/>
      </contour>
    </TTGlyph>
    <TTGlyph name="Ntilde" xMin="62" yMin="0" xMax="627" yMax="883">
      <contour>
        <pt x="462" y="677" on="1"/>
        <pt x="627" y="677" on="1"/>
        <pt x="627" y="0" on="1"/>
        <pt x="486" y="0" on="1"/>
        <pt x="293" y="292" on="1"/>
        <pt x="287" y="301" on="0"/>
        <pt x="266" y="335" on="0"/>
        <pt x="243" y="372" on="0"/>
        <pt x="222" y="407" on="0"/>
        <pt x="215" y="418" on="1"/>
        <pt x="216" y="403" on="0"/>
        <pt x="219" y="360" on="0"/>
        <pt x="222" y="316" on="0"/>
        <pt x="224" y="274" on="0"/>
        <pt x="224" y="260" on="1"/>
        <pt x="227" y="0" on="1"/>
        <pt x="62" y="0" on="1"/>
        <pt x="62" y="677" on="1"/>
        <pt x="197" y="677" on="1"/>
        <pt x="392" y="387" on="1"/>
        <pt x="401" y="373" on="0"/>
        <pt x="423" y="338" on="0"/>
        <pt x="446" y="302" on="0"/>
        <pt x="466" y="269" on="0"/>
        <pt x="473" y="257" on="1"/>
        <pt x="472" y="273" on="0"/>
        <pt x="470" y="315" on="0"/>
        <pt x="467" y="360" on="0"/>
        <pt x="465" y="402" on="0"/>
        <pt x="465" y="418" on="1"/>
      </contour>
      <contour>
        <pt x="180" y="860" on="1"/>
        <pt x="192" y="866" on="0"/>
        <pt x="206" y="871" on="1"/>
        <pt x="218" y="876" on="0"/>
        <pt x="249" y="883" on="0"/>
        <pt x="268" y="883" on="1"/>
        <pt x="307" y="883" on="0"/>
        <pt x="388" y="863" on="0"/>
        <pt x="428" y="863" on="1"/>
        <pt x="446" y="863" on="0"/>
        <pt x="475" y="867" on="0"/>
        <pt x="486" y="870" on="1"/>
        <pt x="498" y="873" on="0"/>
        <pt x="508" y="877" on="1"/>
        <pt x="508" y="777" on="1"/>
        <pt x="498" y="770" on="0"/>
        <pt x="486" y="765" on="1"/>
        <pt x="475" y="760" on="0"/>
        <pt x="446" y="754" on="0"/>
        <pt x="428" y="754" on="1"/>
        <pt x="388" y="754" on="0"/>
        <pt x="307" y="774" on="0"/>
        <pt x="268" y="774" on="1"/>
        <pt x="249" y="774" on="0"/>
        <pt x="218" y="769" on="0"/>
        <pt x="206" y="767" on="1"/>
        <pt x="192" y="763" on="0"/>
        <pt x="180" y="760" on="1"/>
      </contour>
    </TTGlyph>
    <TTGlyph name="O" xMin="37" yMin="-6" xMax="655" yMax="686">
      <contour>
        <pt x="432" y="686" on="0"/>
        <pt x="546" y="638" on="0"/>
        <pt x="620" y="550" on="0"/>
        <pt x="655" y="423" on="0"/>
        <pt x="655" y="344" on="1"/>
        <pt x="655" y="266" on="0"/>
        <pt x="616" y="137" on="0"/>
        <pt x="538" y="45" on="0"/>
        <pt x="420" y="-6" on="0"/>
        <pt x="340" y="-6" on="1"/>
        <pt x="261" y="-6" on="0"/>
        <pt x="146" y="39" on="0"/>
        <pt x="72" y="126" on="0"/>
        <pt x="37" y="250" on="0"/>
        <pt x="37" y="330" on="1"/>
        <pt x="37" y="408" on="0"/>
        <pt x="76" y="539" on="0"/>
        <pt x="154" y="634" on="0"/>
        <pt x="273" y="686" on="0"/>
        <pt x="353" y="686" on="1"/>
      </contour>
      <contour>
        <pt x="274" y="569" on="0"/>
        <pt x="215" y="448" on="0"/>
        <pt x="215" y="341" on="1"/>
        <pt x="215" y="290" on="0"/>
        <pt x="228" y="206" on="0"/>
        <pt x="259" y="145" on="0"/>
        <pt x="313" y="111" on="0"/>
        <pt x="354" y="111" on="1"/>
        <pt x="419" y="111" on="0"/>
        <pt x="477" y="227" on="0"/>
        <pt x="477" y="334" on="1"/>
        <pt x="477" y="385" on="0"/>
        <pt x="464" y="471" on="0"/>
        <pt x="433" y="534" on="0"/>
        <pt x="379" y="569" on="0"/>
        <pt x="339" y="569" on="1"/>
      </contour>
    </TTGlyph>
    <TTGlyph name="OE" xMin="37" yMin="-6" xMax="866" yMax="686">
      <contour>
        <pt x="418" y="-4" on="0"/>
        <pt x="365" y="-6" on="0"/>
        <pt x="336" y="-6" on="1"/>
        <pt x="257" y="-6" on="0"/>
        <pt x="144" y="39" on="0"/>
        <pt x="71" y="126" on="0"/>
        <pt x="37" y="250" on="0"/>
        <pt x="37" y="330" on="1"/>
        <pt x="37" y="408" on="0"/>
        <pt x="74" y="538" on="0"/>
        <pt x="149" y="633" on="0"/>
        <pt x="262" y="686" on="0"/>
        <pt x="339" y="686" on="1"/>
        <pt x="392" y="686" on="0"/>
        <pt x="428" y="677" on="1"/>
        <pt x="852" y="677" on="1"/>
        <pt x="852" y="556" on="1"/>
        <pt x="586" y="556" on="1"/>
        <pt x="586" y="411" on="1"/>
        <pt x="808" y="411" on="1"/>
        <pt x="788" y="292" on="1"/>
        <pt x="586" y="292" on="1"/>
        <pt x="586" y="121" on="1"/>
        <pt x="866" y="121" on="1"/>
        <pt x="866" y="0" on="1"/>
        <pt x="443" y="0" on="1"/>
      </contour>
      <contour>
        <pt x="370" y="111" on="0"/>
        <pt x="404" y="113" on="0"/>
        <pt x="422" y="115" on="1"/>
        <pt x="422" y="552" on="1"/>
        <pt x="382" y="569" on="0"/>
        <pt x="339" y="569" on="1"/>
        <pt x="274" y="569" on="0"/>
        <pt x="215" y="448" on="0"/>
        <pt x="215" y="341" on="1"/>
        <pt x="215" y="290" on="0"/>
        <pt x="228" y="206" on="0"/>
        <pt x="259" y="145" on="0"/>
        <pt x="313" y="111" on="0"/>
        <pt x="354" y="111" on="1"/>
      </contour>
    </TTGlyph>
    <TTGlyph name="Oacute" xMin="37" yMin="-6" xMax="655" yMax="972">
      <contour>
        <pt x="432" y="686" on="0"/>
        <pt x="546" y="638" on="0"/>
        <pt x="620" y="550" on="0"/>
        <pt x="655" y="423" on="0"/>
        <pt x="655" y="344" on="1"/>
        <pt x="655" y="266" on="0"/>
        <pt x="616" y="137" on="0"/>
        <pt x="538" y="45" on="0"/>
        <pt x="420" y="-6" on="0"/>
        <pt x="340" y="-6" on="1"/>
        <pt x="261" y="-6" on="0"/>
        <pt x="146" y="39" on="0"/>
        <pt x="72" y="126" on="0"/>
        <pt x="37" y="250" on="0"/>
        <pt x="37" y="330" on="1"/>
        <pt x="37" y="408" on="0"/>
        <pt x="76" y="539" on="0"/>
        <pt x="154" y="634" on="0"/>
        <pt x="273" y="686" on="0"/>
        <pt x="353" y="686" on="1"/>
      </contour>
      <contour>
        <pt x="274" y="569" on="0"/>
        <pt x="215" y="448" on="0"/>
        <pt x="215" y="341" on="1"/>
        <pt x="215" y="290" on="0"/>
        <pt x="228" y="206" on="0"/>
        <pt x="259" y="145" on="0"/>
        <pt x="313" y="111" on="0"/>
        <pt x="354" y="111" on="1"/>
        <pt x="419" y="111" on="0"/>
        <pt x="477" y="227" on="0"/>
        <pt x="477" y="334" on="1"/>
        <pt x="477" y="385" on="0"/>
        <pt x="464" y="471" on="0"/>
        <pt x="433" y="534" on="0"/>
        <pt x="379" y="569" on="0"/>
        <pt x="339" y="569" on="1"/>
      </contour>
      <contour>
        <pt x="294" y="799" on="1"/>
        <pt x="501" y="972" on="1"/>
        <pt x="601" y="871" on="1"/>
        <pt x="568" y="835" on="0"/>
        <pt x="489" y="782" on="0"/>
        <pt x="419" y="747" on="0"/>
        <pt x="365" y="728" on="0"/>
        <pt x="356" y="725" on="1"/>
      </contour>
    </TTGlyph>
    <TTGlyph name="Ocircumflex" xMin="37" yMin="-6" xMax="655" yMax="976">
      <contour>
        <pt x="432" y="686" on="0"/>
        <pt x="546" y="638" on="0"/>
        <pt x="620" y="550" on="0"/>
        <pt x="655" y="423" on="0"/>
        <pt x="655" y="344" on="1"/>
        <pt x="655" y="266" on="0"/>
        <pt x="616" y="137" on="0"/>
        <pt x="538" y="45" on="0"/>
        <pt x="420" y="-6" on="0"/>
        <pt x="340" y="-6" on="1"/>
        <pt x="261" y="-6" on="0"/>
        <pt x="146" y="39" on="0"/>
        <pt x="72" y="126" on="0"/>
        <pt x="37" y="250" on="0"/>
        <pt x="37" y="330" on="1"/>
        <pt x="37" y="408" on="0"/>
        <pt x="76" y="539" on="0"/>
        <pt x="154" y="634" on="0"/>
        <pt x="273" y="686" on="0"/>
        <pt x="353" y="686" on="1"/>
      </contour>
      <contour>
        <pt x="274" y="569" on="0"/>
        <pt x="215" y="448" on="0"/>
        <pt x="215" y="341" on="1"/>
        <pt x="215" y="290" on="0"/>
        <pt x="228" y="206" on="0"/>
        <pt x="259" y="145" on="0"/>
        <pt x="313" y="111" on="0"/>
        <pt x="354" y="111" on="1"/>
        <pt x="419" y="111" on="0"/>
        <pt x="477" y="227" on="0"/>
        <pt x="477" y="334" on="1"/>
        <pt x="477" y="385" on="0"/>
        <pt x="464" y="471" on="0"/>
        <pt x="433" y="534" on="0"/>
        <pt x="379" y="569" on="0"/>
        <pt x="339" y="569" on="1"/>
      </contour>
      <contour>
        <pt x="155" y="800" on="1"/>
        <pt x="360" y="976" on="1"/>
        <pt x="565" y="800" on="1"/>
        <pt x="503" y="725" on="1"/>
        <pt x="483" y="733" on="0"/>
        <pt x="406" y="771" on="0"/>
        <pt x="360" y="803" on="1"/>
        <pt x="314" y="771" on="0"/>
        <pt x="237" y="734" on="0"/>
        <pt x="216" y="725" on="1"/>
      </contour>
    </TTGlyph>
    <TTGlyph name="Odieresis" xMin="37" yMin="-6" xMax="655" yMax="896">
      <contour>
        <pt x="432" y="686" on="0"/>
        <pt x="546" y="638" on="0"/>
        <pt x="620" y="550" on="0"/>
        <pt x="655" y="423" on="0"/>
        <pt x="655" y="344" on="1"/>
        <pt x="655" y="266" on="0"/>
        <pt x="616" y="137" on="0"/>
        <pt x="538" y="45" on="0"/>
        <pt x="420" y="-6" on="0"/>
        <pt x="340" y="-6" on="1"/>
        <pt x="261" y="-6" on="0"/>
        <pt x="146" y="39" on="0"/>
        <pt x="72" y="126" on="0"/>
        <pt x="37" y="250" on="0"/>
        <pt x="37" y="330" on="1"/>
        <pt x="37" y="408" on="0"/>
        <pt x="76" y="539" on="0"/>
        <pt x="154" y="634" on="0"/>
        <pt x="273" y="686" on="0"/>
        <pt x="353" y="686" on="1"/>
      </contour>
      <contour>
        <pt x="274" y="569" on="0"/>
        <pt x="215" y="448" on="0"/>
        <pt x="215" y="341" on="1"/>
        <pt x="215" y="290" on="0"/>
        <pt x="228" y="206" on="0"/>
        <pt x="259" y="145" on="0"/>
        <pt x="313" y="111" on="0"/>
        <pt x="354" y="111" on="1"/>
        <pt x="419" y="111" on="0"/>
        <pt x="477" y="227" on="0"/>
        <pt x="477" y="334" on="1"/>
        <pt x="477" y="385" on="0"/>
        <pt x="464" y="471" on="0"/>
        <pt x="433" y="534" on="0"/>
        <pt x="379" y="569" on="0"/>
        <pt x="339" y="569" on="1"/>
      </contour>
      <contour>
        <pt x="312" y="789" on="0"/>
        <pt x="274" y="745" on="0"/>
        <pt x="237" y="745" on="1"/>
        <pt x="202" y="745" on="0"/>
        <pt x="165" y="788" on="0"/>
        <pt x="165" y="818" on="1"/>
        <pt x="165" y="851" on="0"/>
        <pt x="202" y="896" on="0"/>
        <pt x="240" y="896" on="1"/>
        <pt x="275" y="896" on="0"/>
        <pt x="312" y="852" on="0"/>
        <pt x="312" y="822" on="1"/>
      </contour>
      <contour>
        <pt x="527" y="789" on="0"/>
        <pt x="489" y="745" on="0"/>
        <pt x="452" y="745" on="1"/>
        <pt x="417" y="745" on="0"/>
        <pt x="380" y="788" on="0"/>
        <pt x="380" y="818" on="1"/>
        <pt x="380" y="851" on="0"/>
        <pt x="417" y="896" on="0"/>
        <pt x="455" y="896" on="1"/>
        <pt x="490" y="896" on="0"/>
        <pt x="527" y="852" on="0"/>
        <pt x="527" y="822" on="1"/>
      </contour>
    </TTGlyph>
    <TTGlyph name="Ograve" xMin="37" yMin="-6" xMax="655" yMax="972">
      <contour>
        <pt x="432" y="686" on="0"/>
        <pt x="546" y="638" on="0"/>
        <pt x="620" y="550" on="0"/>
        <pt x="655" y="423" on="0"/>
        <pt x="655" y="344" on="1"/>
        <pt x="655" y="266" on="0"/>
        <pt x="616" y="137" on="0"/>
        <pt x="538" y="45" on="0"/>
        <pt x="420" y="-6" on="0"/>
        <pt x="340" y="-6" on="1"/>
        <pt x="261" y="-6" on="0"/>
        <pt x="146" y="39" on="0"/>
        <pt x="72" y="126" on="0"/>
        <pt x="37" y="250" on="0"/>
        <pt x="37" y="330" on="1"/>
        <pt x="37" y="408" on="0"/>
        <pt x="76" y="539" on="0"/>
        <pt x="154" y="634" on="0"/>
        <pt x="273" y="686" on="0"/>
        <pt x="353" y="686" on="1"/>
      </contour>
      <contour>
        <pt x="274" y="569" on="0"/>
        <pt x="215" y="448" on="0"/>
        <pt x="215" y="341" on="1"/>
        <pt x="215" y="290" on="0"/>
        <pt x="228" y="206" on="0"/>
        <pt x="259" y="145" on="0"/>
        <pt x="313" y="111" on="0"/>
        <pt x="354" y="111" on="1"/>
        <pt x="419" y="111" on="0"/>
        <pt x="477" y="227" on="0"/>
        <pt x="477" y="334" on="1"/>
        <pt x="477" y="385" on="0"/>
        <pt x="464" y="471" on="0"/>
        <pt x="433" y="534" on="0"/>
        <pt x="379" y="569" on="0"/>
        <pt x="339" y="569" on="1"/>
      </contour>
      <contour>
        <pt x="353" y="725" on="1"/>
        <pt x="344" y="728" on="0"/>
        <pt x="289" y="747" on="0"/>
        <pt x="219" y="782" on="0"/>
        <pt x="141" y="835" on="0"/>
        <pt x="108" y="871" on="1"/>
        <pt x="208" y="972" on="1"/>
        <pt x="415" y="799" on="1"/>
      </contour>
    </TTGlyph>
    <TTGlyph name="Oslash" xMin="37" yMin="-70" xMax="655" yMax="746">
      <contour>
        <pt x="370" y="686" on="0"/>
        <pt x="403" y="683" on="0"/>
        <pt x="419" y="681" on="1"/>
        <pt x="448" y="746" on="1"/>
        <pt x="588" y="690" on="1"/>
        <pt x="557" y="621" on="1"/>
        <pt x="608" y="576" on="0"/>
        <pt x="655" y="436" on="0"/>
        <pt x="655" y="344" on="1"/>
        <pt x="655" y="266" on="0"/>
        <pt x="616" y="137" on="0"/>
        <pt x="538" y="45" on="0"/>
        <pt x="420" y="-6" on="0"/>
        <pt x="340" y="-6" on="1"/>
        <pt x="323" y="-6" on="0"/>
        <pt x="291" y="-4" on="0"/>
        <pt x="276" y="-2" on="1"/>
        <pt x="246" y="-70" on="1"/>
        <pt x="107" y="-13" on="1"/>
        <pt x="137" y="55" on="1"/>
        <pt x="85" y="97" on="0"/>
        <pt x="37" y="236" on="0"/>
        <pt x="37" y="330" on="1"/>
        <pt x="37" y="408" on="0"/>
        <pt x="76" y="539" on="0"/>
        <pt x="154" y="634" on="0"/>
        <pt x="273" y="686" on="0"/>
        <pt x="353" y="686" on="1"/>
      </contour>
      <contour>
        <pt x="274" y="569" on="0"/>
        <pt x="215" y="448" on="0"/>
        <pt x="215" y="341" on="1"/>
        <pt x="215" y="314" on="0"/>
        <pt x="218" y="265" on="0"/>
        <pt x="222" y="243" on="1"/>
        <pt x="367" y="566" on="1"/>
        <pt x="353" y="569" on="0"/>
        <pt x="339" y="569" on="1"/>
      </contour>
      <contour>
        <pt x="477" y="360" on="0"/>
        <pt x="474" y="407" on="0"/>
        <pt x="470" y="428" on="1"/>
        <pt x="328" y="113" on="1"/>
        <pt x="334" y="111" on="0"/>
        <pt x="347" y="111" on="0"/>
        <pt x="354" y="111" on="1"/>
        <pt x="419" y="111" on="0"/>
        <pt x="477" y="227" on="0"/>
        <pt x="477" y="334" on="1"/>
      </contour>
    </TTGlyph>
    <TTGlyph name="Otilde" xMin="37" yMin="-6" xMax="655" yMax="880">
      <contour>
        <pt x="432" y="686" on="0"/>
        <pt x="546" y="638" on="0"/>
        <pt x="620" y="550" on="0"/>
        <pt x="655" y="423" on="0"/>
        <pt x="655" y="344" on="1"/>
        <pt x="655" y="266" on="0"/>
        <pt x="616" y="137" on="0"/>
        <pt x="538" y="45" on="0"/>
        <pt x="420" y="-6" on="0"/>
        <pt x="340" y="-6" on="1"/>
        <pt x="261" y="-6" on="0"/>
        <pt x="146" y="39" on="0"/>
        <pt x="72" y="126" on="0"/>
        <pt x="37" y="250" on="0"/>
        <pt x="37" y="330" on="1"/>
        <pt x="37" y="408" on="0"/>
        <pt x="76" y="539" on="0"/>
        <pt x="154" y="634" on="0"/>
        <pt x="273" y="686" on="0"/>
        <pt x="353" y="686" on="1"/>
      </contour>
      <contour>
        <pt x="274" y="569" on="0"/>
        <pt x="215" y="448" on="0"/>
        <pt x="215" y="341" on="1"/>
        <pt x="215" y="290" on="0"/>
        <pt x="228" y="206" on="0"/>
        <pt x="259" y="145" on="0"/>
        <pt x="313" y="111" on="0"/>
        <pt x="354" y="111" on="1"/>
        <pt x="419" y="111" on="0"/>
        <pt x="477" y="227" on="0"/>
        <pt x="477" y="334" on="1"/>
        <pt x="477" y="385" on="0"/>
        <pt x="464" y="471" on="0"/>
        <pt x="433" y="534" on="0"/>
        <pt x="379" y="569" on="0"/>
        <pt x="339" y="569" on="1"/>
      </contour>
      <contour>
        <pt x="184" y="857" on="1"/>
        <pt x="196" y="863" on="0"/>
        <pt x="210" y="868" on="1"/>
        <pt x="222" y="873" on="0"/>
        <pt x="253" y="880" on="0"/>
        <pt x="272" y="880" on="1"/>
        <pt x="311" y="880" on="0"/>
        <pt x="392" y="860" on="0"/>
        <pt x="432" y="860" on="1"/>
        <pt x="450" y="860" on="0"/>
        <pt x="479" y="864" on="0"/>
        <pt x="490" y="867" on="1"/>
        <pt x="502" y="870" on="0"/>
        <pt x="512" y="874" on="1"/>
        <pt x="512" y="774" on="1"/>
        <pt x="502" y="767" on="0"/>
        <pt x="490" y="762" on="1"/>
        <pt x="479" y="757" on="0"/>
        <pt x="450" y="751" on="0"/>
        <pt x="432" y="751" on="1"/>
        <pt x="392" y="751" on="0"/>
        <pt x="311" y="771" on="0"/>
        <pt x="272" y="771" on="1"/>
        <pt x="253" y="771" on="0"/>
        <pt x="222" y="766" on="0"/>
        <pt x="210" y="764" on="1"/>
        <pt x="196" y="760" on="0"/>
        <pt x="184" y="757" on="1"/>
      </contour>
    </TTGlyph>
    <TTGlyph name="P" xMin="62" yMin="0" xMax="526" yMax="679">
      <contour>
        <pt x="62" y="677" on="1"/>
        <pt x="69" y="677" on="0"/>
        <pt x="122" y="678" on="0"/>
        <pt x="186" y="678" on="0"/>
        <pt x="250" y="679" on="0"/>
        <pt x="270" y="679" on="1"/>
        <pt x="398" y="679" on="0"/>
        <pt x="526" y="570" on="0"/>
        <pt x="526" y="473" on="1"/>
        <pt x="526" y="366" on="0"/>
        <pt x="382" y="259" on="0"/>
        <pt x="257" y="259" on="1"/>
        <pt x="227" y="259" on="1"/>
        <pt x="227" y="0" on="1"/>
        <pt x="62" y="0" on="1"/>
      </contour>
      <contour>
        <pt x="227" y="368" on="1"/>
        <pt x="269" y="368" on="1"/>
        <pt x="303" y="368" on="0"/>
        <pt x="353" y="415" on="0"/>
        <pt x="353" y="465" on="1"/>
        <pt x="353" y="507" on="0"/>
        <pt x="312" y="569" on="0"/>
        <pt x="264" y="570" on="1"/>
        <pt x="251" y="570" on="0"/>
        <pt x="233" y="569" on="0"/>
        <pt x="227" y="568" on="1"/>
      </contour>
    </TTGlyph>
    <TTGlyph name="Q" xMin="35" yMin="-214" xMax="696" yMax="686">
      <contour>
        <pt x="696" y="-147" on="1"/>
        <pt x="648" y="-179" on="0"/>
        <pt x="550" y="-214" on="0"/>
        <pt x="488" y="-214" on="1"/>
        <pt x="456" y="-214" on="0"/>
        <pt x="384" y="-200" on="0"/>
        <pt x="307" y="-170" on="0"/>
        <pt x="229" y="-124" on="0"/>
        <pt x="192" y="-91" on="1"/>
        <pt x="221" y="-2" on="1"/>
        <pt x="232" y="-4" on="0"/>
        <pt x="258" y="-6" on="0"/>
        <pt x="269" y="-6" on="1"/>
        <pt x="318" y="-6" on="0"/>
        <pt x="396" y="40" on="0"/>
        <pt x="451" y="127" on="0"/>
        <pt x="481" y="252" on="0"/>
        <pt x="481" y="332" on="1"/>
        <pt x="481" y="383" on="0"/>
        <pt x="468" y="470" on="0"/>
        <pt x="435" y="533" on="0"/>
        <pt x="381" y="569" on="0"/>
        <pt x="340" y="569" on="1"/>
        <pt x="275" y="569" on="0"/>
        <pt x="213" y="448" on="0"/>
        <pt x="213" y="344" on="1"/>
        <pt x="213" y="297" on="0"/>
        <pt x="223" y="232" on="0"/>
        <pt x="244" y="188" on="0"/>
        <pt x="275" y="163" on="0"/>
        <pt x="297" y="155" on="1"/>
        <pt x="281" y="47" on="1"/>
        <pt x="218" y="51" on="0"/>
        <pt x="126" y="100" on="0"/>
        <pt x="65" y="179" on="0"/>
        <pt x="35" y="280" on="0"/>
        <pt x="35" y="335" on="1"/>
        <pt x="35" y="411" on="0"/>
        <pt x="78" y="539" on="0"/>
        <pt x="159" y="633" on="0"/>
        <pt x="278" y="686" on="0"/>
        <pt x="354" y="686" on="1"/>
        <pt x="429" y="686" on="0"/>
        <pt x="543" y="638" on="0"/>
        <pt x="621" y="549" on="0"/>
        <pt x="660" y="422" on="0"/>
        <pt x="660" y="343" on="1"/>
        <pt x="660" y="257" on="0"/>
        <pt x="623" y="118" on="0"/>
        <pt x="557" y="12" on="0"/>
        <pt x="467" y="-59" on="0"/>
        <pt x="414" y="-77" on="1"/>
        <pt x="442" y="-91" on="0"/>
        <pt x="475" y="-91" on="1"/>
        <pt x="520" y="-91" on="0"/>
        <pt x="599" y="-58" on="0"/>
        <pt x="642" y="-37" on="1"/>
      </contour>
    </TTGlyph>
    <TTGlyph name="R" xMin="62" yMin="0" xMax="598" yMax="679">
      <contour>
        <pt x="62" y="677" on="1"/>
        <pt x="71" y="677" on="0"/>
        <pt x="125" y="678" on="0"/>
        <pt x="191" y="678" on="0"/>
        <pt x="253" y="679" on="0"/>
        <pt x="270" y="679" on="1"/>
        <pt x="398" y="679" on="0"/>
        <pt x="526" y="581" on="0"/>
        <pt x="526" y="485" on="1"/>
        <pt x="526" y="421" on="0"/>
        <pt x="464" y="338" on="0"/>
        <pt x="411" y="315" on="1"/>
        <pt x="441" y="298" on="0"/>
        <pt x="487" y="242" on="0"/>
        <pt x="529" y="163" on="0"/>
        <pt x="572" y="61" on="0"/>
        <pt x="598" y="0" on="1"/>
        <pt x="421" y="0" on="1"/>
        <pt x="389" y="70" on="0"/>
        <pt x="345" y="177" on="0"/>
        <pt x="307" y="250" on="0"/>
        <pt x="270" y="287" on="0"/>
        <pt x="244" y="287" on="1"/>
        <pt x="227" y="287" on="1"/>
        <pt x="227" y="0" on="1"/>
        <pt x="62" y="0" on="1"/>
      </contour>
      <contour>
        <pt x="227" y="390" on="1"/>
        <pt x="269" y="390" on="1"/>
        <pt x="304" y="390" on="0"/>
        <pt x="353" y="433" on="0"/>
        <pt x="353" y="479" on="1"/>
        <pt x="353" y="498" on="0"/>
        <pt x="344" y="531" on="0"/>
        <pt x="324" y="556" on="0"/>
        <pt x="289" y="571" on="0"/>
        <pt x="264" y="571" on="1"/>
        <pt x="227" y="571" on="1"/>
      </contour>
    </TTGlyph>
    <TTGlyph name="S" xMin="22" yMin="-6" xMax="498" yMax="686">
      <contour>
        <pt x="267" y="686" on="1"/>
        <pt x="303" y="686" on="0"/>
        <pt x="370" y="674" on="0"/>
        <pt x="428" y="656" on="0"/>
        <pt x="475" y="633" on="0"/>
        <pt x="492" y="621" on="1"/>
        <pt x="434" y="511" on="1"/>
        <pt x="422" y="517" on="0"/>
        <pt x="388" y="536" on="0"/>
        <pt x="349" y="554" on="0"/>
        <pt x="308" y="566" on="0"/>
        <pt x="289" y="566" on="1"/>
        <pt x="254" y="566" on="0"/>
        <pt x="220" y="537" on="0"/>
        <pt x="220" y="515" on="1"/>
        <pt x="221" y="498" on="0"/>
        <pt x="235" y="472" on="0"/>
        <pt x="263" y="447" on="0"/>
        <pt x="307" y="423" on="0"/>
        <pt x="339" y="410" on="1"/>
        <pt x="379" y="393" on="0"/>
        <pt x="439" y="357" on="0"/>
        <pt x="478" y="311" on="0"/>
        <pt x="498" y="253" on="0"/>
        <pt x="498" y="215" on="1"/>
        <pt x="498" y="169" on="0"/>
        <pt x="465" y="88" on="0"/>
        <pt x="403" y="28" on="0"/>
        <pt x="315" y="-6" on="0"/>
        <pt x="260" y="-6" on="1"/>
        <pt x="221" y="-6" on="0"/>
        <pt x="150" y="8" on="0"/>
        <pt x="90" y="30" on="0"/>
        <pt x="40" y="55" on="0"/>
        <pt x="22" y="66" on="1"/>
        <pt x="76" y="184" on="1"/>
        <pt x="83" y="179" on="0"/>
        <pt x="121" y="156" on="0"/>
        <pt x="169" y="133" on="0"/>
        <pt x="219" y="115" on="0"/>
        <pt x="239" y="115" on="1"/>
        <pt x="281" y="115" on="0"/>
        <pt x="320" y="154" on="0"/>
        <pt x="320" y="190" on="1"/>
        <pt x="320" y="226" on="0"/>
        <pt x="271" y="263" on="0"/>
        <pt x="226" y="281" on="1"/>
        <pt x="182" y="299" on="0"/>
        <pt x="114" y="339" on="0"/>
        <pt x="67" y="389" on="0"/>
        <pt x="42" y="451" on="0"/>
        <pt x="42" y="492" on="1"/>
        <pt x="42" y="537" on="0"/>
        <pt x="79" y="608" on="0"/>
        <pt x="141" y="659" on="0"/>
        <pt x="222" y="686" on="0"/>
      </contour>
    </TTGlyph>
    <TTGlyph name="T" xMin="2" yMin="0" xMax="505" yMax="677">
      <contour>
        <pt x="505" y="677" on="1"/>
        <pt x="484" y="556" on="1"/>
        <pt x="328" y="556" on="1"/>
        <pt x="328" y="0" on="1"/>
        <pt x="163" y="0" on="1"/>
        <pt x="163" y="556" on="1"/>
        <pt x="2" y="556" on="1"/>
        <pt x="2" y="677" on="1"/>
      </contour>
    </TTGlyph>
    <TTGlyph name="Thorn" xMin="62" yMin="0" xMax="527" yMax="677">
      <contour>
        <pt x="62" y="677" on="1"/>
        <pt x="227" y="677" on="1"/>
        <pt x="227" y="559" on="1"/>
        <pt x="270" y="559" on="1"/>
        <pt x="398" y="559" on="0"/>
        <pt x="527" y="451" on="0"/>
        <pt x="527" y="353" on="1"/>
        <pt x="527" y="300" on="0"/>
        <pt x="490" y="220" on="0"/>
        <pt x="420" y="166" on="0"/>
        <pt x="320" y="139" on="0"/>
        <pt x="257" y="139" on="1"/>
        <pt x="227" y="139" on="1"/>
        <pt x="227" y="0" on="1"/>
        <pt x="62" y="0" on="1"/>
      </contour>
      <contour>
        <pt x="227" y="253" on="1"/>
        <pt x="269" y="253" on="1"/>
        <pt x="303" y="253" on="0"/>
        <pt x="349" y="301" on="0"/>
        <pt x="349" y="345" on="1"/>
        <pt x="349" y="363" on="0"/>
        <pt x="340" y="398" on="0"/>
        <pt x="320" y="426" on="0"/>
        <pt x="288" y="445" on="0"/>
        <pt x="264" y="445" on="1"/>
        <pt x="251" y="445" on="0"/>
        <pt x="233" y="444" on="0"/>
        <pt x="227" y="443" on="1"/>
      </contour>
    </TTGlyph>
    <TTGlyph name="U" xMin="52" yMin="-6" xMax="616" yMax="677">
      <contour>
        <pt x="216" y="677" on="1"/>
        <pt x="216" y="274" on="1"/>
        <pt x="216" y="230" on="0"/>
        <pt x="235" y="172" on="0"/>
        <pt x="268" y="136" on="0"/>
        <pt x="314" y="121" on="0"/>
        <pt x="340" y="121" on="1"/>
        <pt x="394" y="121" on="0"/>
        <pt x="451" y="198" on="0"/>
        <pt x="451" y="274" on="1"/>
        <pt x="451" y="677" on="1"/>
        <pt x="616" y="677" on="1"/>
        <pt x="616" y="265" on="1"/>
        <pt x="616" y="211" on="0"/>
        <pt x="586" y="113" on="0"/>
        <pt x="517" y="38" on="0"/>
        <pt x="407" y="-6" on="0"/>
        <pt x="327" y="-6" on="1"/>
        <pt x="250" y="-6" on="0"/>
        <pt x="145" y="39" on="0"/>
        <pt x="81" y="114" on="0"/>
        <pt x="52" y="212" on="0"/>
        <pt x="52" y="265" on="1"/>
        <pt x="52" y="677" on="1"/>
      </contour>
    </TTGlyph>
    <TTGlyph name="Uacute" xMin="52" yMin="-6" xMax="616" yMax="972">
      <contour>
        <pt x="216" y="677" on="1"/>
        <pt x="216" y="274" on="1"/>
        <pt x="216" y="230" on="0"/>
        <pt x="235" y="172" on="0"/>
        <pt x="268" y="136" on="0"/>
        <pt x="314" y="121" on="0"/>
        <pt x="340" y="121" on="1"/>
        <pt x="394" y="121" on="0"/>
        <pt x="451" y="198" on="0"/>
        <pt x="451" y="274" on="1"/>
        <pt x="451" y="677" on="1"/>
        <pt x="616" y="677" on="1"/>
        <pt x="616" y="265" on="1"/>
        <pt x="616" y="211" on="0"/>
        <pt x="586" y="113" on="0"/>
        <pt x="517" y="38" on="0"/>
        <pt x="407" y="-6" on="0"/>
        <pt x="327" y="-6" on="1"/>
        <pt x="250" y="-6" on="0"/>
        <pt x="145" y="39" on="0"/>
        <pt x="81" y="114" on="0"/>
        <pt x="52" y="212" on="0"/>
        <pt x="52" y="265" on="1"/>
        <pt x="52" y="677" on="1"/>
      </contour>
      <contour>
        <pt x="268" y="799" on="1"/>
        <pt x="475" y="972" on="1"/>
        <pt x="575" y="871" on="1"/>
        <pt x="542" y="835" on="0"/>
        <pt x="463" y="782" on="0"/>
        <pt x="393" y="747" on="0"/>
        <pt x="339" y="728" on="0"/>
        <pt x="330" y="725" on="1"/>
      </contour>
    </TTGlyph>
    <TTGlyph name="Ucircumflex" xMin="52" yMin="-6" xMax="616" yMax="976">
      <contour>
        <pt x="216" y="677" on="1"/>
        <pt x="216" y="274" on="1"/>
        <pt x="216" y="230" on="0"/>
        <pt x="235" y="172" on="0"/>
        <pt x="268" y="136" on="0"/>
        <pt x="314" y="121" on="0"/>
        <pt x="340" y="121" on="1"/>
        <pt x="394" y="121" on="0"/>
        <pt x="451" y="198" on="0"/>
        <pt x="451" y="274" on="1"/>
        <pt x="451" y="677" on="1"/>
        <pt x="616" y="677" on="1"/>
        <pt x="616" y="265" on="1"/>
        <pt x="616" y="211" on="0"/>
        <pt x="586" y="113" on="0"/>
        <pt x="517" y="38" on="0"/>
        <pt x="407" y="-6" on="0"/>
        <pt x="327" y="-6" on="1"/>
        <pt x="250" y="-6" on="0"/>
        <pt x="145" y="39" on="0"/>
        <pt x="81" y="114" on="0"/>
        <pt x="52" y="212" on="0"/>
        <pt x="52" y="265" on="1"/>
        <pt x="52" y="677" on="1"/>
      </contour>
      <contour>
        <pt x="129" y="800" on="1"/>
        <pt x="334" y="976" on="1"/>
        <pt x="539" y="800" on="1"/>
        <pt x="477" y="725" on="1"/>
        <pt x="457" y="733" on="0"/>
        <pt x="380" y="771" on="0"/>
        <pt x="334" y="803" on="1"/>
        <pt x="288" y="771" on="0"/>
        <pt x="211" y="734" on="0"/>
        <pt x="190" y="725" on="1"/>
      </contour>
    </TTGlyph>
    <TTGlyph name="Udieresis" xMin="52" yMin="-6" xMax="616" yMax="896">
      <contour>
        <pt x="216" y="677" on="1"/>
        <pt x="216" y="274" on="1"/>
        <pt x="216" y="230" on="0"/>
        <pt x="235" y="172" on="0"/>
        <pt x="268" y="136" on="0"/>
        <pt x="314" y="121" on="0"/>
        <pt x="340" y="121" on="1"/>
        <pt x="394" y="121" on="0"/>
        <pt x="451" y="198" on="0"/>
        <pt x="451" y="274" on="1"/>
        <pt x="451" y="677" on="1"/>
        <pt x="616" y="677" on="1"/>
        <pt x="616" y="265" on="1"/>
        <pt x="616" y="211" on="0"/>
        <pt x="586" y="113" on="0"/>
        <pt x="517" y="38" on="0"/>
        <pt x="407" y="-6" on="0"/>
        <pt x="327" y="-6" on="1"/>
        <pt x="250" y="-6" on="0"/>
        <pt x="145" y="39" on="0"/>
        <pt x="81" y="114" on="0"/>
        <pt x="52" y="212" on="0"/>
        <pt x="52" y="265" on="1"/>
        <pt x="52" y="677" on="1"/>
      </contour>
      <contour>
        <pt x="300" y="789" on="0"/>
        <pt x="262" y="745" on="0"/>
        <pt x="225" y="745" on="1"/>
        <pt x="190" y="745" on="0"/>
        <pt x="153" y="788" on="0"/>
        <pt x="153" y="818" on="1"/>
        <pt x="153" y="851" on="0"/>
        <pt x="190" y="896" on="0"/>
        <pt x="228" y="896" on="1"/>
        <pt x="263" y="896" on="0"/>
        <pt x="300" y="852" on="0"/>
        <pt x="300" y="822" on="1"/>
      </contour>
      <contour>
        <pt x="515" y="789" on="0"/>
        <pt x="477" y="745" on="0"/>
        <pt x="440" y="745" on="1"/>
        <pt x="405" y="745" on="0"/>
        <pt x="368" y="788" on="0"/>
        <pt x="368" y="818" on="1"/>
        <pt x="368" y="851" on="0"/>
        <pt x="405" y="896" on="0"/>
        <pt x="443" y="896" on="1"/>
        <pt x="478" y="896" on="0"/>
        <pt x="515" y="852" on="0"/>
        <pt x="515" y="822" on="1"/>
      </contour>
    </TTGlyph>
    <TTGlyph name="Ugrave" xMin="52" yMin="-6" xMax="616" yMax="972">
      <contour>
        <pt x="216" y="677" on="1"/>
        <pt x="216" y="274" on="1"/>
        <pt x="216" y="230" on="0"/>
        <pt x="235" y="172" on="0"/>
        <pt x="268" y="136" on="0"/>
        <pt x="314" y="121" on="0"/>
        <pt x="340" y="121" on="1"/>
        <pt x="394" y="121" on="0"/>
        <pt x="451" y="198" on="0"/>
        <pt x="451" y="274" on="1"/>
        <pt x="451" y="677" on="1"/>
        <pt x="616" y="677" on="1"/>
        <pt x="616" y="265" on="1"/>
        <pt x="616" y="211" on="0"/>
        <pt x="586" y="113" on="0"/>
        <pt x="517" y="38" on="0"/>
        <pt x="407" y="-6" on="0"/>
        <pt x="327" y="-6" on="1"/>
        <pt x="250" y="-6" on="0"/>
        <pt x="145" y="39" on="0"/>
        <pt x="81" y="114" on="0"/>
        <pt x="52" y="212" on="0"/>
        <pt x="52" y="265" on="1"/>
        <pt x="52" y="677" on="1"/>
      </contour>
      <contour>
        <pt x="327" y="725" on="1"/>
        <pt x="318" y="728" on="0"/>
        <pt x="263" y="747" on="0"/>
        <pt x="193" y="782" on="0"/>
        <pt x="115" y="835" on="0"/>
        <pt x="82" y="871" on="1"/>
        <pt x="182" y="972" on="1"/>
        <pt x="389" y="799" on="1"/>
      </contour>
    </TTGlyph>
    <TTGlyph name="V" xMin="-2" yMin="0" xMax="644" yMax="677">
      <contour>
        <pt x="391" y="0" on="1"/>
        <pt x="251" y="0" on="1"/>
        <pt x="-2" y="677" on="1"/>
        <pt x="172" y="677" on="1"/>
        <pt x="262" y="407" on="1"/>
        <pt x="282" y="346" on="0"/>
        <pt x="312" y="239" on="0"/>
        <pt x="322" y="201" on="1"/>
        <pt x="332" y="239" on="0"/>
        <pt x="362" y="343" on="0"/>
        <pt x="384" y="406" on="1"/>
        <pt x="476" y="677" on="1"/>
        <pt x="644" y="677" on="1"/>
      </contour>
    </TTGlyph>
    <TTGlyph name="W" xMin="6" yMin="0" xMax="912" yMax="677">
      <contour>
        <pt x="494" y="309" on="1"/>
        <pt x="487" y="331" on="0"/>
        <pt x="476" y="377" on="0"/>
        <pt x="467" y="419" on="0"/>
        <pt x="460" y="453" on="0"/>
        <pt x="457" y="463" on="1"/>
        <pt x="455" y="453" on="0"/>
        <pt x="447" y="415" on="0"/>
        <pt x="438" y="371" on="0"/>
        <pt x="428" y="325" on="0"/>
        <pt x="422" y="306" on="1"/>
        <pt x="327" y="0" on="1"/>
        <pt x="194" y="0" on="1"/>
        <pt x="6" y="677" on="1"/>
        <pt x="170" y="677" on="1"/>
        <pt x="234" y="423" on="1"/>
        <pt x="240" y="400" on="0"/>
        <pt x="250" y="350" on="0"/>
        <pt x="260" y="299" on="0"/>
        <pt x="268" y="252" on="0"/>
        <pt x="271" y="234" on="1"/>
        <pt x="279" y="271" on="0"/>
        <pt x="302" y="376" on="0"/>
        <pt x="316" y="422" on="1"/>
        <pt x="392" y="677" on="1"/>
        <pt x="526" y="677" on="1"/>
        <pt x="604" y="420" on="1"/>
        <pt x="621" y="365" on="0"/>
        <pt x="640" y="266" on="0"/>
        <pt x="648" y="230" on="1"/>
        <pt x="653" y="266" on="0"/>
        <pt x="669" y="364" on="0"/>
        <pt x="683" y="421" on="1"/>
        <pt x="746" y="677" on="1"/>
        <pt x="912" y="677" on="1"/>
        <pt x="724" y="0" on="1"/>
        <pt x="591" y="0" on="1"/>
      </contour>
    </TTGlyph>
    <TTGlyph name="X" xMin="0" yMin="0" xMax="635" yMax="677">
      <contour>
        <pt x="0" y="0" on="1"/>
        <pt x="210" y="355" on="1"/>
        <pt x="20" y="677" on="1"/>
        <pt x="200" y="677" on="1"/>
        <pt x="295" y="506" on="1"/>
        <pt x="299" y="499" on="0"/>
        <pt x="310" y="476" on="0"/>
        <pt x="317" y="464" on="1"/>
        <pt x="324" y="475" on="0"/>
        <pt x="335" y="497" on="0"/>
        <pt x="340" y="505" on="1"/>
        <pt x="436" y="677" on="1"/>
        <pt x="616" y="677" on="1"/>
        <pt x="425" y="354" on="1"/>
        <pt x="635" y="0" on="1"/>
        <pt x="453" y="0" on="1"/>
        <pt x="341" y="200" on="1"/>
        <pt x="336" y="208" on="0"/>
        <pt x="324" y="231" on="0"/>
        <pt x="317" y="243" on="1"/>
        <pt x="294" y="200" on="1"/>
        <pt x="182" y="0" on="1"/>
      </contour>
    </TTGlyph>
    <TTGlyph name="Y" xMin="0" yMin="0" xMax="589" yMax="677">
      <contour>
        <pt x="209" y="260" on="1"/>
        <pt x="0" y="677" on="1"/>
        <pt x="174" y="677" on="1"/>
        <pt x="294" y="418" on="1"/>
        <pt x="417" y="677" on="1"/>
        <pt x="589" y="677" on="1"/>
        <pt x="373" y="251" on="1"/>
        <pt x="373" y="0" on="1"/>
        <pt x="209" y="0" on="1"/>
      </contour>
    </TTGlyph>
    <TTGlyph name="Yacute" xMin="-8" yMin="0" xMax="581" yMax="972">
      <contour>
        <pt x="201" y="260" on="1"/>
        <pt x="-8" y="677" on="1"/>
        <pt x="166" y="677" on="1"/>
        <pt x="286" y="418" on="1"/>
        <pt x="409" y="677" on="1"/>
        <pt x="581" y="677" on="1"/>
        <pt x="365" y="251" on="1"/>
        <pt x="365" y="0" on="1"/>
        <pt x="201" y="0" on="1"/>
      </contour>
      <contour>
        <pt x="228" y="799" on="1"/>
        <pt x="435" y="972" on="1"/>
        <pt x="535" y="871" on="1"/>
        <pt x="502" y="835" on="0"/>
        <pt x="423" y="782" on="0"/>
        <pt x="353" y="747" on="0"/>
        <pt x="299" y="728" on="0"/>
        <pt x="290" y="725" on="1"/>
      </contour>
    </TTGlyph>
    <TTGlyph name="Ydieresis" xMin="-8" yMin="0" xMax="581" yMax="896">
      <contour>
        <pt x="201" y="260" on="1"/>
        <pt x="-8" y="677" on="1"/>
        <pt x="166" y="677" on="1"/>
        <pt x="286" y="418" on="1"/>
        <pt x="409" y="677" on="1"/>
        <pt x="581" y="677" on="1"/>
        <pt x="365" y="251" on="1"/>
        <pt x="365" y="0" on="1"/>
        <pt x="201" y="0" on="1"/>
      </contour>
      <contour>
        <pt x="249" y="789" on="0"/>
        <pt x="211" y="745" on="0"/>
        <pt x="174" y="745" on="1"/>
        <pt x="139" y="745" on="0"/>
        <pt x="102" y="788" on="0"/>
        <pt x="102" y="818" on="1"/>
        <pt x="102" y="851" on="0"/>
        <pt x="139" y="896" on="0"/>
        <pt x="177" y="896" on="1"/>
        <pt x="212" y="896" on="0"/>
        <pt x="249" y="852" on="0"/>
        <pt x="249" y="822" on="1"/>
      </contour>
      <contour>
        <pt x="464" y="789" on="0"/>
        <pt x="426" y="745" on="0"/>
        <pt x="389" y="745" on="1"/>
        <pt x="354" y="745" on="0"/>
        <pt x="317" y="788" on="0"/>
        <pt x="317" y="818" on="1"/>
        <pt x="317" y="851" on="0"/>
        <pt x="354" y="896" on="0"/>
        <pt x="392" y="896" on="1"/>
        <pt x="427" y="896" on="0"/>
        <pt x="464" y="852" on="0"/>
        <pt x="464" y="822" on="1"/>
      </contour>
    </TTGlyph>
    <TTGlyph name="Z" xMin="33" yMin="0" xMax="520" yMax="677">
      <contour>
        <pt x="36" y="0" on="1"/>
        <pt x="36" y="112" on="1"/>
        <pt x="310" y="542" on="1"/>
        <pt x="291" y="541" on="0"/>
        <pt x="251" y="540" on="0"/>
        <pt x="231" y="540" on="1"/>
        <pt x="58" y="540" on="1"/>
        <pt x="33" y="677" on="1"/>
        <pt x="507" y="677" on="1"/>
        <pt x="507" y="564" on="1"/>
        <pt x="237" y="135" on="1"/>
        <pt x="253" y="136" on="0"/>
        <pt x="287" y="137" on="0"/>
        <pt x="305" y="137" on="1"/>
        <pt x="520" y="137" on="1"/>
        <pt x="520" y="0" on="1"/>
      </contour>
    </TTGlyph>
    <TTGlyph name="a" xMin="27" yMin="-8" xMax="532" yMax="509">
      <contour>
        <pt x="477" y="241" on="1"/>
        <pt x="477" y="181" on="0"/>
        <pt x="493" y="101" on="0"/>
        <pt x="504" y="77" on="1"/>
        <pt x="516" y="48" on="0"/>
        <pt x="532" y="32" on="1"/>
        <pt x="405" y="-8" on="1"/>
        <pt x="394" y="2" on="0"/>
        <pt x="385" y="17" on="1"/>
        <pt x="377" y="30" on="0"/>
        <pt x="362" y="67" on="0"/>
        <pt x="357" y="92" on="1"/>
        <pt x="340" y="45" on="0"/>
        <pt x="274" y="-6" on="0"/>
        <pt x="220" y="-6" on="1"/>
        <pt x="171" y="-6" on="0"/>
        <pt x="98" y="30" on="0"/>
        <pt x="50" y="95" on="0"/>
        <pt x="27" y="187" on="0"/>
        <pt x="27" y="243" on="1"/>
        <pt x="27" y="300" on="0"/>
        <pt x="64" y="398" on="0"/>
        <pt x="130" y="469" on="0"/>
        <pt x="222" y="509" on="0"/>
        <pt x="278" y="509" on="1"/>
        <pt x="309" y="509" on="0"/>
        <pt x="379" y="500" on="0"/>
        <pt x="437" y="489" on="0"/>
        <pt x="476" y="480" on="0"/>
        <pt x="477" y="480" on="1"/>
      </contour>
      <contour>
        <pt x="261" y="110" on="0"/>
        <pt x="288" y="136" on="0"/>
        <pt x="308" y="180" on="0"/>
        <pt x="319" y="237" on="0"/>
        <pt x="319" y="269" on="1"/>
        <pt x="319" y="385" on="1"/>
        <pt x="312" y="388" on="0"/>
        <pt x="287" y="393" on="0"/>
        <pt x="278" y="393" on="1"/>
        <pt x="254" y="393" on="0"/>
        <pt x="222" y="372" on="0"/>
        <pt x="203" y="335" on="0"/>
        <pt x="195" y="283" on="0"/>
        <pt x="195" y="253" on="1"/>
        <pt x="195" y="225" on="0"/>
        <pt x="197" y="174" on="0"/>
        <pt x="208" y="134" on="0"/>
        <pt x="228" y="110" on="0"/>
        <pt x="246" y="110" on="1"/>
      </contour>
    </TTGlyph>
    <TTGlyph name="aacute" xMin="27" yMin="-8" xMax="532" yMax="842">
      <contour>
        <pt x="477" y="241" on="1"/>
        <pt x="477" y="181" on="0"/>
        <pt x="493" y="101" on="0"/>
        <pt x="504" y="77" on="1"/>
        <pt x="516" y="48" on="0"/>
        <pt x="532" y="32" on="1"/>
        <pt x="405" y="-8" on="1"/>
        <pt x="394" y="2" on="0"/>
        <pt x="385" y="17" on="1"/>
        <pt x="377" y="30" on="0"/>
        <pt x="362" y="67" on="0"/>
        <pt x="357" y="92" on="1"/>
        <pt x="340" y="45" on="0"/>
        <pt x="274" y="-6" on="0"/>
        <pt x="220" y="-6" on="1"/>
        <pt x="171" y="-6" on="0"/>
        <pt x="98" y="30" on="0"/>
        <pt x="50" y="95" on="0"/>
        <pt x="27" y="187" on="0"/>
        <pt x="27" y="243" on="1"/>
        <pt x="27" y="300" on="0"/>
        <pt x="64" y="398" on="0"/>
        <pt x="130" y="469" on="0"/>
        <pt x="222" y="509" on="0"/>
        <pt x="278" y="509" on="1"/>
        <pt x="309" y="509" on="0"/>
        <pt x="379" y="500" on="0"/>
        <pt x="437" y="489" on="0"/>
        <pt x="476" y="480" on="0"/>
        <pt x="477" y="480" on="1"/>
      </contour>
      <contour>
        <pt x="261" y="110" on="0"/>
        <pt x="288" y="136" on="0"/>
        <pt x="308" y="180" on="0"/>
        <pt x="319" y="237" on="0"/>
        <pt x="319" y="269" on="1"/>
        <pt x="319" y="385" on="1"/>
        <pt x="312" y="388" on="0"/>
        <pt x="287" y="393" on="0"/>
        <pt x="278" y="393" on="1"/>
        <pt x="254" y="393" on="0"/>
        <pt x="222" y="372" on="0"/>
        <pt x="203" y="335" on="0"/>
        <pt x="195" y="283" on="0"/>
        <pt x="195" y="253" on="1"/>
        <pt x="195" y="225" on="0"/>
        <pt x="197" y="174" on="0"/>
        <pt x="208" y="134" on="0"/>
        <pt x="228" y="110" on="0"/>
        <pt x="246" y="110" on="1"/>
      </contour>
      <contour>
        <pt x="218" y="628" on="1"/>
        <pt x="400" y="842" on="1"/>
        <pt x="504" y="743" on="1"/>
        <pt x="472" y="704" on="0"/>
        <pt x="396" y="636" on="0"/>
        <pt x="363" y="611" on="1"/>
        <pt x="324" y="581" on="0"/>
        <pt x="285" y="557" on="1"/>
      </contour>
    </TTGlyph>
    <TTGlyph name="acircumflex" xMin="27" yMin="-8" xMax="532" yMax="828">
      <contour>
        <pt x="477" y="241" on="1"/>
        <pt x="477" y="181" on="0"/>
        <pt x="493" y="101" on="0"/>
        <pt x="504" y="77" on="1"/>
        <pt x="516" y="48" on="0"/>
        <pt x="532" y="32" on="1"/>
        <pt x="405" y="-8" on="1"/>
        <pt x="394" y="2" on="0"/>
        <pt x="385" y="17" on="1"/>
        <pt x="377" y="30" on="0"/>
        <pt x="362" y="67" on="0"/>
        <pt x="357" y="92" on="1"/>
        <pt x="340" y="45" on="0"/>
        <pt x="274" y="-6" on="0"/>
        <pt x="220" y="-6" on="1"/>
        <pt x="171" y="-6" on="0"/>
        <pt x="98" y="30" on="0"/>
        <pt x="50" y="95" on="0"/>
        <pt x="27" y="187" on="0"/>
        <pt x="27" y="243" on="1"/>
        <pt x="27" y="300" on="0"/>
        <pt x="64" y="398" on="0"/>
        <pt x="130" y="469" on="0"/>
        <pt x="222" y="509" on="0"/>
        <pt x="278" y="509" on="1"/>
        <pt x="309" y="509" on="0"/>
        <pt x="379" y="500" on="0"/>
        <pt x="437" y="489" on="0"/>
        <pt x="476" y="480" on="0"/>
        <pt x="477" y="480" on="1"/>
      </contour>
      <contour>
        <pt x="261" y="110" on="0"/>
        <pt x="288" y="136" on="0"/>
        <pt x="308" y="180" on="0"/>
        <pt x="319" y="237" on="0"/>
        <pt x="319" y="269" on="1"/>
        <pt x="319" y="385" on="1"/>
        <pt x="312" y="388" on="0"/>
        <pt x="287" y="393" on="0"/>
        <pt x="278" y="393" on="1"/>
        <pt x="254" y="393" on="0"/>
        <pt x="222" y="372" on="0"/>
        <pt x="203" y="335" on="0"/>
        <pt x="195" y="283" on="0"/>
        <pt x="195" y="253" on="1"/>
        <pt x="195" y="225" on="0"/>
        <pt x="197" y="174" on="0"/>
        <pt x="208" y="134" on="0"/>
        <pt x="228" y="110" on="0"/>
        <pt x="246" y="110" on="1"/>
      </contour>
      <contour>
        <pt x="87" y="631" on="1"/>
        <pt x="282" y="828" on="1"/>
        <pt x="476" y="631" on="1"/>
        <pt x="415" y="557" on="1"/>
        <pt x="395" y="567" on="0"/>
        <pt x="326" y="606" on="0"/>
        <pt x="282" y="639" on="1"/>
        <pt x="238" y="606" on="0"/>
        <pt x="169" y="568" on="0"/>
        <pt x="148" y="557" on="1"/>
      </contour>
    </TTGlyph>
    <TTGlyph name="acute" xMin="139" yMin="557" xMax="425" yMax="842">
      <contour>
        <pt x="139" y="628" on="1"/>
        <pt x="321" y="842" on="1"/>
        <pt x="425" y="743" on="1"/>
        <pt x="393" y="704" on="0"/>
        <pt x="317" y="636" on="0"/>
        <pt x="284" y="611" on="1"/>
        <pt x="245" y="581" on="0"/>
        <pt x="206" y="557" on="1"/>
      </contour>
    </TTGlyph>
    <TTGlyph name="adieresis" xMin="27" yMin="-8" xMax="532" yMax="741">
      <contour>
        <pt x="477" y="241" on="1"/>
        <pt x="477" y="181" on="0"/>
        <pt x="493" y="101" on="0"/>
        <pt x="504" y="77" on="1"/>
        <pt x="516" y="48" on="0"/>
        <pt x="532" y="32" on="1"/>
        <pt x="405" y="-8" on="1"/>
        <pt x="394" y="2" on="0"/>
        <pt x="385" y="17" on="1"/>
        <pt x="377" y="30" on="0"/>
        <pt x="362" y="67" on="0"/>
        <pt x="357" y="92" on="1"/>
        <pt x="340" y="45" on="0"/>
        <pt x="274" y="-6" on="0"/>
        <pt x="220" y="-6" on="1"/>
        <pt x="171" y="-6" on="0"/>
        <pt x="98" y="30" on="0"/>
        <pt x="50" y="95" on="0"/>
        <pt x="27" y="187" on="0"/>
        <pt x="27" y="243" on="1"/>
        <pt x="27" y="300" on="0"/>
        <pt x="64" y="398" on="0"/>
        <pt x="130" y="469" on="0"/>
        <pt x="222" y="509" on="0"/>
        <pt x="278" y="509" on="1"/>
        <pt x="309" y="509" on="0"/>
        <pt x="379" y="500" on="0"/>
        <pt x="437" y="489" on="0"/>
        <pt x="476" y="480" on="0"/>
        <pt x="477" y="480" on="1"/>
      </contour>
      <contour>
        <pt x="261" y="110" on="0"/>
        <pt x="288" y="136" on="0"/>
        <pt x="308" y="180" on="0"/>
        <pt x="319" y="237" on="0"/>
        <pt x="319" y="269" on="1"/>
        <pt x="319" y="385" on="1"/>
        <pt x="312" y="388" on="0"/>
        <pt x="287" y="393" on="0"/>
        <pt x="278" y="393" on="1"/>
        <pt x="254" y="393" on="0"/>
        <pt x="222" y="372" on="0"/>
        <pt x="203" y="335" on="0"/>
        <pt x="195" y="283" on="0"/>
        <pt x="195" y="253" on="1"/>
        <pt x="195" y="225" on="0"/>
        <pt x="197" y="174" on="0"/>
        <pt x="208" y="134" on="0"/>
        <pt x="228" y="110" on="0"/>
        <pt x="246" y="110" on="1"/>
      </contour>
      <contour>
        <pt x="253" y="634" on="0"/>
        <pt x="215" y="590" on="0"/>
        <pt x="178" y="590" on="1"/>
        <pt x="143" y="590" on="0"/>
        <pt x="106" y="633" on="0"/>
        <pt x="106" y="663" on="1"/>
        <pt x="106" y="696" on="0"/>
        <pt x="143" y="741" on="0"/>
        <pt x="181" y="741" on="1"/>
        <pt x="216" y="741" on="0"/>
        <pt x="253" y="697" on="0"/>
        <pt x="253" y="667" on="1"/>
      </contour>
      <contour>
        <pt x="468" y="634" on="0"/>
        <pt x="430" y="590" on="0"/>
        <pt x="393" y="590" on="1"/>
        <pt x="358" y="590" on="0"/>
        <pt x="321" y="633" on="0"/>
        <pt x="321" y="663" on="1"/>
        <pt x="321" y="696" on="0"/>
        <pt x="358" y="741" on="0"/>
        <pt x="396" y="741" on="1"/>
        <pt x="431" y="741" on="0"/>
        <pt x="468" y="697" on="0"/>
        <pt x="468" y="667" on="1"/>
      </contour>
    </TTGlyph>
    <TTGlyph name="ae" xMin="27" yMin="-9" xMax="742" yMax="512">
      <contour>
        <pt x="325" y="509" on="0"/>
        <pt x="401" y="488" on="0"/>
        <pt x="430" y="476" on="1"/>
        <pt x="488" y="512" on="0"/>
        <pt x="567" y="512" on="1"/>
        <pt x="614" y="512" on="0"/>
        <pt x="680" y="489" on="0"/>
        <pt x="722" y="448" on="0"/>
        <pt x="742" y="393" on="0"/>
        <pt x="742" y="361" on="1"/>
        <pt x="742" y="325" on="0"/>
        <pt x="706" y="261" on="0"/>
        <pt x="639" y="212" on="0"/>
        <pt x="544" y="180" on="0"/>
        <pt x="484" y="175" on="1"/>
        <pt x="491" y="145" on="0"/>
        <pt x="528" y="108" on="0"/>
        <pt x="565" y="108" on="1"/>
        <pt x="587" y="108" on="0"/>
        <pt x="637" y="118" on="0"/>
        <pt x="658" y="124" on="1"/>
        <pt x="683" y="131" on="0"/>
        <pt x="707" y="140" on="1"/>
        <pt x="737" y="36" on="1"/>
        <pt x="711" y="23" on="0"/>
        <pt x="679" y="13" on="1"/>
        <pt x="652" y="5" on="0"/>
        <pt x="580" y="-9" on="0"/>
        <pt x="540" y="-9" on="1"/>
        <pt x="469" y="-9" on="0"/>
        <pt x="377" y="38" on="0"/>
        <pt x="350" y="80" on="1"/>
        <pt x="332" y="39" on="0"/>
        <pt x="269" y="-6" on="0"/>
        <pt x="220" y="-6" on="1"/>
        <pt x="171" y="-6" on="0"/>
        <pt x="98" y="30" on="0"/>
        <pt x="50" y="95" on="0"/>
        <pt x="27" y="187" on="0"/>
        <pt x="27" y="243" on="1"/>
        <pt x="27" y="300" on="0"/>
        <pt x="64" y="398" on="0"/>
        <pt x="130" y="469" on="0"/>
        <pt x="222" y="509" on="0"/>
        <pt x="278" y="509" on="1"/>
      </contour>
      <contour>
        <pt x="269" y="110" on="0"/>
        <pt x="306" y="167" on="0"/>
        <pt x="314" y="212" on="1"/>
        <pt x="313" y="221" on="0"/>
        <pt x="312" y="243" on="0"/>
        <pt x="312" y="251" on="1"/>
        <pt x="312" y="280" on="0"/>
        <pt x="327" y="349" on="0"/>
        <pt x="341" y="375" on="1"/>
        <pt x="326" y="383" on="0"/>
        <pt x="295" y="393" on="0"/>
        <pt x="278" y="393" on="1"/>
        <pt x="254" y="393" on="0"/>
        <pt x="222" y="372" on="0"/>
        <pt x="203" y="335" on="0"/>
        <pt x="195" y="283" on="0"/>
        <pt x="195" y="253" on="1"/>
        <pt x="195" y="225" on="0"/>
        <pt x="197" y="174" on="0"/>
        <pt x="208" y="134" on="0"/>
        <pt x="228" y="110" on="0"/>
        <pt x="246" y="110" on="1"/>
      </contour>
      <contour>
        <pt x="528" y="399" on="0"/>
        <pt x="501" y="377" on="0"/>
        <pt x="485" y="341" on="0"/>
        <pt x="477" y="297" on="0"/>
        <pt x="476" y="276" on="1"/>
        <pt x="505" y="277" on="0"/>
        <pt x="547" y="293" on="0"/>
        <pt x="573" y="317" on="0"/>
        <pt x="585" y="345" on="0"/>
        <pt x="585" y="357" on="1"/>
        <pt x="585" y="376" on="0"/>
        <pt x="563" y="399" on="0"/>
        <pt x="547" y="399" on="1"/>
      </contour>
    </TTGlyph>
    <TTGlyph name="agrave" xMin="27" yMin="-8" xMax="532" yMax="842">
      <contour>
        <pt x="477" y="241" on="1"/>
        <pt x="477" y="181" on="0"/>
        <pt x="493" y="101" on="0"/>
        <pt x="504" y="77" on="1"/>
        <pt x="516" y="48" on="0"/>
        <pt x="532" y="32" on="1"/>
        <pt x="405" y="-8" on="1"/>
        <pt x="394" y="2" on="0"/>
        <pt x="385" y="17" on="1"/>
        <pt x="377" y="30" on="0"/>
        <pt x="362" y="67" on="0"/>
        <pt x="357" y="92" on="1"/>
        <pt x="340" y="45" on="0"/>
        <pt x="274" y="-6" on="0"/>
        <pt x="220" y="-6" on="1"/>
        <pt x="171" y="-6" on="0"/>
        <pt x="98" y="30" on="0"/>
        <pt x="50" y="95" on="0"/>
        <pt x="27" y="187" on="0"/>
        <pt x="27" y="243" on="1"/>
        <pt x="27" y="300" on="0"/>
        <pt x="64" y="398" on="0"/>
        <pt x="130" y="469" on="0"/>
        <pt x="222" y="509" on="0"/>
        <pt x="278" y="509" on="1"/>
        <pt x="309" y="509" on="0"/>
        <pt x="379" y="500" on="0"/>
        <pt x="437" y="489" on="0"/>
        <pt x="476" y="480" on="0"/>
        <pt x="477" y="480" on="1"/>
      </contour>
      <contour>
        <pt x="261" y="110" on="0"/>
        <pt x="288" y="136" on="0"/>
        <pt x="308" y="180" on="0"/>
        <pt x="319" y="237" on="0"/>
        <pt x="319" y="269" on="1"/>
        <pt x="319" y="385" on="1"/>
        <pt x="312" y="388" on="0"/>
        <pt x="287" y="393" on="0"/>
        <pt x="278" y="393" on="1"/>
        <pt x="254" y="393" on="0"/>
        <pt x="222" y="372" on="0"/>
        <pt x="203" y="335" on="0"/>
        <pt x="195" y="283" on="0"/>
        <pt x="195" y="253" on="1"/>
        <pt x="195" y="225" on="0"/>
        <pt x="197" y="174" on="0"/>
        <pt x="208" y="134" on="0"/>
        <pt x="228" y="110" on="0"/>
        <pt x="246" y="110" on="1"/>
      </contour>
      <contour>
        <pt x="287" y="557" on="1"/>
        <pt x="283" y="560" on="0"/>
        <pt x="237" y="590" on="0"/>
        <pt x="172" y="638" on="0"/>
        <pt x="98" y="704" on="0"/>
        <pt x="67" y="743" on="1"/>
        <pt x="171" y="842" on="1"/>
        <pt x="354" y="628" on="1"/>
      </contour>
    </TTGlyph>
    <TTGlyph name="ampersand" xMin="35" yMin="-6" xMax="605" yMax="602">
      <contour>
        <pt x="402" y="442" on="1"/>
        <pt x="387" y="456" on="0"/>
        <pt x="346" y="487" on="0"/>
        <pt x="323" y="487" on="1"/>
        <pt x="303" y="487" on="0"/>
        <pt x="285" y="466" on="0"/>
        <pt x="285" y="448" on="1"/>
        <pt x="285" y="402" on="0"/>
        <pt x="360" y="310" on="0"/>
        <pt x="424" y="254" on="1"/>
        <pt x="442" y="288" on="0"/>
        <pt x="453" y="318" on="1"/>
        <pt x="569" y="272" on="1"/>
        <pt x="558" y="249" on="0"/>
        <pt x="535" y="199" on="0"/>
        <pt x="519" y="173" on="1"/>
        <pt x="605" y="99" on="1"/>
        <pt x="526" y="-5" on="1"/>
        <pt x="436" y="69" on="1"/>
        <pt x="398" y="35" on="0"/>
        <pt x="302" y="-6" on="0"/>
        <pt x="239" y="-6" on="1"/>
        <pt x="194" y="-6" on="0"/>
        <pt x="119" y="20" on="0"/>
        <pt x="65" y="68" on="0"/>
        <pt x="35" y="133" on="0"/>
        <pt x="35" y="172" on="1"/>
        <pt x="35" y="206" on="0"/>
        <pt x="54" y="264" on="0"/>
        <pt x="86" y="311" on="0"/>
        <pt x="125" y="347" on="0"/>
        <pt x="145" y="360" on="1"/>
        <pt x="121" y="405" on="0"/>
        <pt x="121" y="448" on="1"/>
        <pt x="121" y="481" on="0"/>
        <pt x="144" y="537" on="0"/>
        <pt x="190" y="578" on="0"/>
        <pt x="258" y="602" on="0"/>
        <pt x="303" y="602" on="1"/>
        <pt x="353" y="602" on="0"/>
        <pt x="442" y="573" on="0"/>
        <pt x="483" y="530" on="1"/>
      </contour>
      <contour>
        <pt x="306" y="176" on="0"/>
        <pt x="241" y="235" on="0"/>
        <pt x="215" y="264" on="1"/>
        <pt x="204" y="250" on="0"/>
        <pt x="190" y="213" on="0"/>
        <pt x="190" y="189" on="1"/>
        <pt x="190" y="158" on="0"/>
        <pt x="230" y="118" on="0"/>
        <pt x="269" y="118" on="1"/>
        <pt x="289" y="118" on="0"/>
        <pt x="325" y="133" on="0"/>
        <pt x="342" y="146" on="1"/>
      </contour>
    </TTGlyph>
    <TTGlyph name="apostrophe" xMin="29" yMin="408" xMax="243" yMax="724">
      <contour>
        <pt x="71" y="701" on="0"/>
        <pt x="82" y="708" on="0"/>
        <pt x="103" y="717" on="0"/>
        <pt x="137" y="724" on="0"/>
        <pt x="160" y="724" on="1"/>
        <pt x="206" y="724" on="0"/>
        <pt x="243" y="670" on="0"/>
        <pt x="243" y="633" on="1"/>
        <pt x="243" y="569" on="0"/>
        <pt x="169" y="450" on="0"/>
        <pt x="87" y="408" on="1"/>
        <pt x="29" y="487" on="1"/>
        <pt x="65" y="513" on="0"/>
        <pt x="90" y="572" on="0"/>
        <pt x="90" y="600" on="1"/>
        <pt x="90" y="631" on="0"/>
        <pt x="72" y="683" on="0"/>
        <pt x="70" y="700" on="1"/>
      </contour>
    </TTGlyph>
    <TTGlyph name="aring" xMin="27" yMin="-8" xMax="532" yMax="763">
      <contour>
        <pt x="477" y="241" on="1"/>
        <pt x="477" y="181" on="0"/>
        <pt x="493" y="101" on="0"/>
        <pt x="504" y="77" on="1"/>
        <pt x="516" y="48" on="0"/>
        <pt x="532" y="32" on="1"/>
        <pt x="405" y="-8" on="1"/>
        <pt x="394" y="2" on="0"/>
        <pt x="385" y="17" on="1"/>
        <pt x="377" y="30" on="0"/>
        <pt x="362" y="67" on="0"/>
        <pt x="357" y="92" on="1"/>
        <pt x="340" y="45" on="0"/>
        <pt x="274" y="-6" on="0"/>
        <pt x="220" y="-6" on="1"/>
        <pt x="171" y="-6" on="0"/>
        <pt x="98" y="30" on="0"/>
        <pt x="50" y="95" on="0"/>
        <pt x="27" y="187" on="0"/>
        <pt x="27" y="243" on="1"/>
        <pt x="27" y="300" on="0"/>
        <pt x="64" y="398" on="0"/>
        <pt x="130" y="469" on="0"/>
        <pt x="222" y="509" on="0"/>
        <pt x="278" y="509" on="1"/>
        <pt x="309" y="509" on="0"/>
        <pt x="379" y="500" on="0"/>
        <pt x="437" y="489" on="0"/>
        <pt x="476" y="480" on="0"/>
        <pt x="477" y="480" on="1"/>
      </contour>
      <contour>
        <pt x="261" y="110" on="0"/>
        <pt x="288" y="136" on="0"/>
        <pt x="308" y="180" on="0"/>
        <pt x="319" y="237" on="0"/>
        <pt x="319" y="269" on="1"/>
        <pt x="319" y="385" on="1"/>
        <pt x="312" y="388" on="0"/>
        <pt x="287" y="393" on="0"/>
        <pt x="278" y="393" on="1"/>
        <pt x="254" y="393" on="0"/>
        <pt x="222" y="372" on="0"/>
        <pt x="203" y="335" on="0"/>
        <pt x="195" y="283" on="0"/>
        <pt x="195" y="253" on="1"/>
        <pt x="195" y="225" on="0"/>
        <pt x="197" y="174" on="0"/>
        <pt x="208" y="134" on="0"/>
        <pt x="228" y="110" on="0"/>
        <pt x="246" y="110" on="1"/>
      </contour>
      <contour>
        <pt x="168" y="704" on="0"/>
        <pt x="230" y="763" on="0"/>
        <pt x="278" y="763" on="1"/>
        <pt x="328" y="763" on="0"/>
        <pt x="385" y="701" on="0"/>
        <pt x="385" y="653" on="1"/>
        <pt x="385" y="603" on="0"/>
        <pt x="323" y="543" on="0"/>
        <pt x="275" y="543" on="1"/>
        <pt x="225" y="543" on="0"/>
        <pt x="168" y="606" on="0"/>
        <pt x="168" y="653" on="1"/>
      </contour>
      <contour>
        <pt x="242" y="632" on="0"/>
        <pt x="262" y="611" on="0"/>
        <pt x="276" y="611" on="1"/>
        <pt x="311" y="611" on="0"/>
        <pt x="311" y="653" on="1"/>
        <pt x="311" y="672" on="0"/>
        <pt x="293" y="694" on="0"/>
        <pt x="276" y="694" on="1"/>
        <pt x="242" y="694" on="0"/>
        <pt x="242" y="654" on="1"/>
      </contour>
    </TTGlyph>
    <TTGlyph name="asciicircum" xMin="42" yMin="285" xMax="520" yMax="677">
      <contour>
        <pt x="383" y="286" on="1"/>
        <pt x="313" y="438" on="1"/>
        <pt x="304" y="457" on="0"/>
        <pt x="286" y="503" on="0"/>
        <pt x="281" y="518" on="1"/>
        <pt x="276" y="503" on="0"/>
        <pt x="258" y="458" on="0"/>
        <pt x="249" y="438" on="1"/>
        <pt x="179" y="285" on="1"/>
        <pt x="42" y="310" on="1"/>
        <pt x="221" y="677" on="1"/>
        <pt x="341" y="677" on="1"/>
        <pt x="520" y="310" on="1"/>
      </contour>
    </TTGlyph>
    <TTGlyph name="asciitilde" xMin="42" yMin="235" xMax="499" yMax="406">
      <contour>
        <pt x="212" y="406" on="0"/>
        <pt x="257" y="387" on="0"/>
        <pt x="297" y="365" on="0"/>
        <pt x="335" y="346" on="0"/>
        <pt x="358" y="346" on="1"/>
        <pt x="389" y="346" on="0"/>
        <pt x="423" y="368" on="0"/>
        <pt x="445" y="392" on="1"/>
        <pt x="499" y="331" on="1"/>
        <pt x="484" y="304" on="0"/>
        <pt x="463" y="283" on="1"/>
        <pt x="445" y="265" on="0"/>
        <pt x="393" y="235" on="0"/>
        <pt x="358" y="235" on="1"/>
        <pt x="329" y="235" on="0"/>
        <pt x="285" y="254" on="0"/>
        <pt x="245" y="276" on="0"/>
        <pt x="206" y="295" on="0"/>
        <pt x="183" y="295" on="1"/>
        <pt x="168" y="295" on="0"/>
        <pt x="145" y="290" on="0"/>
        <pt x="126" y="278" on="0"/>
        <pt x="107" y="261" on="0"/>
        <pt x="96" y="249" on="1"/>
        <pt x="42" y="310" on="1"/>
        <pt x="57" y="337" on="0"/>
        <pt x="78" y="358" on="1"/>
        <pt x="96" y="376" on="0"/>
        <pt x="148" y="406" on="0"/>
        <pt x="183" y="406" on="1"/>
      </contour>
    </TTGlyph>
    <TTGlyph name="asterisk" xMin="42" yMin="306" xMax="435" yMax="677">
      <contour>
        <pt x="305" y="677" on="1"/>
        <pt x="292" y="570" on="1"/>
        <pt x="392" y="616" on="1"/>
        <pt x="435" y="491" on="1"/>
        <pt x="325" y="467" on="1"/>
        <pt x="401" y="385" on="1"/>
        <pt x="292" y="306" on="1"/>
        <pt x="238" y="400" on="1"/>
        <pt x="185" y="306" on="1"/>
        <pt x="76" y="385" on="1"/>
        <pt x="152" y="467" on="1"/>
        <pt x="42" y="491" on="1"/>
        <pt x="85" y="616" on="1"/>
        <pt x="184" y="570" on="1"/>
        <pt x="172" y="677" on="1"/>
      </contour>
    </TTGlyph>
    <TTGlyph name="at" xMin="44" yMin="-195" xMax="914" yMax="665">
      <contour>
        <pt x="670" y="217" on="1"/>
        <pt x="670" y="160" on="0"/>
        <pt x="692" y="108" on="0"/>
        <pt x="715" y="108" on="1"/>
        <pt x="733" y="108" on="0"/>
        <pt x="762" y="140" on="0"/>
        <pt x="783" y="190" on="0"/>
        <pt x="795" y="250" on="0"/>
        <pt x="795" y="278" on="1"/>
        <pt x="795" y="346" on="0"/>
        <pt x="754" y="449" on="0"/>
        <pt x="680" y="518" on="0"/>
        <pt x="577" y="552" on="0"/>
        <pt x="516" y="552" on="1"/>
        <pt x="443" y="552" on="0"/>
        <pt x="315" y="509" on="0"/>
        <pt x="219" y="422" on="0"/>
        <pt x="163" y="291" on="0"/>
        <pt x="163" y="203" on="1"/>
        <pt x="163" y="146" on="0"/>
        <pt x="190" y="43" on="0"/>
        <pt x="253" y="-36" on="0"/>
        <pt x="356" y="-82" on="0"/>
        <pt x="431" y="-82" on="1"/>
        <pt x="461" y="-82" on="0"/>
        <pt x="523" y="-72" on="0"/>
        <pt x="578" y="-60" on="0"/>
        <pt x="618" y="-47" on="0"/>
        <pt x="626" y="-44" on="1"/>
        <pt x="663" y="-141" on="1"/>
        <pt x="656" y="-145" on="0"/>
        <pt x="610" y="-163" on="0"/>
        <pt x="544" y="-181" on="0"/>
        <pt x="464" y="-195" on="0"/>
        <pt x="424" y="-195" on="1"/>
        <pt x="354" y="-195" on="0"/>
        <pt x="218" y="-157" on="0"/>
        <pt x="110" y="-66" on="0"/>
        <pt x="44" y="85" on="0"/>
        <pt x="44" y="199" on="1"/>
        <pt x="44" y="312" on="0"/>
        <pt x="121" y="486" on="0"/>
        <pt x="252" y="604" on="0"/>
        <pt x="428" y="665" on="0"/>
        <pt x="527" y="665" on="1"/>
        <pt x="608" y="665" on="0"/>
        <pt x="749" y="615" on="0"/>
        <pt x="854" y="518" on="0"/>
        <pt x="914" y="376" on="0"/>
        <pt x="914" y="284" on="1"/>
        <pt x="914" y="225" on="0"/>
        <pt x="883" y="119" on="0"/>
        <pt x="828" y="40" on="0"/>
        <pt x="755" y="-6" on="0"/>
        <pt x="713" y="-6" on="1"/>
        <pt x="663" y="-6" on="0"/>
        <pt x="582" y="39" on="0"/>
        <pt x="561" y="95" on="1"/>
        <pt x="542" y="43" on="0"/>
        <pt x="479" y="-6" on="0"/>
        <pt x="428" y="-6" on="1"/>
        <pt x="382" y="-6" on="0"/>
        <pt x="314" y="27" on="0"/>
        <pt x="270" y="88" on="0"/>
        <pt x="248" y="173" on="0"/>
        <pt x="248" y="226" on="1"/>
        <pt x="248" y="280" on="0"/>
        <pt x="282" y="372" on="0"/>
        <pt x="344" y="438" on="0"/>
        <pt x="430" y="475" on="0"/>
        <pt x="483" y="475" on="1"/>
        <pt x="512" y="475" on="0"/>
        <pt x="576" y="467" on="0"/>
        <pt x="630" y="457" on="0"/>
        <pt x="667" y="449" on="0"/>
        <pt x="670" y="449" on="1"/>
      </contour>
      <contour>
        <pt x="467" y="103" on="0"/>
        <pt x="492" y="127" on="0"/>
        <pt x="510" y="167" on="0"/>
        <pt x="521" y="220" on="0"/>
        <pt x="521" y="250" on="1"/>
        <pt x="521" y="358" on="1"/>
        <pt x="515" y="360" on="0"/>
        <pt x="492" y="366" on="0"/>
        <pt x="481" y="366" on="1"/>
        <pt x="439" y="366" on="0"/>
        <pt x="406" y="294" on="0"/>
        <pt x="406" y="237" on="1"/>
        <pt x="406" y="210" on="0"/>
        <pt x="409" y="162" on="0"/>
        <pt x="418" y="125" on="0"/>
        <pt x="436" y="103" on="0"/>
        <pt x="452" y="103" on="1"/>
      </contour>
    </TTGlyph>
    <TTGlyph name="atilde" xMin="27" yMin="-8" xMax="532" yMax="709">
      <contour>
        <pt x="477" y="241" on="1"/>
        <pt x="477" y="181" on="0"/>
        <pt x="493" y="101" on="0"/>
        <pt x="504" y="77" on="1"/>
        <pt x="516" y="48" on="0"/>
        <pt x="532" y="32" on="1"/>
        <pt x="405" y="-8" on="1"/>
        <pt x="394" y="2" on="0"/>
        <pt x="385" y="17" on="1"/>
        <pt x="377" y="30" on="0"/>
        <pt x="362" y="67" on="0"/>
        <pt x="357" y="92" on="1"/>
        <pt x="340" y="45" on="0"/>
        <pt x="274" y="-6" on="0"/>
        <pt x="220" y="-6" on="1"/>
        <pt x="171" y="-6" on="0"/>
        <pt x="98" y="30" on="0"/>
        <pt x="50" y="95" on="0"/>
        <pt x="27" y="187" on="0"/>
        <pt x="27" y="243" on="1"/>
        <pt x="27" y="300" on="0"/>
        <pt x="64" y="398" on="0"/>
        <pt x="130" y="469" on="0"/>
        <pt x="222" y="509" on="0"/>
        <pt x="278" y="509" on="1"/>
        <pt x="309" y="509" on="0"/>
        <pt x="379" y="500" on="0"/>
        <pt x="437" y="489" on="0"/>
        <pt x="476" y="480" on="0"/>
        <pt x="477" y="480" on="1"/>
      </contour>
      <contour>
        <pt x="261" y="110" on="0"/>
        <pt x="288" y="136" on="0"/>
        <pt x="308" y="180" on="0"/>
        <pt x="319" y="237" on="0"/>
        <pt x="319" y="269" on="1"/>
        <pt x="319" y="385" on="1"/>
        <pt x="312" y="388" on="0"/>
        <pt x="287" y="393" on="0"/>
        <pt x="278" y="393" on="1"/>
        <pt x="254" y="393" on="0"/>
        <pt x="222" y="372" on="0"/>
        <pt x="203" y="335" on="0"/>
        <pt x="195" y="283" on="0"/>
        <pt x="195" y="253" on="1"/>
        <pt x="195" y="225" on="0"/>
        <pt x="197" y="174" on="0"/>
        <pt x="208" y="134" on="0"/>
        <pt x="228" y="110" on="0"/>
        <pt x="246" y="110" on="1"/>
      </contour>
      <contour>
        <pt x="121" y="686" on="1"/>
        <pt x="133" y="692" on="0"/>
        <pt x="147" y="697" on="1"/>
        <pt x="159" y="702" on="0"/>
        <pt x="190" y="709" on="0"/>
        <pt x="209" y="709" on="1"/>
        <pt x="248" y="709" on="0"/>
        <pt x="329" y="689" on="0"/>
        <pt x="369" y="689" on="1"/>
        <pt x="387" y="689" on="0"/>
        <pt x="416" y="693" on="0"/>
        <pt x="427" y="696" on="1"/>
        <pt x="439" y="699" on="0"/>
        <pt x="449" y="703" on="1"/>
        <pt x="449" y="603" on="1"/>
        <pt x="439" y="596" on="0"/>
        <pt x="427" y="591" on="1"/>
        <pt x="416" y="586" on="0"/>
        <pt x="387" y="580" on="0"/>
        <pt x="369" y="580" on="1"/>
        <pt x="329" y="580" on="0"/>
        <pt x="248" y="600" on="0"/>
        <pt x="209" y="600" on="1"/>
        <pt x="190" y="600" on="0"/>
        <pt x="159" y="595" on="0"/>
        <pt x="147" y="593" on="1"/>
        <pt x="133" y="589" on="0"/>
        <pt x="121" y="586" on="1"/>
      </contour>
    </TTGlyph>
    <TTGlyph name="b" xMin="57" yMin="-6" xMax="507" yMax="725">
      <contour>
        <pt x="57" y="698" on="1"/>
        <pt x="215" y="725" on="1"/>
        <pt x="215" y="459" on="1"/>
        <pt x="254" y="509" on="0"/>
        <pt x="319" y="509" on="1"/>
        <pt x="366" y="509" on="0"/>
        <pt x="437" y="473" on="0"/>
        <pt x="484" y="408" on="0"/>
        <pt x="507" y="316" on="0"/>
        <pt x="507" y="259" on="1"/>
        <pt x="507" y="202" on="0"/>
        <pt x="470" y="105" on="0"/>
        <pt x="404" y="34" on="0"/>
        <pt x="312" y="-6" on="0"/>
        <pt x="256" y="-6" on="1"/>
        <pt x="225" y="-6" on="0"/>
        <pt x="158" y="2" on="0"/>
        <pt x="101" y="12" on="0"/>
        <pt x="61" y="21" on="0"/>
        <pt x="57" y="23" on="1"/>
      </contour>
      <contour>
        <pt x="272" y="393" on="0"/>
        <pt x="245" y="365" on="0"/>
        <pt x="226" y="319" on="0"/>
        <pt x="215" y="257" on="0"/>
        <pt x="215" y="224" on="1"/>
        <pt x="215" y="117" on="1"/>
        <pt x="221" y="115" on="0"/>
        <pt x="246" y="110" on="0"/>
        <pt x="256" y="110" on="1"/>
        <pt x="280" y="110" on="0"/>
        <pt x="312" y="131" on="0"/>
        <pt x="331" y="168" on="0"/>
        <pt x="339" y="219" on="0"/>
        <pt x="339" y="249" on="1"/>
        <pt x="339" y="277" on="0"/>
        <pt x="337" y="329" on="0"/>
        <pt x="326" y="369" on="0"/>
        <pt x="306" y="393" on="0"/>
        <pt x="288" y="393" on="1"/>
      </contour>
    </TTGlyph>
    <TTGlyph name="backslash" xMin="-18" yMin="-126" xMax="465" yMax="729">
      <contour>
        <pt x="465" y="-126" on="1"/>
        <pt x="300" y="-126" on="1"/>
        <pt x="-18" y="729" on="1"/>
        <pt x="147" y="729" on="1"/>
      </contour>
    </TTGlyph>
    <TTGlyph name="bar" xMin="92" yMin="-126" xMax="247" yMax="730">
      <contour>
        <pt x="247" y="730" on="1"/>
        <pt x="247" y="-126" on="1"/>
        <pt x="92" y="-126" on="1"/>
        <pt x="92" y="730" on="1"/>
      </contour>
    </TTGlyph>
    <TTGlyph name="braceleft" xMin="52" yMin="-214" xMax="390" yMax="724">
      <contour>
        <pt x="108" y="615" on="0"/>
        <pt x="125" y="664" on="0"/>
        <pt x="163" y="701" on="0"/>
        <pt x="225" y="724" on="0"/>
        <pt x="269" y="724" on="1"/>
        <pt x="295" y="724" on="0"/>
        <pt x="355" y="718" on="0"/>
        <pt x="390" y="708" on="1"/>
        <pt x="363" y="610" on="1"/>
        <pt x="355" y="612" on="0"/>
        <pt x="328" y="618" on="0"/>
        <pt x="315" y="618" on="1"/>
        <pt x="291" y="618" on="0"/>
        <pt x="268" y="592" on="0"/>
        <pt x="268" y="574" on="1"/>
        <pt x="268" y="529" on="0"/>
        <pt x="281" y="459" on="0"/>
        <pt x="281" y="420" on="1"/>
        <pt x="281" y="360" on="0"/>
        <pt x="240" y="282" on="0"/>
        <pt x="192" y="254" on="1"/>
        <pt x="240" y="226" on="0"/>
        <pt x="281" y="149" on="0"/>
        <pt x="281" y="90" on="1"/>
        <pt x="281" y="51" on="0"/>
        <pt x="268" y="-19" on="0"/>
        <pt x="268" y="-64" on="1"/>
        <pt x="268" y="-82" on="0"/>
        <pt x="291" y="-108" on="0"/>
        <pt x="315" y="-108" on="1"/>
        <pt x="328" y="-108" on="0"/>
        <pt x="355" y="-103" on="0"/>
        <pt x="363" y="-100" on="1"/>
        <pt x="390" y="-198" on="1"/>
        <pt x="355" y="-208" on="0"/>
        <pt x="295" y="-214" on="0"/>
        <pt x="269" y="-214" on="1"/>
        <pt x="225" y="-214" on="0"/>
        <pt x="163" y="-191" on="0"/>
        <pt x="125" y="-154" on="0"/>
        <pt x="108" y="-105" on="0"/>
        <pt x="108" y="-79" on="1"/>
        <pt x="108" y="-25" on="0"/>
        <pt x="122" y="60" on="0"/>
        <pt x="122" y="104" on="1"/>
        <pt x="122" y="143" on="0"/>
        <pt x="87" y="193" on="0"/>
        <pt x="52" y="201" on="1"/>
        <pt x="52" y="308" on="1"/>
        <pt x="87" y="316" on="0"/>
        <pt x="122" y="367" on="0"/>
        <pt x="122" y="406" on="1"/>
        <pt x="122" y="450" on="0"/>
        <pt x="108" y="535" on="0"/>
        <pt x="108" y="589" on="1"/>
      </contour>
    </TTGlyph>
    <TTGlyph name="braceright" xMin="12" yMin="-214" xMax="350" yMax="724">
      <contour>
        <pt x="294" y="535" on="0"/>
        <pt x="280" y="450" on="0"/>
        <pt x="280" y="406" on="1"/>
        <pt x="280" y="367" on="0"/>
        <pt x="315" y="316" on="0"/>
        <pt x="350" y="308" on="1"/>
        <pt x="350" y="201" on="1"/>
        <pt x="315" y="193" on="0"/>
        <pt x="280" y="143" on="0"/>
        <pt x="280" y="104" on="1"/>
        <pt x="280" y="60" on="0"/>
        <pt x="294" y="-25" on="0"/>
        <pt x="294" y="-79" on="1"/>
        <pt x="294" y="-105" on="0"/>
        <pt x="277" y="-154" on="0"/>
        <pt x="239" y="-191" on="0"/>
        <pt x="177" y="-214" on="0"/>
        <pt x="133" y="-214" on="1"/>
        <pt x="108" y="-214" on="0"/>
        <pt x="47" y="-208" on="0"/>
        <pt x="12" y="-198" on="1"/>
        <pt x="39" y="-100" on="1"/>
        <pt x="47" y="-103" on="0"/>
        <pt x="74" y="-108" on="0"/>
        <pt x="87" y="-108" on="1"/>
        <pt x="111" y="-108" on="0"/>
        <pt x="134" y="-82" on="0"/>
        <pt x="134" y="-64" on="1"/>
        <pt x="134" y="-19" on="0"/>
        <pt x="121" y="51" on="0"/>
        <pt x="121" y="90" on="1"/>
        <pt x="121" y="149" on="0"/>
        <pt x="162" y="226" on="0"/>
        <pt x="210" y="254" on="1"/>
        <pt x="162" y="282" on="0"/>
        <pt x="121" y="360" on="0"/>
        <pt x="121" y="420" on="1"/>
        <pt x="121" y="459" on="0"/>
        <pt x="134" y="529" on="0"/>
        <pt x="134" y="574" on="1"/>
        <pt x="134" y="592" on="0"/>
        <pt x="111" y="618" on="0"/>
        <pt x="87" y="618" on="1"/>
        <pt x="74" y="618" on="0"/>
        <pt x="47" y="612" on="0"/>
        <pt x="39" y="610" on="1"/>
        <pt x="12" y="708" on="1"/>
        <pt x="47" y="718" on="0"/>
        <pt x="108" y="724" on="0"/>
        <pt x="133" y="724" on="1"/>
        <pt x="177" y="724" on="0"/>
        <pt x="239" y="701" on="0"/>
        <pt x="277" y="664" on="0"/>
        <pt x="294" y="615" on="0"/>
        <pt x="294" y="589" on="1"/>
      </contour>
    </TTGlyph>
    <TTGlyph name="bracketleft" xMin="72" yMin="-186" xMax="360" yMax="720">
      <contour>
        <pt x="360" y="720" on="1"/>
        <pt x="360" y="615" on="1"/>
        <pt x="233" y="615" on="1"/>
        <pt x="233" y="-81" on="1"/>
        <pt x="360" y="-81" on="1"/>
        <pt x="360" y="-186" on="1"/>
        <pt x="72" y="-186" on="1"/>
        <pt x="72" y="720" on="1"/>
      </contour>
    </TTGlyph>
    <TTGlyph name="bracketright" xMin="41" yMin="-186" xMax="329" yMax="720">
      <contour>
        <pt x="329" y="-186" on="1"/>
        <pt x="41" y="-186" on="1"/>
        <pt x="41" y="-81" on="1"/>
        <pt x="169" y="-81" on="1"/>
        <pt x="169" y="615" on="1"/>
        <pt x="41" y="615" on="1"/>
        <pt x="41" y="720" on="1"/>
        <pt x="329" y="720" on="1"/>
      </contour>
    </TTGlyph>
    <TTGlyph name="brokenbar" xMin="92" yMin="-126" xMax="247" yMax="730">
      <contour>
        <pt x="92" y="353" on="1"/>
        <pt x="92" y="730" on="1"/>
        <pt x="247" y="730" on="1"/>
        <pt x="247" y="353" on="1"/>
      </contour>
      <contour>
        <pt x="92" y="-126" on="1"/>
        <pt x="92" y="250" on="1"/>
        <pt x="247" y="250" on="1"/>
        <pt x="247" y="-126" on="1"/>
      </contour>
    </TTGlyph>
    <TTGlyph name="bullet" xMin="42" yMin="209" xMax="256" yMax="423">
      <contour>
        <pt x="42" y="365" on="0"/>
        <pt x="100" y="423" on="0"/>
        <pt x="149" y="423" on="1"/>
        <pt x="198" y="423" on="0"/>
        <pt x="256" y="365" on="0"/>
        <pt x="256" y="316" on="1"/>
        <pt x="256" y="267" on="0"/>
        <pt x="198" y="209" on="0"/>
        <pt x="149" y="209" on="1"/>
        <pt x="100" y="209" on="0"/>
        <pt x="42" y="267" on="0"/>
        <pt x="42" y="316" on="1"/>
      </contour>
    </TTGlyph>
    <TTGlyph name="c" xMin="27" yMin="-9" xMax="416" yMax="512">
      <contour>
        <pt x="338" y="360" on="1"/>
        <pt x="326" y="374" on="0"/>
        <pt x="300" y="394" on="0"/>
        <pt x="280" y="394" on="1"/>
        <pt x="268" y="394" on="0"/>
        <pt x="238" y="386" on="0"/>
        <pt x="212" y="357" on="0"/>
        <pt x="195" y="302" on="0"/>
        <pt x="195" y="254" on="1"/>
        <pt x="195" y="207" on="0"/>
        <pt x="214" y="150" on="0"/>
        <pt x="243" y="120" on="0"/>
        <pt x="278" y="110" on="0"/>
        <pt x="294" y="110" on="1"/>
        <pt x="306" y="110" on="0"/>
        <pt x="334" y="116" on="0"/>
        <pt x="359" y="123" on="0"/>
        <pt x="377" y="130" on="0"/>
        <pt x="378" y="130" on="1"/>
        <pt x="407" y="25" on="1"/>
        <pt x="396" y="20" on="1"/>
        <pt x="385" y="14" on="0"/>
        <pt x="346" y="1" on="0"/>
        <pt x="291" y="-9" on="0"/>
        <pt x="258" y="-9" on="1"/>
        <pt x="197" y="-9" on="0"/>
        <pt x="109" y="27" on="0"/>
        <pt x="53" y="91" on="0"/>
        <pt x="27" y="182" on="0"/>
        <pt x="27" y="237" on="1"/>
        <pt x="27" y="304" on="0"/>
        <pt x="64" y="407" on="0"/>
        <pt x="129" y="477" on="0"/>
        <pt x="218" y="512" on="0"/>
        <pt x="270" y="512" on="1"/>
        <pt x="319" y="512" on="0"/>
        <pt x="393" y="473" on="0"/>
        <pt x="416" y="441" on="1"/>
      </contour>
    </TTGlyph>
    <TTGlyph name="ccedilla" xMin="27" yMin="-236" xMax="416" yMax="512">
      <contour>
        <pt x="338" y="360" on="1"/>
        <pt x="326" y="374" on="0"/>
        <pt x="300" y="394" on="0"/>
        <pt x="280" y="394" on="1"/>
        <pt x="268" y="394" on="0"/>
        <pt x="238" y="386" on="0"/>
        <pt x="212" y="357" on="0"/>
        <pt x="195" y="302" on="0"/>
        <pt x="195" y="254" on="1"/>
        <pt x="195" y="207" on="0"/>
        <pt x="214" y="150" on="0"/>
        <pt x="243" y="120" on="0"/>
        <pt x="278" y="110" on="0"/>
        <pt x="294" y="110" on="1"/>
        <pt x="306" y="110" on="0"/>
        <pt x="334" y="116" on="0"/>
        <pt x="359" y="123" on="0"/>
        <pt x="377" y="130" on="0"/>
        <pt x="378" y="130" on="1"/>
        <pt x="407" y="25" on="1"/>
        <pt x="399" y="21" on="1"/>
        <pt x="391" y="16" on="0"/>
        <pt x="362" y="6" on="0"/>
        <pt x="322" y="-4" on="0"/>
        <pt x="297" y="-7" on="1"/>
        <pt x="290" y="-37" on="1"/>
        <pt x="329" y="-41" on="0"/>
        <pt x="383" y="-84" on="0"/>
        <pt x="383" y="-126" on="1"/>
        <pt x="383" y="-155" on="0"/>
        <pt x="362" y="-197" on="0"/>
        <pt x="326" y="-224" on="0"/>
        <pt x="279" y="-236" on="0"/>
        <pt x="252" y="-236" on="1"/>
        <pt x="220" y="-236" on="0"/>
        <pt x="160" y="-223" on="0"/>
        <pt x="137" y="-212" on="1"/>
        <pt x="160" y="-137" on="1"/>
        <pt x="174" y="-143" on="0"/>
        <pt x="210" y="-151" on="0"/>
        <pt x="226" y="-151" on="1"/>
        <pt x="271" y="-151" on="0"/>
        <pt x="271" y="-127" on="1"/>
        <pt x="271" y="-117" on="0"/>
        <pt x="253" y="-102" on="0"/>
        <pt x="226" y="-92" on="0"/>
        <pt x="193" y="-87" on="0"/>
        <pt x="177" y="-87" on="1"/>
        <pt x="198" y="-4" on="1"/>
        <pt x="153" y="4" on="0"/>
        <pt x="88" y="46" on="0"/>
        <pt x="47" y="108" on="0"/>
        <pt x="27" y="189" on="0"/>
        <pt x="27" y="237" on="1"/>
        <pt x="27" y="304" on="0"/>
        <pt x="64" y="407" on="0"/>
        <pt x="129" y="477" on="0"/>
        <pt x="218" y="512" on="0"/>
        <pt x="270" y="512" on="1"/>
        <pt x="319" y="512" on="0"/>
        <pt x="393" y="473" on="0"/>
        <pt x="416" y="441" on="1"/>
      </contour>
    </TTGlyph>
    <TTGlyph name="cedilla" xMin="112" yMin="-236" xMax="358" yMax="15">
      <contour>
        <pt x="277" y="15" on="1"/>
        <pt x="265" y="-37" on="1"/>
        <pt x="304" y="-41" on="0"/>
        <pt x="358" y="-84" on="0"/>
        <pt x="358" y="-126" on="1"/>
        <pt x="358" y="-155" on="0"/>
        <pt x="337" y="-197" on="0"/>
        <pt x="301" y="-224" on="0"/>
        <pt x="254" y="-236" on="0"/>
        <pt x="227" y="-236" on="1"/>
        <pt x="195" y="-236" on="0"/>
        <pt x="135" y="-223" on="0"/>
        <pt x="112" y="-212" on="1"/>
        <pt x="135" y="-137" on="1"/>
        <pt x="149" y="-143" on="0"/>
        <pt x="185" y="-151" on="0"/>
        <pt x="201" y="-151" on="1"/>
        <pt x="246" y="-151" on="0"/>
        <pt x="246" y="-127" on="1"/>
        <pt x="246" y="-117" on="0"/>
        <pt x="228" y="-102" on="0"/>
        <pt x="201" y="-92" on="0"/>
        <pt x="168" y="-87" on="0"/>
        <pt x="152" y="-87" on="1"/>
        <pt x="178" y="15" on="1"/>
      </contour>
    </TTGlyph>
    <TTGlyph name="cent" xMin="47" yMin="-42" xMax="478" yMax="654">
      <contour>
        <pt x="246" y="-42" on="1"/>
        <pt x="246" y="74" on="1"/>
        <pt x="193" y="79" on="0"/>
        <pt x="118" y="116" on="0"/>
        <pt x="70" y="177" on="0"/>
        <pt x="47" y="259" on="0"/>
        <pt x="47" y="308" on="1"/>
        <pt x="47" y="365" on="0"/>
        <pt x="76" y="456" on="0"/>
        <pt x="129" y="521" on="0"/>
        <pt x="202" y="560" on="0"/>
        <pt x="246" y="567" on="1"/>
        <pt x="246" y="654" on="1"/>
        <pt x="361" y="654" on="1"/>
        <pt x="361" y="566" on="1"/>
        <pt x="394" y="560" on="0"/>
        <pt x="454" y="529" on="0"/>
        <pt x="478" y="499" on="1"/>
        <pt x="406" y="428" on="1"/>
        <pt x="384" y="451" on="0"/>
        <pt x="361" y="460" on="1"/>
        <pt x="361" y="178" on="1"/>
        <pt x="389" y="181" on="0"/>
        <pt x="426" y="192" on="0"/>
        <pt x="440" y="197" on="1"/>
        <pt x="474" y="108" on="1"/>
        <pt x="460" y="100" on="0"/>
        <pt x="405" y="82" on="0"/>
        <pt x="361" y="77" on="1"/>
        <pt x="361" y="-42" on="1"/>
      </contour>
      <contour>
        <pt x="199" y="267" on="0"/>
        <pt x="224" y="206" on="0"/>
        <pt x="246" y="192" on="1"/>
        <pt x="246" y="456" on="1"/>
        <pt x="225" y="445" on="0"/>
        <pt x="199" y="385" on="0"/>
        <pt x="199" y="325" on="1"/>
      </contour>
    </TTGlyph>
    <TTGlyph name="circumflex" xMin="42" yMin="557" xMax="431" yMax="828">
      <contour>
        <pt x="42" y="631" on="1"/>
        <pt x="237" y="828" on="1"/>
        <pt x="431" y="631" on="1"/>
        <pt x="370" y="557" on="1"/>
        <pt x="350" y="567" on="0"/>
        <pt x="281" y="606" on="0"/>
        <pt x="237" y="639" on="1"/>
        <pt x="193" y="606" on="0"/>
        <pt x="124" y="568" on="0"/>
        <pt x="103" y="557" on="1"/>
      </contour>
    </TTGlyph>
    <TTGlyph name="colon" xMin="67" yMin="-10" xMax="244" yMax="512">
      <contour>
        <pt x="199" y="169" on="0"/>
        <pt x="244" y="119" on="0"/>
        <pt x="244" y="81" on="1"/>
        <pt x="244" y="43" on="0"/>
        <pt x="199" y="-10" on="0"/>
        <pt x="155" y="-10" on="1"/>
        <pt x="113" y="-10" on="0"/>
        <pt x="67" y="42" on="0"/>
        <pt x="67" y="77" on="1"/>
        <pt x="67" y="116" on="0"/>
        <pt x="113" y="169" on="0"/>
        <pt x="157" y="169" on="1"/>
      </contour>
      <contour>
        <pt x="199" y="512" on="0"/>
        <pt x="244" y="462" on="0"/>
        <pt x="244" y="424" on="1"/>
        <pt x="244" y="385" on="0"/>
        <pt x="199" y="332" on="0"/>
        <pt x="155" y="332" on="1"/>
        <pt x="113" y="332" on="0"/>
        <pt x="67" y="384" on="0"/>
        <pt x="67" y="420" on="1"/>
        <pt x="67" y="458" on="0"/>
        <pt x="113" y="512" on="0"/>
        <pt x="157" y="512" on="1"/>
      </contour>
    </TTGlyph>
    <TTGlyph name="comma" xMin="32" yMin="-175" xMax="246" yMax="141">
      <contour>
        <pt x="74" y="118" on="0"/>
        <pt x="85" y="125" on="0"/>
        <pt x="106" y="134" on="0"/>
        <pt x="140" y="141" on="0"/>
        <pt x="163" y="141" on="1"/>
        <pt x="209" y="141" on="0"/>
        <pt x="246" y="87" on="0"/>
        <pt x="246" y="50" on="1"/>
        <pt x="246" y="-14" on="0"/>
        <pt x="172" y="-133" on="0"/>
        <pt x="90" y="-175" on="1"/>
        <pt x="32" y="-96" on="1"/>
        <pt x="68" y="-70" on="0"/>
        <pt x="93" y="-11" on="0"/>
        <pt x="93" y="17" on="1"/>
        <pt x="93" y="48" on="0"/>
        <pt x="75" y="100" on="0"/>
        <pt x="73" y="117" on="1"/>
      </contour>
    </TTGlyph>
    <TTGlyph name="copyright" xMin="37" yMin="-14" xMax="744" yMax="693">
      <contour>
        <pt x="37" y="418" on="0"/>
        <pt x="90" y="547" on="0"/>
        <pt x="185" y="641" on="0"/>
        <pt x="316" y="693" on="0"/>
        <pt x="394" y="693" on="1"/>
        <pt x="472" y="693" on="0"/>
        <pt x="600" y="641" on="0"/>
        <pt x="693" y="547" on="0"/>
        <pt x="744" y="418" on="0"/>
        <pt x="744" y="340" on="1"/>
        <pt x="744" y="262" on="0"/>
        <pt x="691" y="132" on="0"/>
        <pt x="596" y="38" on="0"/>
        <pt x="465" y="-14" on="0"/>
        <pt x="387" y="-14" on="1"/>
        <pt x="309" y="-14" on="0"/>
        <pt x="181" y="38" on="0"/>
        <pt x="88" y="132" on="0"/>
        <pt x="37" y="262" on="0"/>
        <pt x="37" y="340" on="1"/>
      </contour>
      <contour>
        <pt x="146" y="292" on="0"/>
        <pt x="182" y="197" on="0"/>
        <pt x="247" y="126" on="0"/>
        <pt x="336" y="84" on="0"/>
        <pt x="390" y="84" on="1"/>
        <pt x="444" y="84" on="0"/>
        <pt x="534" y="122" on="0"/>
        <pt x="600" y="189" on="0"/>
        <pt x="636" y="281" on="0"/>
        <pt x="636" y="334" on="1"/>
        <pt x="636" y="387" on="0"/>
        <pt x="600" y="482" on="0"/>
        <pt x="535" y="554" on="0"/>
        <pt x="445" y="596" on="0"/>
        <pt x="391" y="596" on="1"/>
        <pt x="337" y="596" on="0"/>
        <pt x="247" y="558" on="0"/>
        <pt x="182" y="490" on="0"/>
        <pt x="146" y="399" on="0"/>
        <pt x="146" y="345" on="1"/>
      </contour>
      <contour>
        <pt x="455" y="419" on="1"/>
        <pt x="448" y="422" on="0"/>
        <pt x="432" y="430" on="0"/>
        <pt x="418" y="430" on="1"/>
        <pt x="395" y="430" on="0"/>
        <pt x="379" y="381" on="0"/>
        <pt x="379" y="345" on="1"/>
        <pt x="379" y="297" on="0"/>
        <pt x="408" y="258" on="0"/>
        <pt x="433" y="258" on="1"/>
        <pt x="453" y="258" on="0"/>
        <pt x="481" y="267" on="0"/>
        <pt x="487" y="270" on="1"/>
        <pt x="515" y="167" on="1"/>
        <pt x="514" y="166" on="0"/>
        <pt x="497" y="158" on="0"/>
        <pt x="466" y="149" on="0"/>
        <pt x="422" y="142" on="0"/>
        <pt x="394" y="142" on="1"/>
        <pt x="305" y="142" on="0"/>
        <pt x="226" y="245" on="0"/>
        <pt x="226" y="333" on="1"/>
        <pt x="226" y="436" on="0"/>
        <pt x="324" y="545" on="0"/>
        <pt x="405" y="545" on="1"/>
        <pt x="450" y="545" on="0"/>
        <pt x="507" y="518" on="0"/>
        <pt x="527" y="498" on="1"/>
      </contour>
    </TTGlyph>
    <TTGlyph name="currency" xMin="22" yMin="-31" xMax="599" yMax="598">
      <contour>
        <pt x="80" y="359" on="0"/>
        <pt x="119" y="418" on="1"/>
        <pt x="23" y="503" on="1"/>
        <pt x="117" y="598" on="1"/>
        <pt x="210" y="493" on="1"/>
        <pt x="255" y="514" on="0"/>
        <pt x="311" y="514" on="1"/>
        <pt x="366" y="514" on="0"/>
        <pt x="412" y="494" on="1"/>
        <pt x="504" y="598" on="1"/>
        <pt x="598" y="503" on="1"/>
        <pt x="502" y="418" on="1"/>
        <pt x="521" y="390" on="0"/>
        <pt x="542" y="322" on="0"/>
        <pt x="542" y="283" on="1"/>
        <pt x="542" y="244" on="0"/>
        <pt x="521" y="177" on="0"/>
        <pt x="502" y="148" on="1"/>
        <pt x="599" y="64" on="1"/>
        <pt x="504" y="-31" on="1"/>
        <pt x="411" y="73" on="1"/>
        <pt x="388" y="63" on="0"/>
        <pt x="337" y="52" on="0"/>
        <pt x="309" y="52" on="1"/>
        <pt x="282" y="52" on="0"/>
        <pt x="232" y="63" on="0"/>
        <pt x="210" y="73" on="1"/>
        <pt x="117" y="-31" on="1"/>
        <pt x="22" y="64" on="1"/>
        <pt x="120" y="149" on="1"/>
        <pt x="80" y="207" on="0"/>
        <pt x="80" y="283" on="1"/>
      </contour>
      <contour>
        <pt x="196" y="261" on="0"/>
        <pt x="213" y="215" on="0"/>
        <pt x="243" y="181" on="0"/>
        <pt x="285" y="161" on="0"/>
        <pt x="310" y="161" on="1"/>
        <pt x="335" y="161" on="0"/>
        <pt x="378" y="179" on="0"/>
        <pt x="409" y="212" on="0"/>
        <pt x="426" y="256" on="0"/>
        <pt x="426" y="282" on="1"/>
        <pt x="426" y="308" on="0"/>
        <pt x="409" y="354" on="0"/>
        <pt x="378" y="388" on="0"/>
        <pt x="335" y="408" on="0"/>
        <pt x="310" y="408" on="1"/>
        <pt x="260" y="408" on="0"/>
        <pt x="196" y="341" on="0"/>
        <pt x="196" y="288" on="1"/>
      </contour>
    </TTGlyph>
    <TTGlyph name="d" xMin="27" yMin="-8" xMax="532" yMax="724">
      <contour>
        <pt x="405" y="-8" on="1"/>
        <pt x="399" y="-1" on="1"/>
        <pt x="393" y="5" on="0"/>
        <pt x="377" y="31" on="0"/>
        <pt x="361" y="68" on="0"/>
        <pt x="357" y="92" on="1"/>
        <pt x="340" y="45" on="0"/>
        <pt x="274" y="-6" on="0"/>
        <pt x="220" y="-6" on="1"/>
        <pt x="171" y="-6" on="0"/>
        <pt x="98" y="30" on="0"/>
        <pt x="50" y="95" on="0"/>
        <pt x="27" y="187" on="0"/>
        <pt x="27" y="243" on="1"/>
        <pt x="27" y="300" on="0"/>
        <pt x="64" y="398" on="0"/>
        <pt x="130" y="469" on="0"/>
        <pt x="222" y="509" on="0"/>
        <pt x="278" y="509" on="1"/>
        <pt x="287" y="509" on="0"/>
        <pt x="308" y="507" on="0"/>
        <pt x="319" y="506" on="1"/>
        <pt x="319" y="724" on="1"/>
        <pt x="477" y="698" on="1"/>
        <pt x="477" y="241" on="1"/>
        <pt x="477" y="182" on="0"/>
        <pt x="494" y="102" on="0"/>
        <pt x="514" y="53" on="0"/>
        <pt x="523" y="43" on="1"/>
        <pt x="532" y="32" on="1"/>
      </contour>
      <contour>
        <pt x="261" y="110" on="0"/>
        <pt x="288" y="136" on="0"/>
        <pt x="308" y="180" on="0"/>
        <pt x="319" y="237" on="0"/>
        <pt x="319" y="269" on="1"/>
        <pt x="319" y="385" on="1"/>
        <pt x="312" y="388" on="0"/>
        <pt x="287" y="393" on="0"/>
        <pt x="278" y="393" on="1"/>
        <pt x="254" y="393" on="0"/>
        <pt x="222" y="372" on="0"/>
        <pt x="203" y="335" on="0"/>
        <pt x="195" y="283" on="0"/>
        <pt x="195" y="253" on="1"/>
        <pt x="195" y="225" on="0"/>
        <pt x="197" y="174" on="0"/>
        <pt x="208" y="134" on="0"/>
        <pt x="228" y="110" on="0"/>
        <pt x="246" y="110" on="1"/>
      </contour>
    </TTGlyph>
    <TTGlyph name="degree" xMin="32" yMin="471" xMax="279" yMax="721">
      <contour>
        <pt x="32" y="653" on="0"/>
        <pt x="103" y="721" on="0"/>
        <pt x="157" y="721" on="1"/>
        <pt x="214" y="721" on="0"/>
        <pt x="279" y="650" on="0"/>
        <pt x="279" y="596" on="1"/>
        <pt x="279" y="568" on="0"/>
        <pt x="260" y="522" on="0"/>
        <pt x="227" y="489" on="0"/>
        <pt x="181" y="471" on="0"/>
        <pt x="154" y="471" on="1"/>
        <pt x="97" y="471" on="0"/>
        <pt x="32" y="542" on="0"/>
        <pt x="32" y="596" on="1"/>
      </contour>
      <contour>
        <pt x="116" y="573" on="0"/>
        <pt x="140" y="548" on="0"/>
        <pt x="155" y="548" on="1"/>
        <pt x="174" y="548" on="0"/>
        <pt x="196" y="573" on="0"/>
        <pt x="196" y="596" on="1"/>
        <pt x="196" y="618" on="0"/>
        <pt x="174" y="643" on="0"/>
        <pt x="155" y="643" on="1"/>
        <pt x="137" y="643" on="0"/>
        <pt x="116" y="620" on="0"/>
        <pt x="116" y="597" on="1"/>
      </contour>
    </TTGlyph>
    <TTGlyph name="dieresis" xMin="61" yMin="571" xMax="423" yMax="722">
      <contour>
        <pt x="208" y="615" on="0"/>
        <pt x="170" y="571" on="0"/>
        <pt x="133" y="571" on="1"/>
        <pt x="98" y="571" on="0"/>
        <pt x="61" y="614" on="0"/>
        <pt x="61" y="644" on="1"/>
        <pt x="61" y="677" on="0"/>
        <pt x="98" y="722" on="0"/>
        <pt x="136" y="722" on="1"/>
        <pt x="171" y="722" on="0"/>
        <pt x="208" y="678" on="0"/>
        <pt x="208" y="648" on="1"/>
      </contour>
      <contour>
        <pt x="423" y="615" on="0"/>
        <pt x="385" y="571" on="0"/>
        <pt x="348" y="571" on="1"/>
        <pt x="313" y="571" on="0"/>
        <pt x="276" y="614" on="0"/>
        <pt x="276" y="644" on="1"/>
        <pt x="276" y="677" on="0"/>
        <pt x="313" y="722" on="0"/>
        <pt x="351" y="722" on="1"/>
        <pt x="386" y="722" on="0"/>
        <pt x="423" y="678" on="0"/>
        <pt x="423" y="648" on="1"/>
      </contour>
    </TTGlyph>
    <TTGlyph name="divide" xMin="52" yMin="64" xMax="452" yMax="535">
      <contour>
        <pt x="318" y="435" on="0"/>
        <pt x="282" y="394" on="0"/>
        <pt x="247" y="394" on="1"/>
        <pt x="215" y="394" on="0"/>
        <pt x="180" y="434" on="0"/>
        <pt x="180" y="463" on="1"/>
        <pt x="180" y="494" on="0"/>
        <pt x="216" y="535" on="0"/>
        <pt x="251" y="535" on="1"/>
        <pt x="283" y="535" on="0"/>
        <pt x="318" y="497" on="0"/>
        <pt x="318" y="466" on="1"/>
      </contour>
      <contour>
        <pt x="52" y="358" on="1"/>
        <pt x="452" y="358" on="1"/>
        <pt x="452" y="242" on="1"/>
        <pt x="52" y="242" on="1"/>
      </contour>
      <contour>
        <pt x="318" y="106" on="0"/>
        <pt x="282" y="64" on="0"/>
        <pt x="247" y="64" on="1"/>
        <pt x="215" y="64" on="0"/>
        <pt x="180" y="105" on="0"/>
        <pt x="180" y="133" on="1"/>
        <pt x="180" y="164" on="0"/>
        <pt x="216" y="206" on="0"/>
        <pt x="251" y="206" on="1"/>
        <pt x="283" y="206" on="0"/>
        <pt x="318" y="167" on="0"/>
        <pt x="318" y="136" on="1"/>
      </contour>
    </TTGlyph>
    <TTGlyph name="dollar" xMin="42" yMin="-83" xMax="506" yMax="694">
      <contour>
        <pt x="213" y="16" on="1"/>
        <pt x="156" y="25" on="0"/>
        <pt x="69" y="64" on="0"/>
        <pt x="42" y="81" on="1"/>
        <pt x="96" y="198" on="1"/>
        <pt x="105" y="192" on="0"/>
        <pt x="144" y="169" on="0"/>
        <pt x="191" y="147" on="0"/>
        <pt x="242" y="130" on="0"/>
        <pt x="263" y="130" on="1"/>
        <pt x="301" y="130" on="0"/>
        <pt x="335" y="162" on="0"/>
        <pt x="335" y="185" on="1"/>
        <pt x="335" y="214" on="0"/>
        <pt x="287" y="242" on="0"/>
        <pt x="242" y="259" on="1"/>
        <pt x="156" y="291" on="0"/>
        <pt x="66" y="382" on="0"/>
        <pt x="66" y="456" on="1"/>
        <pt x="66" y="486" on="0"/>
        <pt x="88" y="536" on="0"/>
        <pt x="128" y="577" on="0"/>
        <pt x="181" y="605" on="0"/>
        <pt x="213" y="612" on="1"/>
        <pt x="213" y="694" on="1"/>
        <pt x="340" y="694" on="1"/>
        <pt x="340" y="614" on="1"/>
        <pt x="393" y="606" on="0"/>
        <pt x="478" y="572" on="0"/>
        <pt x="504" y="555" on="1"/>
        <pt x="448" y="447" on="1"/>
        <pt x="434" y="454" on="0"/>
        <pt x="399" y="473" on="0"/>
        <pt x="359" y="489" on="0"/>
        <pt x="317" y="500" on="0"/>
        <pt x="297" y="500" on="1"/>
        <pt x="268" y="500" on="0"/>
        <pt x="237" y="481" on="0"/>
        <pt x="237" y="461" on="1"/>
        <pt x="237" y="437" on="0"/>
        <pt x="291" y="402" on="0"/>
        <pt x="354" y="378" on="1"/>
        <pt x="433" y="347" on="0"/>
        <pt x="506" y="261" on="0"/>
        <pt x="506" y="193" on="1"/>
        <pt x="506" y="163" on="0"/>
        <pt x="484" y="105" on="0"/>
        <pt x="442" y="57" on="0"/>
        <pt x="380" y="22" on="0"/>
        <pt x="340" y="15" on="1"/>
        <pt x="340" y="-83" on="1"/>
        <pt x="213" y="-83" on="1"/>
      </contour>
    </TTGlyph>
    <TTGlyph name="dotlessi" xMin="42" yMin="-4" xMax="268" yMax="502">
      <contour>
        <pt x="112" y="-4" on="0"/>
        <pt x="42" y="55" on="0"/>
        <pt x="42" y="109" on="1"/>
        <pt x="42" y="502" on="1"/>
        <pt x="200" y="502" on="1"/>
        <pt x="200" y="154" on="1"/>
        <pt x="200" y="131" on="0"/>
        <pt x="214" y="115" on="0"/>
        <pt x="228" y="115" on="1"/>
        <pt x="236" y="115" on="0"/>
        <pt x="252" y="118" on="0"/>
        <pt x="254" y="119" on="1"/>
        <pt x="268" y="20" on="1"/>
        <pt x="267" y="19" on="0"/>
        <pt x="251" y="12" on="0"/>
        <pt x="225" y="3" on="0"/>
        <pt x="189" y="-4" on="0"/>
        <pt x="169" y="-4" on="1"/>
      </contour>
    </TTGlyph>
    <TTGlyph name="e" xMin="27" yMin="-9" xMax="456" yMax="512">
      <contour>
        <pt x="27" y="304" on="0"/>
        <pt x="66" y="407" on="0"/>
        <pt x="135" y="476" on="0"/>
        <pt x="227" y="512" on="0"/>
        <pt x="281" y="512" on="1"/>
        <pt x="328" y="512" on="0"/>
        <pt x="394" y="489" on="0"/>
        <pt x="436" y="448" on="0"/>
        <pt x="456" y="393" on="0"/>
        <pt x="456" y="361" on="1"/>
        <pt x="456" y="325" on="0"/>
        <pt x="420" y="261" on="0"/>
        <pt x="353" y="212" on="0"/>
        <pt x="258" y="180" on="0"/>
        <pt x="198" y="175" on="1"/>
        <pt x="205" y="145" on="0"/>
        <pt x="242" y="108" on="0"/>
        <pt x="280" y="108" on="1"/>
        <pt x="302" y="108" on="0"/>
        <pt x="352" y="118" on="0"/>
        <pt x="373" y="124" on="1"/>
        <pt x="398" y="131" on="0"/>
        <pt x="422" y="140" on="1"/>
        <pt x="452" y="36" on="1"/>
        <pt x="425" y="23" on="0"/>
        <pt x="393" y="13" on="1"/>
        <pt x="366" y="5" on="0"/>
        <pt x="295" y="-9" on="0"/>
        <pt x="255" y="-9" on="1"/>
        <pt x="194" y="-9" on="0"/>
        <pt x="107" y="27" on="0"/>
        <pt x="52" y="91" on="0"/>
        <pt x="27" y="182" on="0"/>
        <pt x="27" y="237" on="1"/>
      </contour>
      <contour>
        <pt x="242" y="399" on="0"/>
        <pt x="215" y="377" on="0"/>
        <pt x="199" y="341" on="0"/>
        <pt x="191" y="297" on="0"/>
        <pt x="190" y="276" on="1"/>
        <pt x="220" y="277" on="0"/>
        <pt x="261" y="293" on="0"/>
        <pt x="287" y="317" on="0"/>
        <pt x="299" y="345" on="0"/>
        <pt x="299" y="357" on="1"/>
        <pt x="299" y="376" on="0"/>
        <pt x="278" y="399" on="0"/>
        <pt x="261" y="399" on="1"/>
      </contour>
    </TTGlyph>
    <TTGlyph name="eacute" xMin="27" yMin="-9" xMax="482" yMax="842">
      <contour>
        <pt x="27" y="304" on="0"/>
        <pt x="66" y="407" on="0"/>
        <pt x="135" y="476" on="0"/>
        <pt x="227" y="512" on="0"/>
        <pt x="281" y="512" on="1"/>
        <pt x="328" y="512" on="0"/>
        <pt x="394" y="489" on="0"/>
        <pt x="436" y="448" on="0"/>
        <pt x="456" y="393" on="0"/>
        <pt x="456" y="361" on="1"/>
        <pt x="456" y="325" on="0"/>
        <pt x="420" y="261" on="0"/>
        <pt x="353" y="212" on="0"/>
        <pt x="258" y="180" on="0"/>
        <pt x="198" y="175" on="1"/>
        <pt x="205" y="145" on="0"/>
        <pt x="242" y="108" on="0"/>
        <pt x="280" y="108" on="1"/>
        <pt x="302" y="108" on="0"/>
        <pt x="352" y="118" on="0"/>
        <pt x="373" y="124" on="1"/>
        <pt x="398" y="131" on="0"/>
        <pt x="422" y="140" on="1"/>
        <pt x="452" y="36" on="1"/>
        <pt x="425" y="23" on="0"/>
        <pt x="393" y="13" on="1"/>
        <pt x="366" y="5" on="0"/>
        <pt x="295" y="-9" on="0"/>
        <pt x="255" y="-9" on="1"/>
        <pt x="194" y="-9" on="0"/>
        <pt x="107" y="27" on="0"/>
        <pt x="52" y="91" on="0"/>
        <pt x="27" y="182" on="0"/>
        <pt x="27" y="237" on="1"/>
      </contour>
      <contour>
        <pt x="242" y="399" on="0"/>
        <pt x="215" y="377" on="0"/>
        <pt x="199" y="341" on="0"/>
        <pt x="191" y="297" on="0"/>
        <pt x="190" y="276" on="1"/>
        <pt x="220" y="277" on="0"/>
        <pt x="261" y="293" on="0"/>
        <pt x="287" y="317" on="0"/>
        <pt x="299" y="345" on="0"/>
        <pt x="299" y="357" on="1"/>
        <pt x="299" y="376" on="0"/>
        <pt x="278" y="399" on="0"/>
        <pt x="261" y="399" on="1"/>
      </contour>
      <contour>
        <pt x="196" y="628" on="1"/>
        <pt x="378" y="842" on="1"/>
        <pt x="482" y="743" on="1"/>
        <pt x="450" y="704" on="0"/>
        <pt x="374" y="636" on="0"/>
        <pt x="341" y="611" on="1"/>
        <pt x="302" y="581" on="0"/>
        <pt x="263" y="557" on="1"/>
      </contour>
    </TTGlyph>
    <TTGlyph name="ecircumflex" xMin="27" yMin="-9" xMax="456" yMax="828">
      <contour>
        <pt x="27" y="304" on="0"/>
        <pt x="66" y="407" on="0"/>
        <pt x="135" y="476" on="0"/>
        <pt x="227" y="512" on="0"/>
        <pt x="281" y="512" on="1"/>
        <pt x="328" y="512" on="0"/>
        <pt x="394" y="489" on="0"/>
        <pt x="436" y="448" on="0"/>
        <pt x="456" y="393" on="0"/>
        <pt x="456" y="361" on="1"/>
        <pt x="456" y="325" on="0"/>
        <pt x="420" y="261" on="0"/>
        <pt x="353" y="212" on="0"/>
        <pt x="258" y="180" on="0"/>
        <pt x="198" y="175" on="1"/>
        <pt x="205" y="145" on="0"/>
        <pt x="242" y="108" on="0"/>
        <pt x="280" y="108" on="1"/>
        <pt x="302" y="108" on="0"/>
        <pt x="352" y="118" on="0"/>
        <pt x="373" y="124" on="1"/>
        <pt x="398" y="131" on="0"/>
        <pt x="422" y="140" on="1"/>
        <pt x="452" y="36" on="1"/>
        <pt x="425" y="23" on="0"/>
        <pt x="393" y="13" on="1"/>
        <pt x="366" y="5" on="0"/>
        <pt x="295" y="-9" on="0"/>
        <pt x="255" y="-9" on="1"/>
        <pt x="194" y="-9" on="0"/>
        <pt x="107" y="27" on="0"/>
        <pt x="52" y="91" on="0"/>
        <pt x="27" y="182" on="0"/>
        <pt x="27" y="237" on="1"/>
      </contour>
      <contour>
        <pt x="242" y="399" on="0"/>
        <pt x="215" y="377" on="0"/>
        <pt x="199" y="341" on="0"/>
        <pt x="191" y="297" on="0"/>
        <pt x="190" y="276" on="1"/>
        <pt x="220" y="277" on="0"/>
        <pt x="261" y="293" on="0"/>
        <pt x="287" y="317" on="0"/>
        <pt x="299" y="345" on="0"/>
        <pt x="299" y="357" on="1"/>
        <pt x="299" y="376" on="0"/>
        <pt x="278" y="399" on="0"/>
        <pt x="261" y="399" on="1"/>
      </contour>
      <contour>
        <pt x="65" y="631" on="1"/>
        <pt x="260" y="828" on="1"/>
        <pt x="454" y="631" on="1"/>
        <pt x="393" y="557" on="1"/>
        <pt x="373" y="567" on="0"/>
        <pt x="304" y="606" on="0"/>
        <pt x="260" y="639" on="1"/>
        <pt x="216" y="606" on="0"/>
        <pt x="147" y="568" on="0"/>
        <pt x="126" y="557" on="1"/>
      </contour>
    </TTGlyph>
    <TTGlyph name="edieresis" xMin="27" yMin="-9" xMax="456" yMax="741">
      <contour>
        <pt x="27" y="304" on="0"/>
        <pt x="66" y="407" on="0"/>
        <pt x="135" y="476" on="0"/>
        <pt x="227" y="512" on="0"/>
        <pt x="281" y="512" on="1"/>
        <pt x="328" y="512" on="0"/>
        <pt x="394" y="489" on="0"/>
        <pt x="436" y="448" on="0"/>
        <pt x="456" y="393" on="0"/>
        <pt x="456" y="361" on="1"/>
        <pt x="456" y="325" on="0"/>
        <pt x="420" y="261" on="0"/>
        <pt x="353" y="212" on="0"/>
        <pt x="258" y="180" on="0"/>
        <pt x="198" y="175" on="1"/>
        <pt x="205" y="145" on="0"/>
        <pt x="242" y="108" on="0"/>
        <pt x="280" y="108" on="1"/>
        <pt x="302" y="108" on="0"/>
        <pt x="352" y="118" on="0"/>
        <pt x="373" y="124" on="1"/>
        <pt x="398" y="131" on="0"/>
        <pt x="422" y="140" on="1"/>
        <pt x="452" y="36" on="1"/>
        <pt x="425" y="23" on="0"/>
        <pt x="393" y="13" on="1"/>
        <pt x="366" y="5" on="0"/>
        <pt x="295" y="-9" on="0"/>
        <pt x="255" y="-9" on="1"/>
        <pt x="194" y="-9" on="0"/>
        <pt x="107" y="27" on="0"/>
        <pt x="52" y="91" on="0"/>
        <pt x="27" y="182" on="0"/>
        <pt x="27" y="237" on="1"/>
      </contour>
      <contour>
        <pt x="242" y="399" on="0"/>
        <pt x="215" y="377" on="0"/>
        <pt x="199" y="341" on="0"/>
        <pt x="191" y="297" on="0"/>
        <pt x="190" y="276" on="1"/>
        <pt x="220" y="277" on="0"/>
        <pt x="261" y="293" on="0"/>
        <pt x="287" y="317" on="0"/>
        <pt x="299" y="345" on="0"/>
        <pt x="299" y="357" on="1"/>
        <pt x="299" y="376" on="0"/>
        <pt x="278" y="399" on="0"/>
        <pt x="261" y="399" on="1"/>
      </contour>
      <contour>
        <pt x="231" y="634" on="0"/>
        <pt x="193" y="590" on="0"/>
        <pt x="156" y="590" on="1"/>
        <pt x="121" y="590" on="0"/>
        <pt x="84" y="633" on="0"/>
        <pt x="84" y="663" on="1"/>
        <pt x="84" y="696" on="0"/>
        <pt x="121" y="741" on="0"/>
        <pt x="159" y="741" on="1"/>
        <pt x="194" y="741" on="0"/>
        <pt x="231" y="697" on="0"/>
        <pt x="231" y="667" on="1"/>
      </contour>
      <contour>
        <pt x="446" y="634" on="0"/>
        <pt x="408" y="590" on="0"/>
        <pt x="371" y="590" on="1"/>
        <pt x="336" y="590" on="0"/>
        <pt x="299" y="633" on="0"/>
        <pt x="299" y="663" on="1"/>
        <pt x="299" y="696" on="0"/>
        <pt x="336" y="741" on="0"/>
        <pt x="374" y="741" on="1"/>
        <pt x="409" y="741" on="0"/>
        <pt x="446" y="697" on="0"/>
        <pt x="446" y="667" on="1"/>
      </contour>
    </TTGlyph>
    <TTGlyph name="egrave" xMin="27" yMin="-9" xMax="456" yMax="842">
      <contour>
        <pt x="27" y="304" on="0"/>
        <pt x="66" y="407" on="0"/>
        <pt x="135" y="476" on="0"/>
        <pt x="227" y="512" on="0"/>
        <pt x="281" y="512" on="1"/>
        <pt x="328" y="512" on="0"/>
        <pt x="394" y="489" on="0"/>
        <pt x="436" y="448" on="0"/>
        <pt x="456" y="393" on="0"/>
        <pt x="456" y="361" on="1"/>
        <pt x="456" y="325" on="0"/>
        <pt x="420" y="261" on="0"/>
        <pt x="353" y="212" on="0"/>
        <pt x="258" y="180" on="0"/>
        <pt x="198" y="175" on="1"/>
        <pt x="205" y="145" on="0"/>
        <pt x="242" y="108" on="0"/>
        <pt x="280" y="108" on="1"/>
        <pt x="302" y="108" on="0"/>
        <pt x="352" y="118" on="0"/>
        <pt x="373" y="124" on="1"/>
        <pt x="398" y="131" on="0"/>
        <pt x="422" y="140" on="1"/>
        <pt x="452" y="36" on="1"/>
        <pt x="425" y="23" on="0"/>
        <pt x="393" y="13" on="1"/>
        <pt x="366" y="5" on="0"/>
        <pt x="295" y="-9" on="0"/>
        <pt x="255" y="-9" on="1"/>
        <pt x="194" y="-9" on="0"/>
        <pt x="107" y="27" on="0"/>
        <pt x="52" y="91" on="0"/>
        <pt x="27" y="182" on="0"/>
        <pt x="27" y="237" on="1"/>
      </contour>
      <contour>
        <pt x="242" y="399" on="0"/>
        <pt x="215" y="377" on="0"/>
        <pt x="199" y="341" on="0"/>
        <pt x="191" y="297" on="0"/>
        <pt x="190" y="276" on="1"/>
        <pt x="220" y="277" on="0"/>
        <pt x="261" y="293" on="0"/>
        <pt x="287" y="317" on="0"/>
        <pt x="299" y="345" on="0"/>
        <pt x="299" y="357" on="1"/>
        <pt x="299" y="376" on="0"/>
        <pt x="278" y="399" on="0"/>
        <pt x="261" y="399" on="1"/>
      </contour>
      <contour>
        <pt x="266" y="557" on="1"/>
        <pt x="262" y="560" on="0"/>
        <pt x="216" y="590" on="0"/>
        <pt x="151" y="638" on="0"/>
        <pt x="77" y="704" on="0"/>
        <pt x="46" y="743" on="1"/>
        <pt x="150" y="842" on="1"/>
        <pt x="333" y="628" on="1"/>
      </contour>
    </TTGlyph>
    <TTGlyph name="eight" xMin="42" yMin="-9" xMax="512" yMax="645">
      <contour>
        <pt x="277" y="-9" on="1"/>
        <pt x="234" y="-9" on="0"/>
        <pt x="150" y="12" on="0"/>
        <pt x="83" y="55" on="0"/>
        <pt x="42" y="122" on="0"/>
        <pt x="42" y="167" on="1"/>
        <pt x="42" y="219" on="0"/>
        <pt x="105" y="303" on="0"/>
        <pt x="166" y="340" on="1"/>
        <pt x="121" y="363" on="0"/>
        <pt x="62" y="433" on="0"/>
        <pt x="62" y="483" on="1"/>
        <pt x="62" y="525" on="0"/>
        <pt x="103" y="587" on="0"/>
        <pt x="167" y="626" on="0"/>
        <pt x="245" y="645" on="0"/>
        <pt x="282" y="645" on="1"/>
        <pt x="320" y="645" on="0"/>
        <pt x="394" y="626" on="0"/>
        <pt x="452" y="587" on="0"/>
        <pt x="488" y="527" on="0"/>
        <pt x="488" y="487" on="1"/>
        <pt x="488" y="441" on="0"/>
        <pt x="436" y="372" on="0"/>
        <pt x="390" y="345" on="1"/>
        <pt x="452" y="312" on="0"/>
        <pt x="512" y="222" on="0"/>
        <pt x="512" y="173" on="1"/>
        <pt x="512" y="127" on="0"/>
        <pt x="472" y="58" on="0"/>
        <pt x="407" y="13" on="0"/>
        <pt x="322" y="-9" on="0"/>
      </contour>
      <contour>
        <pt x="210" y="161" on="1"/>
        <pt x="210" y="130" on="0"/>
        <pt x="250" y="95" on="0"/>
        <pt x="282" y="95" on="1"/>
        <pt x="310" y="95" on="0"/>
        <pt x="342" y="133" on="0"/>
        <pt x="342" y="159" on="1"/>
        <pt x="342" y="188" on="0"/>
        <pt x="305" y="241" on="0"/>
        <pt x="278" y="264" on="1"/>
        <pt x="210" y="219" on="0"/>
      </contour>
      <contour>
        <pt x="326" y="492" on="1"/>
        <pt x="326" y="520" on="0"/>
        <pt x="293" y="541" on="0"/>
        <pt x="276" y="541" on="1"/>
        <pt x="259" y="541" on="0"/>
        <pt x="223" y="520" on="0"/>
        <pt x="223" y="492" on="1"/>
        <pt x="223" y="467" on="0"/>
        <pt x="252" y="424" on="0"/>
        <pt x="278" y="408" on="1"/>
        <pt x="326" y="441" on="0"/>
      </contour>
    </TTGlyph>
    <TTGlyph name="emdash" xMin="0" yMin="261" xMax="698" yMax="372">
      <contour>
        <pt x="0" y="372" on="1"/>
        <pt x="698" y="372" on="1"/>
        <pt x="698" y="261" on="1"/>
        <pt x="0" y="261" on="1"/>
      </contour>
    </TTGlyph>
    <TTGlyph name="endash" xMin="0" yMin="261" xMax="500" yMax="372">
      <contour>
        <pt x="0" y="372" on="1"/>
        <pt x="500" y="372" on="1"/>
        <pt x="500" y="261" on="1"/>
        <pt x="0" y="261" on="1"/>
      </contour>
    </TTGlyph>
    <TTGlyph name="equal" xMin="62" yMin="155" xMax="433" yMax="445">
      <contour>
        <pt x="62" y="445" on="1"/>
        <pt x="433" y="445" on="1"/>
        <pt x="433" y="329" on="1"/>
        <pt x="62" y="329" on="1"/>
      </contour>
      <contour>
        <pt x="62" y="271" on="1"/>
        <pt x="433" y="271" on="1"/>
        <pt x="433" y="155" on="1"/>
        <pt x="62" y="155" on="1"/>
      </contour>
    </TTGlyph>
    <TTGlyph name="eth" xMin="27" yMin="-10" xMax="494" yMax="752">
      <contour>
        <pt x="492" y="203" on="0"/>
        <pt x="463" y="103" on="0"/>
        <pt x="404" y="31" on="0"/>
        <pt x="315" y="-10" on="0"/>
        <pt x="256" y="-10" on="1"/>
        <pt x="196" y="-10" on="0"/>
        <pt x="109" y="26" on="0"/>
        <pt x="54" y="92" on="0"/>
        <pt x="27" y="186" on="0"/>
        <pt x="27" y="244" on="1"/>
        <pt x="27" y="300" on="0"/>
        <pt x="57" y="396" on="0"/>
        <pt x="114" y="466" on="0"/>
        <pt x="199" y="506" on="0"/>
        <pt x="254" y="506" on="1"/>
        <pt x="275" y="506" on="0"/>
        <pt x="311" y="497" on="0"/>
        <pt x="326" y="490" on="1"/>
        <pt x="321" y="507" on="0"/>
        <pt x="308" y="537" on="0"/>
        <pt x="301" y="551" on="1"/>
        <pt x="201" y="523" on="1"/>
        <pt x="178" y="613" on="1"/>
        <pt x="235" y="623" on="1"/>
        <pt x="184" y="659" on="1"/>
        <pt x="261" y="752" on="1"/>
        <pt x="294" y="732" on="0"/>
        <pt x="348" y="683" on="0"/>
        <pt x="371" y="656" on="1"/>
        <pt x="471" y="686" on="1"/>
        <pt x="494" y="596" on="1"/>
        <pt x="422" y="581" on="1"/>
        <pt x="460" y="511" on="0"/>
        <pt x="492" y="350" on="0"/>
        <pt x="492" y="263" on="1"/>
      </contour>
      <contour>
        <pt x="237" y="388" on="0"/>
        <pt x="213" y="368" on="0"/>
        <pt x="200" y="332" on="0"/>
        <pt x="195" y="283" on="0"/>
        <pt x="195" y="255" on="1"/>
        <pt x="195" y="225" on="0"/>
        <pt x="201" y="172" on="0"/>
        <pt x="216" y="132" on="0"/>
        <pt x="244" y="109" on="0"/>
        <pt x="265" y="109" on="1"/>
        <pt x="283" y="109" on="0"/>
        <pt x="307" y="131" on="0"/>
        <pt x="320" y="168" on="0"/>
        <pt x="325" y="218" on="0"/>
        <pt x="325" y="245" on="1"/>
        <pt x="325" y="275" on="0"/>
        <pt x="319" y="327" on="0"/>
        <pt x="304" y="366" on="0"/>
        <pt x="276" y="388" on="0"/>
        <pt x="255" y="388" on="1"/>
      </contour>
    </TTGlyph>
    <TTGlyph name="exclam" xMin="77" yMin="-10" xMax="271" yMax="677">
      <contour>
        <pt x="209" y="169" on="0"/>
        <pt x="254" y="119" on="0"/>
        <pt x="254" y="81" on="1"/>
        <pt x="254" y="43" on="0"/>
        <pt x="209" y="-10" on="0"/>
        <pt x="165" y="-10" on="1"/>
        <pt x="123" y="-10" on="0"/>
        <pt x="77" y="42" on="0"/>
        <pt x="77" y="77" on="1"/>
        <pt x="77" y="116" on="0"/>
        <pt x="123" y="169" on="0"/>
        <pt x="167" y="169" on="1"/>
      </contour>
      <contour>
        <pt x="97" y="677" on="1"/>
        <pt x="271" y="677" on="1"/>
        <pt x="242" y="220" on="1"/>
        <pt x="97" y="220" on="1"/>
      </contour>
    </TTGlyph>
    <TTGlyph name="exclamdown" xMin="23" yMin="-182" xMax="217" yMax="505">
      <contour>
        <pt x="113" y="326" on="1"/>
        <pt x="69" y="326" on="0"/>
        <pt x="23" y="379" on="0"/>
        <pt x="23" y="418" on="1"/>
        <pt x="23" y="453" on="0"/>
        <pt x="69" y="505" on="0"/>
        <pt x="111" y="505" on="1"/>
        <pt x="155" y="505" on="0"/>
        <pt x="200" y="452" on="0"/>
        <pt x="200" y="414" on="1"/>
        <pt x="200" y="376" on="0"/>
        <pt x="155" y="326" on="0"/>
      </contour>
      <contour>
        <pt x="43" y="275" on="1"/>
        <pt x="188" y="275" on="1"/>
        <pt x="217" y="-182" on="1"/>
        <pt x="43" y="-182" on="1"/>
      </contour>
    </TTGlyph>
    <TTGlyph name="f" xMin="-8" yMin="-223" xMax="402" yMax="722">
      <contour>
        <pt x="326" y="579" on="1"/>
        <pt x="321" y="587" on="0"/>
        <pt x="298" y="604" on="0"/>
        <pt x="283" y="604" on="1"/>
        <pt x="260" y="604" on="0"/>
        <pt x="228" y="573" on="0"/>
        <pt x="228" y="544" on="1"/>
        <pt x="228" y="521" on="0"/>
        <pt x="232" y="502" on="1"/>
        <pt x="360" y="502" on="1"/>
        <pt x="340" y="382" on="1"/>
        <pt x="251" y="382" on="1"/>
        <pt x="251" y="17" on="1"/>
        <pt x="251" y="-40" on="0"/>
        <pt x="216" y="-118" on="0"/>
        <pt x="162" y="-172" on="0"/>
        <pt x="95" y="-208" on="0"/>
        <pt x="64" y="-223" on="1"/>
        <pt x="-8" y="-106" on="1"/>
        <pt x="40" y="-81" on="0"/>
        <pt x="93" y="-24" on="0"/>
        <pt x="93" y="14" on="1"/>
        <pt x="93" y="382" on="1"/>
        <pt x="16" y="382" on="1"/>
        <pt x="16" y="502" on="1"/>
        <pt x="93" y="502" on="1"/>
        <pt x="87" y="517" on="0"/>
        <pt x="80" y="549" on="0"/>
        <pt x="80" y="567" on="1"/>
        <pt x="80" y="604" on="0"/>
        <pt x="106" y="661" on="0"/>
        <pt x="154" y="701" on="0"/>
        <pt x="219" y="722" on="0"/>
        <pt x="258" y="722" on="1"/>
        <pt x="313" y="722" on="0"/>
        <pt x="378" y="686" on="0"/>
        <pt x="402" y="659" on="1"/>
      </contour>
    </TTGlyph>
    <TTGlyph name="five" xMin="37" yMin="-9" xMax="483" yMax="640">
      <contour>
        <pt x="61" y="311" on="1"/>
        <pt x="97" y="640" on="1"/>
        <pt x="458" y="640" on="1"/>
        <pt x="434" y="505" on="1"/>
        <pt x="233" y="505" on="1"/>
        <pt x="219" y="402" on="1"/>
        <pt x="232" y="405" on="0"/>
        <pt x="266" y="411" on="0"/>
        <pt x="289" y="411" on="1"/>
        <pt x="339" y="411" on="0"/>
        <pt x="412" y="376" on="0"/>
        <pt x="460" y="319" on="0"/>
        <pt x="483" y="244" on="0"/>
        <pt x="483" y="204" on="1"/>
        <pt x="483" y="166" on="0"/>
        <pt x="459" y="90" on="0"/>
        <pt x="405" y="29" on="0"/>
        <pt x="317" y="-9" on="0"/>
        <pt x="253" y="-9" on="1"/>
        <pt x="230" y="-9" on="0"/>
        <pt x="174" y="1" on="0"/>
        <pt x="117" y="17" on="0"/>
        <pt x="61" y="38" on="0"/>
        <pt x="37" y="49" on="1"/>
        <pt x="89" y="170" on="1"/>
        <pt x="104" y="163" on="0"/>
        <pt x="140" y="146" on="0"/>
        <pt x="178" y="132" on="0"/>
        <pt x="217" y="122" on="0"/>
        <pt x="234" y="122" on="1"/>
        <pt x="268" y="122" on="0"/>
        <pt x="312" y="166" on="0"/>
        <pt x="312" y="211" on="1"/>
        <pt x="312" y="245" on="0"/>
        <pt x="266" y="279" on="0"/>
        <pt x="228" y="279" on="1"/>
        <pt x="192" y="279" on="0"/>
        <pt x="144" y="264" on="0"/>
        <pt x="131" y="259" on="1"/>
      </contour>
    </TTGlyph>
    <TTGlyph name="four" xMin="12" yMin="0" xMax="520" yMax="640">
      <contour>
        <pt x="271" y="152" on="1"/>
        <pt x="12" y="152" on="1"/>
        <pt x="12" y="240" on="1"/>
        <pt x="179" y="640" on="1"/>
        <pt x="337" y="640" on="1"/>
        <pt x="188" y="283" on="1"/>
        <pt x="271" y="283" on="1"/>
        <pt x="271" y="423" on="1"/>
        <pt x="429" y="450" on="1"/>
        <pt x="429" y="283" on="1"/>
        <pt x="520" y="283" on="1"/>
        <pt x="497" y="152" on="1"/>
        <pt x="429" y="152" on="1"/>
        <pt x="429" y="0" on="1"/>
        <pt x="271" y="0" on="1"/>
      </contour>
    </TTGlyph>
    <TTGlyph name="fraction" xMin="-31" yMin="-8" xMax="383" yMax="594">
      <contour>
        <pt x="250" y="594" on="1"/>
        <pt x="383" y="594" on="1"/>
        <pt x="101" y="-8" on="1"/>
        <pt x="-31" y="-8" on="1"/>
      </contour>
    </TTGlyph>
    <TTGlyph name="g" xMin="27" yMin="-215" xMax="512" yMax="509">
      <contour>
        <pt x="135" y="-51" on="1"/>
        <pt x="179" y="-66" on="0"/>
        <pt x="244" y="-83" on="0"/>
        <pt x="281" y="-83" on="1"/>
        <pt x="321" y="-83" on="0"/>
        <pt x="370" y="-37" on="0"/>
        <pt x="370" y="6" on="1"/>
        <pt x="370" y="52" on="0"/>
        <pt x="356" y="88" on="1"/>
        <pt x="339" y="43" on="0"/>
        <pt x="273" y="-6" on="0"/>
        <pt x="220" y="-6" on="1"/>
        <pt x="171" y="-6" on="0"/>
        <pt x="98" y="30" on="0"/>
        <pt x="50" y="95" on="0"/>
        <pt x="27" y="187" on="0"/>
        <pt x="27" y="243" on="1"/>
        <pt x="27" y="300" on="0"/>
        <pt x="64" y="398" on="0"/>
        <pt x="130" y="469" on="0"/>
        <pt x="222" y="509" on="0"/>
        <pt x="278" y="509" on="1"/>
        <pt x="308" y="509" on="0"/>
        <pt x="373" y="501" on="0"/>
        <pt x="430" y="491" on="0"/>
        <pt x="473" y="482" on="0"/>
        <pt x="480" y="480" on="1"/>
        <pt x="476" y="231" on="1"/>
        <pt x="476" y="199" on="0"/>
        <pt x="487" y="144" on="0"/>
        <pt x="500" y="91" on="0"/>
        <pt x="512" y="35" on="0"/>
        <pt x="512" y="3" on="1"/>
        <pt x="512" y="-102" on="0"/>
        <pt x="393" y="-215" on="0"/>
        <pt x="291" y="-215" on="1"/>
        <pt x="245" y="-215" on="0"/>
        <pt x="145" y="-193" on="0"/>
        <pt x="98" y="-173" on="1"/>
      </contour>
      <contour>
        <pt x="262" y="110" on="0"/>
        <pt x="288" y="137" on="0"/>
        <pt x="308" y="183" on="0"/>
        <pt x="319" y="243" on="0"/>
        <pt x="319" y="276" on="1"/>
        <pt x="319" y="385" on="1"/>
        <pt x="312" y="388" on="0"/>
        <pt x="287" y="393" on="0"/>
        <pt x="278" y="393" on="1"/>
        <pt x="254" y="393" on="0"/>
        <pt x="222" y="372" on="0"/>
        <pt x="203" y="335" on="0"/>
        <pt x="195" y="283" on="0"/>
        <pt x="195" y="253" on="1"/>
        <pt x="195" y="225" on="0"/>
        <pt x="197" y="174" on="0"/>
        <pt x="208" y="134" on="0"/>
        <pt x="228" y="110" on="0"/>
        <pt x="246" y="110" on="1"/>
      </contour>
    </TTGlyph>
    <TTGlyph name="germandbls" xMin="-20" yMin="-224" xMax="601" yMax="738">
      <contour>
        <pt x="238" y="25" on="1"/>
        <pt x="238" y="-33" on="0"/>
        <pt x="204" y="-113" on="0"/>
        <pt x="147" y="-170" on="0"/>
        <pt x="73" y="-208" on="0"/>
        <pt x="33" y="-224" on="1"/>
        <pt x="-20" y="-140" on="1"/>
        <pt x="35" y="-111" on="0"/>
        <pt x="80" y="-34" on="0"/>
        <pt x="80" y="14" on="1"/>
        <pt x="80" y="494" on="1"/>
        <pt x="80" y="544" on="0"/>
        <pt x="118" y="633" on="0"/>
        <pt x="189" y="699" on="0"/>
        <pt x="292" y="738" on="0"/>
        <pt x="358" y="738" on="1"/>
        <pt x="412" y="738" on="0"/>
        <pt x="489" y="710" on="0"/>
        <pt x="537" y="667" on="0"/>
        <pt x="559" y="612" on="0"/>
        <pt x="559" y="585" on="1"/>
        <pt x="559" y="542" on="0"/>
        <pt x="523" y="492" on="0"/>
        <pt x="480" y="457" on="0"/>
        <pt x="444" y="428" on="0"/>
        <pt x="444" y="406" on="1"/>
        <pt x="444" y="387" on="0"/>
        <pt x="467" y="360" on="0"/>
        <pt x="502" y="335" on="0"/>
        <pt x="543" y="307" on="0"/>
        <pt x="578" y="266" on="0"/>
        <pt x="601" y="208" on="0"/>
        <pt x="601" y="165" on="1"/>
        <pt x="601" y="130" on="0"/>
        <pt x="575" y="67" on="0"/>
        <pt x="525" y="20" on="0"/>
        <pt x="453" y="-7" on="0"/>
        <pt x="407" y="-7" on="1"/>
        <pt x="376" y="-7" on="0"/>
        <pt x="324" y="4" on="0"/>
        <pt x="287" y="18" on="0"/>
        <pt x="266" y="30" on="0"/>
        <pt x="265" y="30" on="1"/>
        <pt x="313" y="136" on="1"/>
        <pt x="324" y="131" on="0"/>
        <pt x="360" y="117" on="0"/>
        <pt x="377" y="117" on="1"/>
        <pt x="435" y="117" on="0"/>
        <pt x="435" y="168" on="1"/>
        <pt x="435" y="189" on="0"/>
        <pt x="413" y="218" on="0"/>
        <pt x="380" y="243" on="0"/>
        <pt x="342" y="268" on="0"/>
        <pt x="309" y="301" on="0"/>
        <pt x="287" y="345" on="0"/>
        <pt x="287" y="378" on="1"/>
        <pt x="287" y="412" on="0"/>
        <pt x="321" y="459" on="0"/>
        <pt x="361" y="497" on="0"/>
        <pt x="395" y="534" on="0"/>
        <pt x="395" y="560" on="1"/>
        <pt x="395" y="587" on="0"/>
        <pt x="355" y="613" on="0"/>
        <pt x="326" y="613" on="1"/>
        <pt x="281" y="613" on="0"/>
        <pt x="238" y="543" on="0"/>
        <pt x="238" y="486" on="1"/>
      </contour>
    </TTGlyph>
    <TTGlyph name="grave" xMin="26" yMin="557" xMax="313" yMax="842">
      <contour>
        <pt x="246" y="557" on="1"/>
        <pt x="242" y="560" on="0"/>
        <pt x="196" y="590" on="0"/>
        <pt x="131" y="638" on="0"/>
        <pt x="57" y="704" on="0"/>
        <pt x="26" y="743" on="1"/>
        <pt x="130" y="842" on="1"/>
        <pt x="313" y="628" on="1"/>
      </contour>
    </TTGlyph>
    <TTGlyph name="greater" xMin="32" yMin="75" xMax="426" yMax="525">
      <contour>
        <pt x="32" y="197" on="1"/>
        <pt x="185" y="269" on="1"/>
        <pt x="204" y="277" on="0"/>
        <pt x="249" y="296" on="0"/>
        <pt x="264" y="301" on="1"/>
        <pt x="261" y="302" on="0"/>
        <pt x="245" y="307" on="0"/>
        <pt x="223" y="316" on="0"/>
        <pt x="197" y="327" on="0"/>
        <pt x="185" y="333" on="1"/>
        <pt x="34" y="402" on="1"/>
        <pt x="87" y="525" on="1"/>
        <pt x="426" y="360" on="1"/>
        <pt x="426" y="241" on="1"/>
        <pt x="85" y="75" on="1"/>
      </contour>
    </TTGlyph>
    <TTGlyph name="guillemotleft" xMin="42" yMin="7" xMax="578" yMax="482">
      <contour>
        <pt x="272" y="7" on="1"/>
        <pt x="229" y="44" on="0"/>
        <pt x="188" y="84" on="1"/>
        <pt x="153" y="118" on="0"/>
        <pt x="73" y="203" on="0"/>
        <pt x="42" y="245" on="1"/>
        <pt x="73" y="287" on="0"/>
        <pt x="153" y="371" on="0"/>
        <pt x="188" y="405" on="1"/>
        <pt x="229" y="445" on="0"/>
        <pt x="272" y="482" on="1"/>
        <pt x="338" y="408" on="1"/>
        <pt x="208" y="245" on="1"/>
        <pt x="338" y="82" on="1"/>
      </contour>
      <contour>
        <pt x="513" y="7" on="1"/>
        <pt x="469" y="44" on="0"/>
        <pt x="428" y="84" on="1"/>
        <pt x="393" y="118" on="0"/>
        <pt x="313" y="203" on="0"/>
        <pt x="283" y="245" on="1"/>
        <pt x="313" y="287" on="0"/>
        <pt x="393" y="371" on="0"/>
        <pt x="428" y="405" on="1"/>
        <pt x="469" y="445" on="0"/>
        <pt x="513" y="482" on="1"/>
        <pt x="578" y="408" on="1"/>
        <pt x="448" y="245" on="1"/>
        <pt x="578" y="82" on="1"/>
      </contour>
    </TTGlyph>
    <TTGlyph name="guillemotright" xMin="27" yMin="7" xMax="563" yMax="482">
      <contour>
        <pt x="333" y="482" on="1"/>
        <pt x="376" y="445" on="0"/>
        <pt x="417" y="405" on="1"/>
        <pt x="452" y="371" on="0"/>
        <pt x="532" y="287" on="0"/>
        <pt x="563" y="245" on="1"/>
        <pt x="532" y="203" on="0"/>
        <pt x="452" y="118" on="0"/>
        <pt x="417" y="84" on="1"/>
        <pt x="376" y="44" on="0"/>
        <pt x="333" y="7" on="1"/>
        <pt x="268" y="82" on="1"/>
        <pt x="398" y="245" on="1"/>
        <pt x="268" y="408" on="1"/>
      </contour>
      <contour>
        <pt x="93" y="482" on="1"/>
        <pt x="136" y="445" on="0"/>
        <pt x="177" y="405" on="1"/>
        <pt x="212" y="371" on="0"/>
        <pt x="292" y="287" on="0"/>
        <pt x="323" y="245" on="1"/>
        <pt x="292" y="203" on="0"/>
        <pt x="212" y="118" on="0"/>
        <pt x="177" y="84" on="1"/>
        <pt x="136" y="44" on="0"/>
        <pt x="93" y="7" on="1"/>
        <pt x="27" y="82" on="1"/>
        <pt x="157" y="245" on="1"/>
        <pt x="27" y="408" on="1"/>
      </contour>
    </TTGlyph>
    <TTGlyph name="guilsinglleft" xMin="42" yMin="7" xMax="338" yMax="482">
      <contour>
        <pt x="338" y="408" on="1"/>
        <pt x="208" y="245" on="1"/>
        <pt x="338" y="82" on="1"/>
        <pt x="272" y="7" on="1"/>
        <pt x="229" y="44" on="0"/>
        <pt x="188" y="84" on="1"/>
        <pt x="153" y="118" on="0"/>
        <pt x="73" y="203" on="0"/>
        <pt x="42" y="245" on="1"/>
        <pt x="73" y="287" on="0"/>
        <pt x="153" y="371" on="0"/>
        <pt x="188" y="405" on="1"/>
        <pt x="229" y="445" on="0"/>
        <pt x="272" y="482" on="1"/>
      </contour>
    </TTGlyph>
    <TTGlyph name="guilsinglright" xMin="27" yMin="7" xMax="323" yMax="482">
      <contour>
        <pt x="93" y="482" on="1"/>
        <pt x="136" y="445" on="0"/>
        <pt x="177" y="405" on="1"/>
        <pt x="212" y="371" on="0"/>
        <pt x="292" y="287" on="0"/>
        <pt x="323" y="245" on="1"/>
        <pt x="292" y="203" on="0"/>
        <pt x="212" y="118" on="0"/>
        <pt x="177" y="84" on="1"/>
        <pt x="136" y="44" on="0"/>
        <pt x="93" y="7" on="1"/>
        <pt x="27" y="82" on="1"/>
        <pt x="157" y="245" on="1"/>
        <pt x="27" y="408" on="1"/>
      </contour>
    </TTGlyph>
    <TTGlyph name="h" xMin="57" yMin="0" xMax="490" yMax="725">
      <contour>
        <pt x="215" y="464" on="1"/>
        <pt x="241" y="487" on="0"/>
        <pt x="309" y="509" on="0"/>
        <pt x="346" y="509" on="1"/>
        <pt x="424" y="509" on="0"/>
        <pt x="490" y="415" on="0"/>
        <pt x="490" y="335" on="1"/>
        <pt x="490" y="0" on="1"/>
        <pt x="331" y="0" on="1"/>
        <pt x="331" y="312" on="1"/>
        <pt x="331" y="347" on="0"/>
        <pt x="314" y="390" on="0"/>
        <pt x="291" y="390" on="1"/>
        <pt x="278" y="390" on="0"/>
        <pt x="251" y="373" on="0"/>
        <pt x="229" y="340" on="0"/>
        <pt x="215" y="293" on="0"/>
        <pt x="215" y="264" on="1"/>
        <pt x="215" y="0" on="1"/>
        <pt x="57" y="0" on="1"/>
        <pt x="57" y="698" on="1"/>
        <pt x="215" y="725" on="1"/>
      </contour>
    </TTGlyph>
    <TTGlyph name="hyphen" xMin="42" yMin="261" xMax="333" yMax="372">
      <contour>
        <pt x="42" y="372" on="1"/>
        <pt x="333" y="372" on="1"/>
        <pt x="333" y="261" on="1"/>
        <pt x="42" y="261" on="1"/>
      </contour>
    </TTGlyph>
    <TTGlyph name="i" xMin="42" yMin="-4" xMax="278" yMax="743">
      <contour>
        <pt x="122" y="-4" on="0"/>
        <pt x="52" y="55" on="0"/>
        <pt x="52" y="109" on="1"/>
        <pt x="52" y="502" on="1"/>
        <pt x="210" y="502" on="1"/>
        <pt x="210" y="154" on="1"/>
        <pt x="210" y="131" on="0"/>
        <pt x="224" y="115" on="0"/>
        <pt x="238" y="115" on="1"/>
        <pt x="246" y="115" on="0"/>
        <pt x="262" y="118" on="0"/>
        <pt x="264" y="119" on="1"/>
        <pt x="278" y="20" on="1"/>
        <pt x="277" y="19" on="0"/>
        <pt x="261" y="12" on="0"/>
        <pt x="235" y="3" on="0"/>
        <pt x="199" y="-4" on="0"/>
        <pt x="179" y="-4" on="1"/>
      </contour>
      <contour>
        <pt x="175" y="743" on="0"/>
        <pt x="219" y="693" on="0"/>
        <pt x="219" y="655" on="1"/>
        <pt x="219" y="616" on="0"/>
        <pt x="174" y="564" on="0"/>
        <pt x="129" y="564" on="1"/>
        <pt x="87" y="564" on="0"/>
        <pt x="42" y="615" on="0"/>
        <pt x="42" y="650" on="1"/>
        <pt x="42" y="690" on="0"/>
        <pt x="88" y="743" on="0"/>
        <pt x="133" y="743" on="1"/>
      </contour>
    </TTGlyph>
    <TTGlyph name="iacute" xMin="42" yMin="-4" xMax="293" yMax="825">
      <contour>
        <pt x="112" y="-4" on="0"/>
        <pt x="42" y="55" on="0"/>
        <pt x="42" y="109" on="1"/>
        <pt x="42" y="502" on="1"/>
        <pt x="200" y="502" on="1"/>
        <pt x="200" y="154" on="1"/>
        <pt x="200" y="131" on="0"/>
        <pt x="214" y="115" on="0"/>
        <pt x="228" y="115" on="1"/>
        <pt x="236" y="115" on="0"/>
        <pt x="252" y="118" on="0"/>
        <pt x="254" y="119" on="1"/>
        <pt x="268" y="20" on="1"/>
        <pt x="267" y="19" on="0"/>
        <pt x="251" y="12" on="0"/>
        <pt x="225" y="3" on="0"/>
        <pt x="189" y="-4" on="0"/>
        <pt x="169" y="-4" on="1"/>
      </contour>
      <contour>
        <pt x="43" y="611" on="1"/>
        <pt x="188" y="825" on="1"/>
        <pt x="293" y="727" on="1"/>
        <pt x="261" y="687" on="0"/>
        <pt x="196" y="620" on="0"/>
        <pt x="170" y="594" on="1"/>
        <pt x="139" y="564" on="0"/>
        <pt x="110" y="540" on="1"/>
      </contour>
    </TTGlyph>
    <TTGlyph name="icircumflex" xMin="-61" yMin="-4" xMax="305" yMax="794">
      <contour>
        <pt x="112" y="-4" on="0"/>
        <pt x="42" y="55" on="0"/>
        <pt x="42" y="109" on="1"/>
        <pt x="42" y="502" on="1"/>
        <pt x="200" y="502" on="1"/>
        <pt x="200" y="154" on="1"/>
        <pt x="200" y="131" on="0"/>
        <pt x="214" y="115" on="0"/>
        <pt x="228" y="115" on="1"/>
        <pt x="236" y="115" on="0"/>
        <pt x="252" y="118" on="0"/>
        <pt x="254" y="119" on="1"/>
        <pt x="268" y="20" on="1"/>
        <pt x="267" y="19" on="0"/>
        <pt x="251" y="12" on="0"/>
        <pt x="225" y="3" on="0"/>
        <pt x="189" y="-4" on="0"/>
        <pt x="169" y="-4" on="1"/>
      </contour>
      <contour>
        <pt x="88" y="593" on="0"/>
        <pt x="30" y="554" on="0"/>
        <pt x="1" y="537" on="1"/>
        <pt x="-61" y="610" on="1"/>
        <pt x="122" y="794" on="1"/>
        <pt x="305" y="610" on="1"/>
        <pt x="243" y="537" on="1"/>
        <pt x="215" y="554" on="0"/>
        <pt x="156" y="593" on="0"/>
        <pt x="122" y="620" on="1"/>
      </contour>
    </TTGlyph>
    <TTGlyph name="idieresis" xMin="-37" yMin="-4" xMax="282" yMax="721">
      <contour>
        <pt x="112" y="-4" on="0"/>
        <pt x="42" y="55" on="0"/>
        <pt x="42" y="109" on="1"/>
        <pt x="42" y="502" on="1"/>
        <pt x="200" y="502" on="1"/>
        <pt x="200" y="154" on="1"/>
        <pt x="200" y="131" on="0"/>
        <pt x="214" y="115" on="0"/>
        <pt x="228" y="115" on="1"/>
        <pt x="236" y="115" on="0"/>
        <pt x="252" y="118" on="0"/>
        <pt x="254" y="119" on="1"/>
        <pt x="268" y="20" on="1"/>
        <pt x="267" y="19" on="0"/>
        <pt x="251" y="12" on="0"/>
        <pt x="225" y="3" on="0"/>
        <pt x="189" y="-4" on="0"/>
        <pt x="169" y="-4" on="1"/>
      </contour>
      <contour>
        <pt x="109" y="615" on="0"/>
        <pt x="71" y="571" on="0"/>
        <pt x="34" y="571" on="1"/>
        <pt x="-1" y="571" on="0"/>
        <pt x="-37" y="614" on="0"/>
        <pt x="-37" y="644" on="1"/>
        <pt x="-37" y="676" on="0"/>
        <pt x="0" y="721" on="0"/>
        <pt x="37" y="721" on="1"/>
        <pt x="72" y="721" on="0"/>
        <pt x="109" y="677" on="0"/>
        <pt x="109" y="647" on="1"/>
      </contour>
      <contour>
        <pt x="282" y="615" on="0"/>
        <pt x="245" y="571" on="0"/>
        <pt x="208" y="571" on="1"/>
        <pt x="173" y="571" on="0"/>
        <pt x="136" y="614" on="0"/>
        <pt x="136" y="644" on="1"/>
        <pt x="136" y="676" on="0"/>
        <pt x="174" y="721" on="0"/>
        <pt x="211" y="721" on="1"/>
        <pt x="246" y="721" on="0"/>
        <pt x="282" y="677" on="0"/>
        <pt x="282" y="647" on="1"/>
      </contour>
    </TTGlyph>
    <TTGlyph name="igrave" xMin="-62" yMin="-4" xMax="268" yMax="825">
      <contour>
        <pt x="112" y="-4" on="0"/>
        <pt x="42" y="55" on="0"/>
        <pt x="42" y="109" on="1"/>
        <pt x="42" y="502" on="1"/>
        <pt x="200" y="502" on="1"/>
        <pt x="200" y="154" on="1"/>
        <pt x="200" y="131" on="0"/>
        <pt x="214" y="115" on="0"/>
        <pt x="228" y="115" on="1"/>
        <pt x="236" y="115" on="0"/>
        <pt x="252" y="118" on="0"/>
        <pt x="254" y="119" on="1"/>
        <pt x="268" y="20" on="1"/>
        <pt x="267" y="19" on="0"/>
        <pt x="251" y="12" on="0"/>
        <pt x="225" y="3" on="0"/>
        <pt x="189" y="-4" on="0"/>
        <pt x="169" y="-4" on="1"/>
      </contour>
      <contour>
        <pt x="121" y="540" on="1"/>
        <pt x="92" y="564" on="0"/>
        <pt x="61" y="594" on="1"/>
        <pt x="35" y="620" on="0"/>
        <pt x="-30" y="687" on="0"/>
        <pt x="-62" y="727" on="1"/>
        <pt x="42" y="825" on="1"/>
        <pt x="188" y="611" on="1"/>
      </contour>
    </TTGlyph>
    <TTGlyph name="j" xMin="-40" yMin="-223" xMax="227" yMax="743">
      <contour>
        <pt x="60" y="502" on="1"/>
        <pt x="217" y="502" on="1"/>
        <pt x="217" y="43" on="1"/>
        <pt x="217" y="-13" on="0"/>
        <pt x="189" y="-95" on="0"/>
        <pt x="138" y="-156" on="0"/>
        <pt x="68" y="-203" on="0"/>
        <pt x="26" y="-223" on="1"/>
        <pt x="-40" y="-115" on="1"/>
        <pt x="-8" y="-97" on="0"/>
        <pt x="32" y="-61" on="0"/>
        <pt x="53" y="-22" on="0"/>
        <pt x="60" y="19" on="0"/>
        <pt x="60" y="41" on="1"/>
      </contour>
      <contour>
        <pt x="182" y="743" on="0"/>
        <pt x="227" y="693" on="0"/>
        <pt x="227" y="655" on="1"/>
        <pt x="227" y="616" on="0"/>
        <pt x="182" y="564" on="0"/>
        <pt x="137" y="564" on="1"/>
        <pt x="95" y="564" on="0"/>
        <pt x="50" y="615" on="0"/>
        <pt x="50" y="650" on="1"/>
        <pt x="50" y="690" on="0"/>
        <pt x="95" y="743" on="0"/>
        <pt x="140" y="743" on="1"/>
      </contour>
    </TTGlyph>
    <TTGlyph name="k" xMin="57" yMin="0" xMax="528" yMax="725">
      <contour>
        <pt x="215" y="725" on="1"/>
        <pt x="215" y="463" on="1"/>
        <pt x="234" y="480" on="0"/>
        <pt x="296" y="509" on="0"/>
        <pt x="346" y="509" on="1"/>
        <pt x="377" y="509" on="0"/>
        <pt x="431" y="491" on="0"/>
        <pt x="470" y="456" on="0"/>
        <pt x="493" y="407" on="0"/>
        <pt x="493" y="376" on="1"/>
        <pt x="493" y="331" on="0"/>
        <pt x="460" y="272" on="0"/>
        <pt x="440" y="255" on="1"/>
        <pt x="417" y="235" on="0"/>
        <pt x="388" y="223" on="1"/>
        <pt x="528" y="0" on="1"/>
        <pt x="348" y="0" on="1"/>
        <pt x="304" y="74" on="0"/>
        <pt x="250" y="197" on="0"/>
        <pt x="240" y="250" on="1"/>
        <pt x="239" y="265" on="1"/>
        <pt x="246" y="266" on="0"/>
        <pt x="278" y="275" on="0"/>
        <pt x="311" y="294" on="0"/>
        <pt x="336" y="324" on="0"/>
        <pt x="336" y="345" on="1"/>
        <pt x="336" y="368" on="0"/>
        <pt x="313" y="393" on="0"/>
        <pt x="295" y="393" on="1"/>
        <pt x="272" y="393" on="0"/>
        <pt x="241" y="371" on="0"/>
        <pt x="223" y="343" on="0"/>
        <pt x="215" y="316" on="0"/>
        <pt x="215" y="310" on="1"/>
        <pt x="215" y="0" on="1"/>
        <pt x="57" y="0" on="1"/>
        <pt x="57" y="698" on="1"/>
      </contour>
    </TTGlyph>
    <TTGlyph name="l" xMin="52" yMin="-4" xMax="314" yMax="725">
      <contour>
        <pt x="149" y="-4" on="0"/>
        <pt x="100" y="16" on="0"/>
        <pt x="67" y="51" on="0"/>
        <pt x="52" y="97" on="0"/>
        <pt x="52" y="124" on="1"/>
        <pt x="52" y="698" on="1"/>
        <pt x="210" y="725" on="1"/>
        <pt x="210" y="158" on="1"/>
        <pt x="210" y="134" on="0"/>
        <pt x="227" y="115" on="0"/>
        <pt x="250" y="115" on="1"/>
        <pt x="261" y="115" on="0"/>
        <pt x="288" y="119" on="0"/>
        <pt x="299" y="121" on="1"/>
        <pt x="314" y="22" on="1"/>
        <pt x="299" y="15" on="0"/>
        <pt x="228" y="-4" on="0"/>
        <pt x="184" y="-4" on="1"/>
      </contour>
    </TTGlyph>
    <TTGlyph name="less" xMin="22" yMin="75" xMax="416" yMax="525">
      <contour>
        <pt x="363" y="75" on="1"/>
        <pt x="22" y="241" on="1"/>
        <pt x="22" y="360" on="1"/>
        <pt x="361" y="525" on="1"/>
        <pt x="414" y="402" on="1"/>
        <pt x="263" y="333" on="1"/>
        <pt x="251" y="327" on="0"/>
        <pt x="225" y="317" on="0"/>
        <pt x="203" y="308" on="0"/>
        <pt x="186" y="302" on="0"/>
        <pt x="183" y="301" on="1"/>
        <pt x="197" y="296" on="0"/>
        <pt x="243" y="278" on="0"/>
        <pt x="263" y="269" on="1"/>
        <pt x="416" y="197" on="1"/>
      </contour>
    </TTGlyph>
    <TTGlyph name="logicalnot" xMin="42" yMin="168" xMax="482" yMax="411">
      <contour>
        <pt x="42" y="411" on="1"/>
        <pt x="482" y="411" on="1"/>
        <pt x="482" y="168" on="1"/>
        <pt x="368" y="168" on="1"/>
        <pt x="368" y="295" on="1"/>
        <pt x="42" y="295" on="1"/>
      </contour>
    </TTGlyph>
    <TTGlyph name="m" xMin="17" yMin="0" xMax="745" yMax="509">
      <contour>
        <pt x="587" y="0" on="1"/>
        <pt x="587" y="312" on="1"/>
        <pt x="587" y="347" on="0"/>
        <pt x="575" y="390" on="0"/>
        <pt x="554" y="390" on="1"/>
        <pt x="530" y="390" on="0"/>
        <pt x="488" y="321" on="0"/>
        <pt x="488" y="264" on="1"/>
        <pt x="488" y="0" on="1"/>
        <pt x="329" y="0" on="1"/>
        <pt x="329" y="312" on="1"/>
        <pt x="329" y="347" on="0"/>
        <pt x="318" y="390" on="0"/>
        <pt x="296" y="390" on="1"/>
        <pt x="271" y="390" on="0"/>
        <pt x="230" y="319" on="0"/>
        <pt x="230" y="259" on="1"/>
        <pt x="230" y="0" on="1"/>
        <pt x="72" y="0" on="1"/>
        <pt x="72" y="260" on="1"/>
        <pt x="72" y="320" on="0"/>
        <pt x="55" y="399" on="0"/>
        <pt x="44" y="424" on="1"/>
        <pt x="32" y="452" on="0"/>
        <pt x="17" y="469" on="1"/>
        <pt x="144" y="509" on="1"/>
        <pt x="152" y="499" on="0"/>
        <pt x="161" y="486" on="1"/>
        <pt x="169" y="475" on="0"/>
        <pt x="184" y="440" on="0"/>
        <pt x="190" y="418" on="1"/>
        <pt x="214" y="465" on="0"/>
        <pt x="299" y="509" on="0"/>
        <pt x="351" y="509" on="1"/>
        <pt x="395" y="509" on="0"/>
        <pt x="450" y="474" on="0"/>
        <pt x="467" y="441" on="1"/>
        <pt x="493" y="477" on="0"/>
        <pt x="565" y="509" on="0"/>
        <pt x="609" y="509" on="1"/>
        <pt x="648" y="509" on="0"/>
        <pt x="700" y="484" on="0"/>
        <pt x="731" y="439" on="0"/>
        <pt x="745" y="374" on="0"/>
        <pt x="745" y="335" on="1"/>
        <pt x="745" y="0" on="1"/>
      </contour>
    </TTGlyph>
    <TTGlyph name="macron" xMin="73" yMin="572" xMax="404" yMax="683">
      <contour>
        <pt x="73" y="683" on="1"/>
        <pt x="404" y="683" on="1"/>
        <pt x="404" y="572" on="1"/>
        <pt x="73" y="572" on="1"/>
      </contour>
    </TTGlyph>
    <TTGlyph name="minus" xMin="30" yMin="242" xMax="394" yMax="358">
      <contour>
        <pt x="30" y="358" on="1"/>
        <pt x="394" y="358" on="1"/>
        <pt x="394" y="242" on="1"/>
        <pt x="30" y="242" on="1"/>
      </contour>
    </TTGlyph>
    <TTGlyph name="multiply" xMin="52" yMin="87" xMax="470" yMax="505">
      <contour>
        <pt x="141" y="502" on="1"/>
        <pt x="259" y="384" on="1"/>
        <pt x="381" y="505" on="1"/>
        <pt x="470" y="415" on="1"/>
        <pt x="349" y="294" on="1"/>
        <pt x="469" y="174" on="1"/>
        <pt x="384" y="90" on="1"/>
        <pt x="265" y="209" on="1"/>
        <pt x="142" y="87" on="1"/>
        <pt x="52" y="177" on="1"/>
        <pt x="174" y="299" on="1"/>
        <pt x="56" y="418" on="1"/>
      </contour>
    </TTGlyph>
    <TTGlyph name="n" xMin="17" yMin="0" xMax="505" yMax="509">
      <contour>
        <pt x="346" y="0" on="1"/>
        <pt x="346" y="312" on="1"/>
        <pt x="346" y="347" on="0"/>
        <pt x="329" y="390" on="0"/>
        <pt x="306" y="390" on="1"/>
        <pt x="278" y="390" on="0"/>
        <pt x="230" y="317" on="0"/>
        <pt x="230" y="251" on="1"/>
        <pt x="230" y="0" on="1"/>
        <pt x="72" y="0" on="1"/>
        <pt x="72" y="260" on="1"/>
        <pt x="72" y="320" on="0"/>
        <pt x="55" y="399" on="0"/>
        <pt x="44" y="424" on="1"/>
        <pt x="32" y="452" on="0"/>
        <pt x="17" y="469" on="1"/>
        <pt x="144" y="509" on="1"/>
        <pt x="153" y="499" on="0"/>
        <pt x="162" y="486" on="1"/>
        <pt x="170" y="475" on="0"/>
        <pt x="185" y="440" on="0"/>
        <pt x="190" y="418" on="1"/>
        <pt x="216" y="465" on="0"/>
        <pt x="307" y="509" on="0"/>
        <pt x="361" y="509" on="1"/>
        <pt x="439" y="509" on="0"/>
        <pt x="505" y="414" on="0"/>
        <pt x="505" y="335" on="1"/>
        <pt x="505" y="0" on="1"/>
      </contour>
    </TTGlyph>
    <TTGlyph name="nine" xMin="27" yMin="-9" xMax="510" yMax="644">
      <contour>
        <pt x="119" y="132" on="1"/>
        <pt x="143" y="124" on="0"/>
        <pt x="200" y="111" on="0"/>
        <pt x="226" y="111" on="1"/>
        <pt x="254" y="111" on="0"/>
        <pt x="293" y="134" on="0"/>
        <pt x="320" y="176" on="0"/>
        <pt x="335" y="233" on="0"/>
        <pt x="338" y="268" on="1"/>
        <pt x="318" y="252" on="0"/>
        <pt x="258" y="225" on="0"/>
        <pt x="220" y="225" on="1"/>
        <pt x="179" y="225" on="0"/>
        <pt x="109" y="250" on="0"/>
        <pt x="57" y="301" on="0"/>
        <pt x="27" y="380" on="0"/>
        <pt x="27" y="433" on="1"/>
        <pt x="27" y="479" on="0"/>
        <pt x="61" y="557" on="0"/>
        <pt x="123" y="613" on="0"/>
        <pt x="212" y="644" on="0"/>
        <pt x="268" y="644" on="1"/>
        <pt x="331" y="644" on="0"/>
        <pt x="422" y="596" on="0"/>
        <pt x="481" y="510" on="0"/>
        <pt x="510" y="391" on="0"/>
        <pt x="510" y="320" on="1"/>
        <pt x="510" y="256" on="0"/>
        <pt x="474" y="137" on="0"/>
        <pt x="402" y="46" on="0"/>
        <pt x="293" y="-9" on="0"/>
        <pt x="220" y="-9" on="1"/>
        <pt x="183" y="-9" on="0"/>
        <pt x="103" y="8" on="0"/>
        <pt x="77" y="20" on="1"/>
      </contour>
      <contour>
        <pt x="285" y="334" on="0"/>
        <pt x="327" y="358" on="0"/>
        <pt x="339" y="368" on="1"/>
        <pt x="335" y="460" on="0"/>
        <pt x="295" y="536" on="0"/>
        <pt x="258" y="536" on="1"/>
        <pt x="240" y="536" on="0"/>
        <pt x="213" y="520" on="0"/>
        <pt x="197" y="492" on="0"/>
        <pt x="189" y="455" on="0"/>
        <pt x="189" y="434" on="1"/>
        <pt x="189" y="382" on="0"/>
        <pt x="228" y="334" on="0"/>
        <pt x="262" y="334" on="1"/>
      </contour>
    </TTGlyph>
    <TTGlyph name="ntilde" xMin="17" yMin="0" xMax="505" yMax="709">
      <contour>
        <pt x="346" y="0" on="1"/>
        <pt x="346" y="312" on="1"/>
        <pt x="346" y="347" on="0"/>
        <pt x="329" y="390" on="0"/>
        <pt x="306" y="390" on="1"/>
        <pt x="278" y="390" on="0"/>
        <pt x="230" y="317" on="0"/>
        <pt x="230" y="251" on="1"/>
        <pt x="230" y="0" on="1"/>
        <pt x="72" y="0" on="1"/>
        <pt x="72" y="260" on="1"/>
        <pt x="72" y="320" on="0"/>
        <pt x="55" y="399" on="0"/>
        <pt x="44" y="424" on="1"/>
        <pt x="32" y="452" on="0"/>
        <pt x="17" y="469" on="1"/>
        <pt x="144" y="509" on="1"/>
        <pt x="153" y="499" on="0"/>
        <pt x="162" y="486" on="1"/>
        <pt x="170" y="475" on="0"/>
        <pt x="185" y="440" on="0"/>
        <pt x="190" y="418" on="1"/>
        <pt x="216" y="465" on="0"/>
        <pt x="307" y="509" on="0"/>
        <pt x="361" y="509" on="1"/>
        <pt x="439" y="509" on="0"/>
        <pt x="505" y="414" on="0"/>
        <pt x="505" y="335" on="1"/>
        <pt x="505" y="0" on="1"/>
      </contour>
      <contour>
        <pt x="170" y="686" on="1"/>
        <pt x="182" y="692" on="0"/>
        <pt x="196" y="697" on="1"/>
        <pt x="208" y="702" on="0"/>
        <pt x="239" y="709" on="0"/>
        <pt x="258" y="709" on="1"/>
        <pt x="297" y="709" on="0"/>
        <pt x="378" y="689" on="0"/>
        <pt x="418" y="689" on="1"/>
        <pt x="436" y="689" on="0"/>
        <pt x="465" y="693" on="0"/>
        <pt x="476" y="696" on="1"/>
        <pt x="488" y="699" on="0"/>
        <pt x="498" y="703" on="1"/>
        <pt x="498" y="603" on="1"/>
        <pt x="488" y="596" on="0"/>
        <pt x="476" y="591" on="1"/>
        <pt x="465" y="586" on="0"/>
        <pt x="436" y="580" on="0"/>
        <pt x="418" y="580" on="1"/>
        <pt x="378" y="580" on="0"/>
        <pt x="297" y="600" on="0"/>
        <pt x="258" y="600" on="1"/>
        <pt x="239" y="600" on="0"/>
        <pt x="208" y="595" on="0"/>
        <pt x="196" y="593" on="1"/>
        <pt x="182" y="589" on="0"/>
        <pt x="170" y="586" on="1"/>
      </contour>
    </TTGlyph>
    <TTGlyph name="numbersign" xMin="32" yMin="0" xMax="561" yMax="593">
      <contour>
        <pt x="485" y="593" on="1"/>
        <pt x="469" y="472" on="1"/>
        <pt x="561" y="472" on="1"/>
        <pt x="548" y="370" on="1"/>
        <pt x="456" y="370" on="1"/>
        <pt x="439" y="237" on="1"/>
        <pt x="538" y="237" on="1"/>
        <pt x="525" y="135" on="1"/>
        <pt x="426" y="135" on="1"/>
        <pt x="409" y="0" on="1"/>
        <pt x="306" y="0" on="1"/>
        <pt x="324" y="135" on="1"/>
        <pt x="223" y="135" on="1"/>
        <pt x="206" y="0" on="1"/>
        <pt x="103" y="0" on="1"/>
        <pt x="121" y="135" on="1"/>
        <pt x="32" y="135" on="1"/>
        <pt x="45" y="237" on="1"/>
        <pt x="134" y="237" on="1"/>
        <pt x="151" y="370" on="1"/>
        <pt x="55" y="370" on="1"/>
        <pt x="68" y="472" on="1"/>
        <pt x="164" y="472" on="1"/>
        <pt x="179" y="593" on="1"/>
        <pt x="282" y="593" on="1"/>
        <pt x="266" y="472" on="1"/>
        <pt x="367" y="472" on="1"/>
        <pt x="382" y="593" on="1"/>
      </contour>
      <contour>
        <pt x="236" y="237" on="1"/>
        <pt x="337" y="237" on="1"/>
        <pt x="354" y="370" on="1"/>
        <pt x="253" y="370" on="1"/>
      </contour>
    </TTGlyph>
    <TTGlyph name="o" xMin="27" yMin="-10" xMax="492" yMax="512">
      <contour>
        <pt x="383" y="512" on="0"/>
        <pt x="492" y="376" on="0"/>
        <pt x="492" y="256" on="1"/>
        <pt x="492" y="199" on="0"/>
        <pt x="463" y="102" on="0"/>
        <pt x="404" y="31" on="0"/>
        <pt x="315" y="-10" on="0"/>
        <pt x="256" y="-10" on="1"/>
        <pt x="196" y="-10" on="0"/>
        <pt x="109" y="25" on="0"/>
        <pt x="54" y="91" on="0"/>
        <pt x="27" y="186" on="0"/>
        <pt x="27" y="245" on="1"/>
        <pt x="27" y="302" on="0"/>
        <pt x="56" y="400" on="0"/>
        <pt x="115" y="471" on="0"/>
        <pt x="204" y="512" on="0"/>
        <pt x="264" y="512" on="1"/>
      </contour>
      <contour>
        <pt x="237" y="393" on="0"/>
        <pt x="213" y="372" on="0"/>
        <pt x="200" y="335" on="0"/>
        <pt x="195" y="285" on="0"/>
        <pt x="195" y="256" on="1"/>
        <pt x="195" y="226" on="0"/>
        <pt x="201" y="172" on="0"/>
        <pt x="216" y="132" on="0"/>
        <pt x="244" y="109" on="0"/>
        <pt x="265" y="109" on="1"/>
        <pt x="283" y="109" on="0"/>
        <pt x="307" y="131" on="0"/>
        <pt x="320" y="168" on="0"/>
        <pt x="325" y="218" on="0"/>
        <pt x="325" y="246" on="1"/>
        <pt x="325" y="277" on="0"/>
        <pt x="319" y="330" on="0"/>
        <pt x="304" y="370" on="0"/>
        <pt x="276" y="393" on="0"/>
        <pt x="255" y="393" on="1"/>
      </contour>
    </TTGlyph>
    <TTGlyph name="oacute" xMin="27" yMin="-10" xMax="492" yMax="842">
      <contour>
        <pt x="383" y="512" on="0"/>
        <pt x="492" y="376" on="0"/>
        <pt x="492" y="256" on="1"/>
        <pt x="492" y="199" on="0"/>
        <pt x="463" y="102" on="0"/>
        <pt x="404" y="31" on="0"/>
        <pt x="315" y="-10" on="0"/>
        <pt x="256" y="-10" on="1"/>
        <pt x="196" y="-10" on="0"/>
        <pt x="109" y="25" on="0"/>
        <pt x="54" y="91" on="0"/>
        <pt x="27" y="186" on="0"/>
        <pt x="27" y="245" on="1"/>
        <pt x="27" y="302" on="0"/>
        <pt x="56" y="400" on="0"/>
        <pt x="115" y="471" on="0"/>
        <pt x="204" y="512" on="0"/>
        <pt x="264" y="512" on="1"/>
      </contour>
      <contour>
        <pt x="237" y="393" on="0"/>
        <pt x="213" y="372" on="0"/>
        <pt x="200" y="335" on="0"/>
        <pt x="195" y="285" on="0"/>
        <pt x="195" y="256" on="1"/>
        <pt x="195" y="226" on="0"/>
        <pt x="201" y="172" on="0"/>
        <pt x="216" y="132" on="0"/>
        <pt x="244" y="109" on="0"/>
        <pt x="265" y="109" on="1"/>
        <pt x="283" y="109" on="0"/>
        <pt x="307" y="131" on="0"/>
        <pt x="320" y="168" on="0"/>
        <pt x="325" y="218" on="0"/>
        <pt x="325" y="246" on="1"/>
        <pt x="325" y="277" on="0"/>
        <pt x="319" y="330" on="0"/>
        <pt x="304" y="370" on="0"/>
        <pt x="276" y="393" on="0"/>
        <pt x="255" y="393" on="1"/>
      </contour>
      <contour>
        <pt x="196" y="628" on="1"/>
        <pt x="378" y="842" on="1"/>
        <pt x="482" y="743" on="1"/>
        <pt x="450" y="704" on="0"/>
        <pt x="374" y="636" on="0"/>
        <pt x="341" y="611" on="1"/>
        <pt x="302" y="581" on="0"/>
        <pt x="263" y="557" on="1"/>
      </contour>
    </TTGlyph>
    <TTGlyph name="ocircumflex" xMin="27" yMin="-10" xMax="492" yMax="828">
      <contour>
        <pt x="383" y="512" on="0"/>
        <pt x="492" y="376" on="0"/>
        <pt x="492" y="256" on="1"/>
        <pt x="492" y="199" on="0"/>
        <pt x="463" y="102" on="0"/>
        <pt x="404" y="31" on="0"/>
        <pt x="315" y="-10" on="0"/>
        <pt x="256" y="-10" on="1"/>
        <pt x="196" y="-10" on="0"/>
        <pt x="109" y="25" on="0"/>
        <pt x="54" y="91" on="0"/>
        <pt x="27" y="186" on="0"/>
        <pt x="27" y="245" on="1"/>
        <pt x="27" y="302" on="0"/>
        <pt x="56" y="400" on="0"/>
        <pt x="115" y="471" on="0"/>
        <pt x="204" y="512" on="0"/>
        <pt x="264" y="512" on="1"/>
      </contour>
      <contour>
        <pt x="237" y="393" on="0"/>
        <pt x="213" y="372" on="0"/>
        <pt x="200" y="335" on="0"/>
        <pt x="195" y="285" on="0"/>
        <pt x="195" y="256" on="1"/>
        <pt x="195" y="226" on="0"/>
        <pt x="201" y="172" on="0"/>
        <pt x="216" y="132" on="0"/>
        <pt x="244" y="109" on="0"/>
        <pt x="265" y="109" on="1"/>
        <pt x="283" y="109" on="0"/>
        <pt x="307" y="131" on="0"/>
        <pt x="320" y="168" on="0"/>
        <pt x="325" y="218" on="0"/>
        <pt x="325" y="246" on="1"/>
        <pt x="325" y="277" on="0"/>
        <pt x="319" y="330" on="0"/>
        <pt x="304" y="370" on="0"/>
        <pt x="276" y="393" on="0"/>
        <pt x="255" y="393" on="1"/>
      </contour>
      <contour>
        <pt x="65" y="631" on="1"/>
        <pt x="260" y="828" on="1"/>
        <pt x="454" y="631" on="1"/>
        <pt x="393" y="557" on="1"/>
        <pt x="373" y="567" on="0"/>
        <pt x="304" y="606" on="0"/>
        <pt x="260" y="639" on="1"/>
        <pt x="216" y="606" on="0"/>
        <pt x="147" y="568" on="0"/>
        <pt x="126" y="557" on="1"/>
      </contour>
    </TTGlyph>
    <TTGlyph name="odieresis" xMin="27" yMin="-10" xMax="492" yMax="741">
      <contour>
        <pt x="383" y="512" on="0"/>
        <pt x="492" y="376" on="0"/>
        <pt x="492" y="256" on="1"/>
        <pt x="492" y="199" on="0"/>
        <pt x="463" y="102" on="0"/>
        <pt x="404" y="31" on="0"/>
        <pt x="315" y="-10" on="0"/>
        <pt x="256" y="-10" on="1"/>
        <pt x="196" y="-10" on="0"/>
        <pt x="109" y="25" on="0"/>
        <pt x="54" y="91" on="0"/>
        <pt x="27" y="186" on="0"/>
        <pt x="27" y="245" on="1"/>
        <pt x="27" y="302" on="0"/>
        <pt x="56" y="400" on="0"/>
        <pt x="115" y="471" on="0"/>
        <pt x="204" y="512" on="0"/>
        <pt x="264" y="512" on="1"/>
      </contour>
      <contour>
        <pt x="237" y="393" on="0"/>
        <pt x="213" y="372" on="0"/>
        <pt x="200" y="335" on="0"/>
        <pt x="195" y="285" on="0"/>
        <pt x="195" y="256" on="1"/>
        <pt x="195" y="226" on="0"/>
        <pt x="201" y="172" on="0"/>
        <pt x="216" y="132" on="0"/>
        <pt x="244" y="109" on="0"/>
        <pt x="265" y="109" on="1"/>
        <pt x="283" y="109" on="0"/>
        <pt x="307" y="131" on="0"/>
        <pt x="320" y="168" on="0"/>
        <pt x="325" y="218" on="0"/>
        <pt x="325" y="246" on="1"/>
        <pt x="325" y="277" on="0"/>
        <pt x="319" y="330" on="0"/>
        <pt x="304" y="370" on="0"/>
        <pt x="276" y="393" on="0"/>
        <pt x="255" y="393" on="1"/>
      </contour>
      <contour>
        <pt x="231" y="634" on="0"/>
        <pt x="193" y="590" on="0"/>
        <pt x="156" y="590" on="1"/>
        <pt x="121" y="590" on="0"/>
        <pt x="84" y="633" on="0"/>
        <pt x="84" y="663" on="1"/>
        <pt x="84" y="696" on="0"/>
        <pt x="121" y="741" on="0"/>
        <pt x="159" y="741" on="1"/>
        <pt x="194" y="741" on="0"/>
        <pt x="231" y="697" on="0"/>
        <pt x="231" y="667" on="1"/>
      </contour>
      <contour>
        <pt x="446" y="634" on="0"/>
        <pt x="408" y="590" on="0"/>
        <pt x="371" y="590" on="1"/>
        <pt x="336" y="590" on="0"/>
        <pt x="299" y="633" on="0"/>
        <pt x="299" y="663" on="1"/>
        <pt x="299" y="696" on="0"/>
        <pt x="336" y="741" on="0"/>
        <pt x="374" y="741" on="1"/>
        <pt x="409" y="741" on="0"/>
        <pt x="446" y="697" on="0"/>
        <pt x="446" y="667" on="1"/>
      </contour>
    </TTGlyph>
</ttFont>
